<svg version="1.1" viewBox="0.0 0.0 685.9606299212599 167.5275590551181" fill="none" stroke="none" stroke-linecap="square" stroke-miterlimit="10" xmlns:xlink="http://www.w3.org/1999/xlink" xmlns="http://www.w3.org/2000/svg"><clipPath id="p.0"><path d="m0 0l685.96063 0l0 167.52756l-685.96063 0l0 -167.52756z" clip-rule="nonzero"/></clipPath><g clip-path="url(#p.0)"><path fill="#000000" fill-opacity="0.0" d="m0 0l685.96063 0l0 167.52756l-685.96063 0z" fill-rule="evenodd"/><path fill="#000000" fill-opacity="0.0" d="m-0.95538056 95.97737l684.8819 -0.6614227" fill-rule="evenodd"/><path stroke="#000000" stroke-width="3.0" stroke-linejoin="round" stroke-linecap="butt" d="m-0.95538056 95.97737l666.8819 -0.64403534" fill-rule="evenodd"/><path fill="#000000" stroke="#000000" stroke-width="3.0" stroke-linecap="butt" d="m665.9313 100.288536l13.609558 -4.9683456l-13.61908 -4.942047z" fill-rule="evenodd"/><path fill="#000000" fill-opacity="0.0" d="m262.4475 8.671916l246.96063 0l0 149.76378l-246.96063 0z" fill-rule="evenodd"/><path stroke="#5252cf" stroke-width="1.0" stroke-linejoin="round" stroke-linecap="butt" stroke-dasharray="4.0,3.0" d="m262.4475 8.671916l246.96063 0l0 149.76378l-246.96063 0z" fill-rule="evenodd"/><path fill="#000000" d="m277.8069 33.30254l-2.734375 7.609375l-0.890625 0l-2.734375 -7.609375l0.921875 0l1.78125 5.015625q0.109375 0.296875 0.1875 0.578125q0.09375 0.265625 0.15625 0.53125q0.078125 0.25 0.125 0.484375q0.046875 -0.234375 0.109375 -0.484375q0.078125 -0.265625 0.15625 -0.546875q0.09375 -0.28125 0.203125 -0.578125l1.78125 -5.0l0.9375 0zm3.1031494 1.796875q0.71875 0 1.234375 0.328125q0.53125 0.328125 0.796875 0.90625q0.28125 0.578125 0.28125 1.359375l0 0.53125l-3.9375 0q0.015625 1.0 0.5 1.53125q0.484375 0.515625 1.359375 0.515625q0.546875 0 0.953125 -0.09375q0.421875 -0.09375 0.875 -0.296875l0 0.765625q-0.4375 0.1875 -0.859375 0.28125q-0.421875 0.09375 -1.0 0.09375q-0.8125 0 -1.4375 -0.328125q-0.609375 -0.34375 -0.953125 -1.0q-0.328125 -0.65625 -0.328125 -1.59375q0 -0.921875 0.3125 -1.59375q0.3125 -0.671875 0.875 -1.03125q0.5625 -0.375 1.328125 -0.375zm-0.015625 0.71875q-0.6875 0 -1.109375 0.453125q-0.40625 0.453125 -0.484375 1.265625l3.015625 0q0 -0.515625 -0.15625 -0.90625q-0.15625 -0.390625 -0.46875 -0.59375q-0.3125 -0.21875 -0.796875 -0.21875zm6.389984 -0.71875q0.171875 0 0.359375 0.03125q0.1875 0.015625 0.328125 0.046875l-0.109375 0.796875q-0.140625 -0.03125 -0.3125 -0.046875q-0.171875 -0.03125 -0.3125 -0.03125q-0.34375 0 -0.65625 0.140625q-0.296875 0.140625 -0.53125 0.40625q-0.21875 0.25 -0.359375 0.609375q-0.125 0.359375 -0.125 0.796875l0 3.0625l-0.875 0l0 -5.703125l0.71875 0l0.09375 1.046875l0.046875 0q0.171875 -0.3125 0.421875 -0.578125q0.25 -0.265625 0.578125 -0.421875q0.328125 -0.15625 0.734375 -0.15625zm5.448883 4.25q0 0.546875 -0.28125 0.921875q-0.265625 0.375 -0.78125 0.5625q-0.5 0.1875 -1.1875 0.1875q-0.609375 0 -1.046875 -0.09375q-0.4375 -0.09375 -0.765625 -0.265625l0 -0.796875q0.359375 0.171875 0.84375 0.3125q0.484375 0.140625 0.984375 0.140625q0.734375 0 1.0625 -0.234375q0.34375 -0.25 0.34375 -0.65625q0 -0.234375 -0.140625 -0.40625q-0.125 -0.1875 -0.4375 -0.359375q-0.3125 -0.171875 -0.859375 -0.375q-0.546875 -0.203125 -0.953125 -0.40625q-0.390625 -0.203125 -0.609375 -0.5q-0.21875 -0.296875 -0.21875 -0.78125q0 -0.71875 0.578125 -1.109375q0.59375 -0.390625 1.546875 -0.390625q0.515625 0 0.953125 0.109375q0.453125 0.09375 0.84375 0.265625l-0.28125 0.703125q-0.359375 -0.15625 -0.765625 -0.25q-0.390625 -0.109375 -0.8125 -0.109375q-0.59375 0 -0.921875 0.203125q-0.3125 0.1875 -0.3125 0.53125q0 0.265625 0.140625 0.4375q0.15625 0.171875 0.484375 0.328125q0.328125 0.140625 0.859375 0.34375q0.53125 0.203125 0.921875 0.421875q0.390625 0.203125 0.59375 0.5q0.21875 0.296875 0.21875 0.765625zm2.2658691 -4.140625l0 5.703125l-0.875 0l0 -5.703125l0.875 0zm-0.421875 -2.140625q0.203125 0 0.359375 0.140625q0.15625 0.140625 0.15625 0.4375q0 0.28125 -0.15625 0.421875q-0.15625 0.140625 -0.359375 0.140625q-0.234375 0 -0.390625 -0.140625q-0.140625 -0.140625 -0.140625 -0.421875q0 -0.296875 0.140625 -0.4375q0.15625 -0.140625 0.390625 -0.140625zm7.1588135 4.984375q0 0.703125 -0.1875 1.25q-0.171875 0.546875 -0.515625 0.9375q-0.34375 0.375 -0.84375 0.578125q-0.484375 0.203125 -1.09375 0.203125q-0.5625 0 -1.046875 -0.203125q-0.46875 -0.203125 -0.828125 -0.578125q-0.34375 -0.390625 -0.53125 -0.9375q-0.1875 -0.546875 -0.1875 -1.25q0 -0.9375 0.3125 -1.59375q0.328125 -0.65625 0.90625 -1.0q0.59375 -0.359375 1.40625 -0.359375q0.78125 0 1.359375 0.359375q0.59375 0.34375 0.921875 1.0q0.328125 0.65625 0.328125 1.59375zm-4.34375 0q0 0.6875 0.1875 1.1875q0.1875 0.5 0.5625 0.78125q0.375 0.28125 0.96875 0.28125q0.59375 0 0.96875 -0.28125q0.390625 -0.28125 0.578125 -0.78125q0.1875 -0.5 0.1875 -1.1875q0 -0.6875 -0.1875 -1.171875q-0.1875 -0.5 -0.5625 -0.765625q-0.375 -0.28125 -0.984375 -0.28125q-0.890625 0 -1.3125 0.59375q-0.40625 0.578125 -0.40625 1.625zm8.5354 -2.953125q1.015625 0 1.53125 0.5q0.53125 0.5 0.53125 1.59375l0 3.71875l-0.859375 0l0 -3.65625q0 -0.71875 -0.328125 -1.0625q-0.328125 -0.359375 -1.0 -0.359375q-0.9375 0 -1.328125 0.546875q-0.375 0.53125 -0.375 1.546875l0 2.984375l-0.875 0l0 -5.703125l0.703125 0l0.125 0.828125l0.046875 0q0.1875 -0.3125 0.46875 -0.515625q0.28125 -0.203125 0.625 -0.3125q0.34375 -0.109375 0.734375 -0.109375zm7.5196533 4.25q0 0.546875 -0.28125 0.921875q-0.265625 0.375 -0.78125 0.5625q-0.5 0.1875 -1.1875 0.1875q-0.609375 0 -1.046875 -0.09375q-0.4375 -0.09375 -0.765625 -0.265625l0 -0.796875q0.359375 0.171875 0.84375 0.3125q0.484375 0.140625 0.984375 0.140625q0.734375 0 1.0625 -0.234375q0.34375 -0.25 0.34375 -0.65625q0 -0.234375 -0.140625 -0.40625q-0.125 -0.1875 -0.4375 -0.359375q-0.3125 -0.171875 -0.859375 -0.375q-0.546875 -0.203125 -0.953125 -0.40625q-0.390625 -0.203125 -0.609375 -0.5q-0.21875 -0.296875 -0.21875 -0.78125q0 -0.71875 0.578125 -1.109375q0.59375 -0.390625 1.546875 -0.390625q0.515625 0 0.953125 0.109375q0.453125 0.09375 0.84375 0.265625l-0.28125 0.703125q-0.359375 -0.15625 -0.765625 -0.25q-0.390625 -0.109375 -0.8125 -0.109375q-0.59375 0 -0.921875 0.203125q-0.3125 0.1875 -0.3125 0.53125q0 0.265625 0.140625 0.4375q0.15625 0.171875 0.484375 0.328125q0.328125 0.140625 0.859375 0.34375q0.53125 0.203125 0.921875 0.421875q0.390625 0.203125 0.59375 0.5q0.21875 0.296875 0.21875 0.765625zm8.799622 1.546875l-1.015625 -3.3125q-0.0625 -0.21875 -0.125 -0.421875q-0.0625 -0.203125 -0.109375 -0.390625q-0.046875 -0.1875 -0.09375 -0.34375q-0.03125 -0.171875 -0.0625 -0.296875l-0.03125 0q-0.015625 0.125 -0.0625 0.296875q-0.03125 0.15625 -0.078125 0.34375q-0.046875 0.1875 -0.109375 0.40625q-0.0625 0.203125 -0.125 0.421875l-1.0625 3.296875l-0.96875 0l-1.578125 -5.703125l0.890625 0l0.828125 3.15625q0.078125 0.3125 0.15625 0.625q0.078125 0.296875 0.125 0.5625q0.0625 0.265625 0.09375 0.46875l0.03125 0q0.03125 -0.140625 0.0625 -0.3125q0.046875 -0.1875 0.09375 -0.390625q0.0625 -0.203125 0.109375 -0.40625q0.0625 -0.21875 0.125 -0.390625l1.046875 -3.3125l0.921875 0l1.015625 3.296875q0.078125 0.25 0.15625 0.53125q0.078125 0.265625 0.140625 0.515625q0.0625 0.25 0.09375 0.453125l0.03125 0q0.03125 -0.171875 0.078125 -0.4375q0.0625 -0.265625 0.140625 -0.578125q0.078125 -0.3125 0.15625 -0.625l0.828125 -3.15625l0.875 0l-1.5625 5.703125l-1.015625 0zm4.4919434 -5.6875l0 5.703125l-0.875 0l0 -5.703125l0.875 0zm-0.421875 -2.140625q0.203125 0 0.359375 0.140625q0.15625 0.140625 0.15625 0.4375q0 0.28125 -0.15625 0.421875q-0.15625 0.140625 -0.359375 0.140625q-0.234375 0 -0.390625 -0.140625q-0.140625 -0.140625 -0.140625 -0.421875q0 -0.296875 0.140625 -0.4375q0.15625 -0.140625 0.390625 -0.140625zm4.9400635 2.03125q1.015625 0 1.53125 0.5q0.53125 0.5 0.53125 1.59375l0 3.71875l-0.859375 0l0 -3.65625q0 -0.71875 -0.328125 -1.0625q-0.328125 -0.359375 -1.0 -0.359375q-0.9375 0 -1.328125 0.546875q-0.375 0.53125 -0.375 1.546875l0 2.984375l-0.875 0l0 -5.703125l0.703125 0l0.125 0.828125l0.046875 0q0.1875 -0.3125 0.46875 -0.515625q0.28125 -0.203125 0.625 -0.3125q0.34375 -0.109375 0.734375 -0.109375zm5.8634033 5.921875q-1.078125 0 -1.71875 -0.734375q-0.625 -0.75 -0.625 -2.203125q0 -1.46875 0.640625 -2.21875q0.65625 -0.765625 1.71875 -0.765625q0.453125 0 0.78125 0.125q0.34375 0.125 0.59375 0.328125q0.25 0.1875 0.40625 0.453125l0.0625 0q-0.015625 -0.171875 -0.046875 -0.453125q-0.015625 -0.28125 -0.015625 -0.453125l0 -2.28125l0.875 0l0 8.09375l-0.703125 0l-0.125 -0.8125l-0.046875 0q-0.15625 0.25 -0.40625 0.46875q-0.25 0.203125 -0.59375 0.328125q-0.328125 0.125 -0.796875 0.125zm0.140625 -0.71875q0.90625 0 1.28125 -0.515625q0.390625 -0.53125 0.390625 -1.546875l0 -0.15625q0 -1.09375 -0.359375 -1.671875q-0.359375 -0.59375 -1.3125 -0.59375q-0.796875 0 -1.203125 0.625q-0.390625 0.609375 -0.390625 1.65625q0 1.046875 0.390625 1.625q0.40625 0.578125 1.203125 0.578125zm9.269684 -2.25q0 0.703125 -0.1875 1.25q-0.171875 0.546875 -0.515625 0.9375q-0.34375 0.375 -0.84375 0.578125q-0.484375 0.203125 -1.09375 0.203125q-0.5625 0 -1.046875 -0.203125q-0.46875 -0.203125 -0.828125 -0.578125q-0.34375 -0.390625 -0.53125 -0.9375q-0.1875 -0.546875 -0.1875 -1.25q0 -0.9375 0.3125 -1.59375q0.328125 -0.65625 0.90625 -1.0q0.59375 -0.359375 1.40625 -0.359375q0.78125 0 1.359375 0.359375q0.59375 0.34375 0.921875 1.0q0.328125 0.65625 0.328125 1.59375zm-4.34375 0q0 0.6875 0.1875 1.1875q0.1875 0.5 0.5625 0.78125q0.375 0.28125 0.96875 0.28125q0.59375 0 0.96875 -0.28125q0.390625 -0.28125 0.578125 -0.78125q0.1875 -0.5 0.1875 -1.1875q0 -0.6875 -0.1875 -1.171875q-0.1875 -0.5 -0.5625 -0.765625q-0.375 -0.28125 -0.984375 -0.28125q-0.890625 0 -1.3125 0.59375q-0.40625 0.578125 -0.40625 1.625zm10.4729 2.84375l-1.015625 -3.3125q-0.0625 -0.21875 -0.125 -0.421875q-0.0625 -0.203125 -0.109375 -0.390625q-0.046875 -0.1875 -0.09375 -0.34375q-0.03125 -0.171875 -0.0625 -0.296875l-0.03125 0q-0.015625 0.125 -0.0625 0.296875q-0.03125 0.15625 -0.078125 0.34375q-0.046875 0.1875 -0.109375 0.40625q-0.0625 0.203125 -0.125 0.421875l-1.0625 3.296875l-0.96875 0l-1.578125 -5.703125l0.890625 0l0.828125 3.15625q0.078125 0.3125 0.15625 0.625q0.078125 0.296875 0.125 0.5625q0.0625 0.265625 0.09375 0.46875l0.03125 0q0.03125 -0.140625 0.0625 -0.3125q0.046875 -0.1875 0.09375 -0.390625q0.0625 -0.203125 0.109375 -0.40625q0.0625 -0.21875 0.125 -0.390625l1.046875 -3.3125l0.921875 0l1.015625 3.296875q0.078125 0.25 0.15625 0.53125q0.078125 0.265625 0.140625 0.515625q0.0625 0.25 0.09375 0.453125l0.03125 0q0.03125 -0.171875 0.078125 -0.4375q0.0625 -0.265625 0.140625 -0.578125q0.078125 -0.3125 0.15625 -0.625l0.828125 -3.15625l0.875 0l-1.5625 5.703125l-1.015625 0z" fill-rule="nonzero"/><path fill="#5252cf" fill-opacity="0.5136" d="m19.14377 58.846832l34.015747 0l0 33.16535l-34.015747 0z" fill-rule="evenodd"/><path stroke="#000000" stroke-width="1.0" stroke-linejoin="round" stroke-linecap="butt" d="m19.14377 58.846832l34.015747 0l0 33.16535l-34.015747 0z" fill-rule="evenodd"/><path fill="#ffffff" d="m42.39282 82.90951l-12.5 0l6.546875 -14.4375l5.953125 14.4375zm-2.453125 -0.859375l-4.15625 -10.0625l-4.578125 10.0625l8.734375 0z" fill-rule="nonzero"/><path fill="#5252cf" fill-opacity="0.5136" d="m60.318565 58.846832l34.015747 0l0 33.16535l-34.015747 0z" fill-rule="evenodd"/><path stroke="#000000" stroke-width="1.0" stroke-linejoin="round" stroke-linecap="butt" d="m60.318565 58.846832l34.015747 0l0 33.16535l-34.015747 0z" fill-rule="evenodd"/><path fill="#ffffff" d="m83.56761 82.90951l-12.5 0l6.546875 -14.4375l5.953125 14.4375zm-2.453125 -0.859375l-4.15625 -10.0625l-4.578125 10.0625l8.734375 0z" fill-rule="nonzero"/><path fill="#5252cf" fill-opacity="0.5136" d="m101.49336 58.846832l34.015747 0l0 33.16535l-34.015747 0z" fill-rule="evenodd"/><path stroke="#000000" stroke-width="1.0" stroke-linejoin="round" stroke-linecap="butt" d="m101.49336 58.846832l34.015747 0l0 33.16535l-34.015747 0z" fill-rule="evenodd"/><path fill="#ffffff" d="m124.74241 82.90951l-12.5 0l6.546875 -14.4375l5.953125 14.4375zm-2.453125 -0.859375l-4.15625 -10.0625l-4.578125 10.0625l8.734375 0z" fill-rule="nonzero"/><path fill="#5252cf" fill-opacity="0.5136" d="m142.66817 58.846832l34.015747 0l0 33.16535l-34.015747 0z" fill-rule="evenodd"/><path stroke="#000000" stroke-width="1.0" stroke-linejoin="round" stroke-linecap="butt" d="m142.66817 58.846832l34.015747 0l0 33.16535l-34.015747 0z" fill-rule="evenodd"/><path fill="#ffffff" d="m165.9172 82.90951l-12.5 0l6.546875 -14.4375l5.953125 14.4375zm-2.453125 -0.859375l-4.15625 -10.0625l-4.578125 10.0625l8.734375 0z" fill-rule="nonzero"/><path fill="#5252cf" fill-opacity="0.5136" d="m183.84296 58.846832l34.015747 0l0 33.16535l-34.015747 0z" fill-rule="evenodd"/><path stroke="#000000" stroke-width="1.0" stroke-linejoin="round" stroke-linecap="butt" d="m183.84296 58.846832l34.015747 0l0 33.16535l-34.015747 0z" fill-rule="evenodd"/><path fill="#ffffff" d="m207.09201 82.90951l-12.5 0l6.546875 -14.4375l5.953125 14.4375zm-2.453125 -0.859375l-4.15625 -10.0625l-4.578125 10.0625l8.734375 0z" fill-rule="nonzero"/><path fill="#5252cf" fill-opacity="0.5136" d="m225.01775 58.846832l34.015762 0l0 33.16535l-34.015762 0z" fill-rule="evenodd"/><path stroke="#000000" stroke-width="1.0" stroke-linejoin="round" stroke-linecap="butt" d="m225.01775 58.846832l34.015762 0l0 33.16535l-34.015762 0z" fill-rule="evenodd"/><path fill="#000000" fill-opacity="0.0" d="m235.50117 63.601727l13.048904 0l0 24.525257l-13.048904 0l0 -24.525257z" fill-rule="nonzero"/><path fill="#ffffff" d="m248.2668 82.90951l-12.5 0l6.546875 -14.4375l5.953125 14.4375zm-2.453125 -0.859375l-4.15625 -10.0625l-4.578125 10.0625l8.734375 0z" fill-rule="nonzero"/><path fill="#010000" fill-opacity="0.0" d="m248.55008 67.069626l0 0l0 24.973068l0 0l0 -24.973068z" fill-rule="nonzero"/><path fill="#ffffff" d="m235.50117 75.54951l13.048904 0l0 1.9200058l-13.048904 0l0 -1.9200058z" fill-rule="nonzero"/><path fill="#5252cf" d="m266.19254 58.846832l34.015778 0l0 33.16535l-34.015778 0z" fill-rule="evenodd"/><path stroke="#000000" stroke-width="1.0" stroke-linejoin="round" stroke-linecap="butt" d="m266.19254 58.846832l34.015778 0l0 33.16535l-34.015778 0z" fill-rule="evenodd"/><path fill="#ffffff" d="m289.4416 82.90951l-12.5 0l6.546875 -14.4375l5.953125 14.4375zm-2.453125 -0.859375l-4.15625 -10.0625l-4.578125 10.0625l8.734375 0z" fill-rule="nonzero"/><path fill="#5252cf" d="m307.36734 58.846832l34.015747 0l0 33.16535l-34.015747 0z" fill-rule="evenodd"/><path stroke="#000000" stroke-width="1.0" stroke-linejoin="round" stroke-linecap="butt" d="m307.36734 58.846832l34.015747 0l0 33.16535l-34.015747 0z" fill-rule="evenodd"/><path fill="#ffffff" d="m330.6164 82.90951l-12.5 0l6.546875 -14.4375l5.953125 14.4375zm-2.453125 -0.859375l-4.15625 -10.0625l-4.578125 10.0625l8.734375 0z" fill-rule="nonzero"/><path fill="#5252cf" fill-opacity="0.5136" d="m348.54214 58.846832l34.015747 0l0 33.16535l-34.015747 0z" fill-rule="evenodd"/><path stroke="#000000" stroke-width="1.0" stroke-linejoin="round" stroke-linecap="butt" d="m348.54214 58.846832l34.015747 0l0 33.16535l-34.015747 0z" fill-rule="evenodd"/><path fill="#ffffff" d="m371.7912 82.90951l-12.5 0l6.546875 -14.4375l5.953125 14.4375zm-2.453125 -0.859375l-4.15625 -10.0625l-4.578125 10.0625l8.734375 0z" fill-rule="nonzero"/><path fill="#5252cf" d="m389.71695 58.846832l34.015747 0l0 33.16535l-34.015747 0z" fill-rule="evenodd"/><path stroke="#000000" stroke-width="1.0" stroke-linejoin="round" stroke-linecap="butt" d="m389.71695 58.846832l34.015747 0l0 33.16535l-34.015747 0z" fill-rule="evenodd"/><path fill="#000000" fill-opacity="0.0" d="m400.20035 63.601727l13.04892 0l0 24.525257l-13.04892 0l0 -24.525257z" fill-rule="nonzero"/><path fill="#ffffff" d="m412.96597 82.90951l-12.5 0l6.546875 -14.4375l5.953125 14.4375zm-2.453125 -0.859375l-4.15625 -10.0625l-4.578125 10.0625l8.734375 0z" fill-rule="nonzero"/><path fill="#010000" fill-opacity="0.0" d="m413.24927 67.069626l0 0l0 24.973068l0 0l0 -24.973068z" fill-rule="nonzero"/><path fill="#ffffff" d="m400.20035 75.54951l13.04892 0l0 1.9200058l-13.04892 0l0 -1.9200058z" fill-rule="nonzero"/><path fill="#5252cf" fill-opacity="0.5136" d="m430.89172 58.846832l34.015747 0l0 33.16535l-34.015747 0z" fill-rule="evenodd"/><path stroke="#000000" stroke-width="1.0" stroke-linejoin="round" stroke-linecap="butt" d="m430.89172 58.846832l34.015747 0l0 33.16535l-34.015747 0z" fill-rule="evenodd"/><path fill="#ffffff" d="m454.14078 82.90951l-12.5 0l6.546875 -14.4375l5.953125 14.4375zm-2.453125 -0.859375l-4.15625 -10.0625l-4.578125 10.0625l8.734375 0z" fill-rule="nonzero"/><path fill="#000000" fill-opacity="0.0" d="m509.38583 26.26509l165.07083 0l0 111.30708l-165.07083 0z" fill-rule="evenodd"/><path stroke="#5252cf" stroke-width="1.0" stroke-linejoin="round" stroke-linecap="butt" stroke-dasharray="4.0,3.0" d="m509.38583 26.26509l165.07083 0l0 111.30708l-165.07083 0z" fill-rule="evenodd"/><path fill="#000000" d="m558.1924 45.505093l-1.046875 0l-2.75 -3.703125l-0.8125 0.734375l0 2.96875l-0.875 0l0 -7.609375l0.875 0l0 3.796875q0.296875 -0.34375 0.609375 -0.671875q0.3125 -0.34375 0.625 -0.6875l2.21875 -2.4375l1.03125 0l-3.03125 3.296875l3.15625 4.3125zm3.1030273 -5.8125q0.71875 0 1.234375 0.328125q0.53125 0.328125 0.796875 0.90625q0.28125 0.578125 0.28125 1.359375l0 0.53125l-3.9375 0q0.015625 1.0 0.5 1.53125q0.484375 0.515625 1.359375 0.515625q0.546875 0 0.953125 -0.09375q0.421875 -0.09375 0.875 -0.296875l0 0.765625q-0.4375 0.1875 -0.859375 0.28125q-0.421875 0.09375 -1.0 0.09375q-0.8125 0 -1.4375 -0.328125q-0.609375 -0.34375 -0.953125 -1.0q-0.328125 -0.65625 -0.328125 -1.59375q0 -0.921875 0.3125 -1.59375q0.3125 -0.671875 0.875 -1.03125q0.5625 -0.375 1.328125 -0.375zm-0.015625 0.71875q-0.6875 0 -1.109375 0.453125q-0.40625 0.453125 -0.484375 1.265625l3.015625 0q0 -0.515625 -0.15625 -0.90625q-0.15625 -0.390625 -0.46875 -0.59375q-0.3125 -0.21875 -0.796875 -0.21875zm5.9993286 -0.71875q0.71875 0 1.234375 0.328125q0.53125 0.328125 0.796875 0.90625q0.28125 0.578125 0.28125 1.359375l0 0.53125l-3.9375 0q0.015625 1.0 0.5 1.53125q0.484375 0.515625 1.359375 0.515625q0.546875 0 0.953125 -0.09375q0.421875 -0.09375 0.875 -0.296875l0 0.765625q-0.4375 0.1875 -0.859375 0.28125q-0.421875 0.09375 -1.0 0.09375q-0.8125 0 -1.4375 -0.328125q-0.609375 -0.34375 -0.953125 -1.0q-0.328125 -0.65625 -0.328125 -1.59375q0 -0.921875 0.3125 -1.59375q0.3125 -0.671875 0.875 -1.03125q0.5625 -0.375 1.328125 -0.375zm-0.015625 0.71875q-0.6875 0 -1.109375 0.453125q-0.40625 0.453125 -0.484375 1.265625l3.015625 0q0 -0.515625 -0.15625 -0.90625q-0.15625 -0.390625 -0.46875 -0.59375q-0.3125 -0.21875 -0.796875 -0.21875zm6.4837646 -0.71875q1.0625 0 1.6875 0.734375q0.640625 0.734375 0.640625 2.21875q0 0.96875 -0.296875 1.625q-0.28125 0.65625 -0.8125 1.0q-0.53125 0.34375 -1.25 0.34375q-0.453125 0 -0.796875 -0.125q-0.328125 -0.125 -0.578125 -0.328125q-0.25 -0.203125 -0.40625 -0.4375l-0.0625 0q0.015625 0.203125 0.03125 0.5q0.03125 0.28125 0.03125 0.484375l0 2.34375l-0.875 0l0 -8.25l0.71875 0l0.109375 0.84375l0.046875 0q0.171875 -0.265625 0.40625 -0.46875q0.234375 -0.21875 0.578125 -0.34375q0.34375 -0.140625 0.828125 -0.140625zm-0.15625 0.734375q-0.59375 0 -0.953125 0.234375q-0.359375 0.21875 -0.53125 0.6875q-0.15625 0.453125 -0.171875 1.140625l0 0.15625q0 0.71875 0.15625 1.21875q0.15625 0.5 0.515625 0.765625q0.375 0.265625 1.0 0.265625q0.53125 0 0.875 -0.28125q0.359375 -0.296875 0.53125 -0.8125q0.171875 -0.515625 0.171875 -1.171875q0 -1.015625 -0.390625 -1.609375q-0.390625 -0.59375 -1.203125 -0.59375zm8.897156 -0.71875q1.015625 0 1.5 0.46875q0.5 0.453125 0.5 1.453125l0 3.875l-0.625 0l-0.171875 -0.84375l-0.03125 0q-0.25 0.3125 -0.515625 0.53125q-0.25 0.203125 -0.59375 0.3125q-0.34375 0.109375 -0.828125 0.109375q-0.515625 0 -0.921875 -0.1875q-0.40625 -0.1875 -0.640625 -0.546875q-0.234375 -0.375 -0.234375 -0.9375q0 -0.859375 0.671875 -1.3125q0.6875 -0.453125 2.0625 -0.5l0.984375 -0.046875l0 -0.34375q0 -0.734375 -0.3125 -1.03125q-0.3125 -0.296875 -0.890625 -0.296875q-0.453125 0 -0.859375 0.125q-0.40625 0.125 -0.765625 0.3125l-0.265625 -0.65625q0.390625 -0.203125 0.890625 -0.34375q0.5 -0.140625 1.046875 -0.140625zm1.15625 2.984375l-0.875 0.046875q-1.0625 0.03125 -1.5 0.34375q-0.4375 0.296875 -0.4375 0.859375q0 0.5 0.296875 0.734375q0.296875 0.234375 0.78125 0.234375q0.765625 0 1.25 -0.421875q0.484375 -0.421875 0.484375 -1.265625l0 -0.53125zm3.4993896 2.8125l-0.875 0l0 -8.09375l0.875 0l0 8.09375zm2.6901245 0l-0.875 0l0 -8.09375l0.875 0l0 8.09375zm9.223816 -0.015625l-1.015625 -3.3125q-0.0625 -0.21875 -0.125 -0.421875q-0.0625 -0.203125 -0.109375 -0.390625q-0.046875 -0.1875 -0.09375 -0.34375q-0.03125 -0.171875 -0.0625 -0.296875l-0.03125 0q-0.015625 0.125 -0.0625 0.296875q-0.03125 0.15625 -0.078125 0.34375q-0.046875 0.1875 -0.109375 0.40625q-0.0625 0.203125 -0.125 0.421875l-1.0625 3.296875l-0.96875 0l-1.578125 -5.703125l0.890625 0l0.828125 3.15625q0.078125 0.3125 0.15625 0.625q0.078125 0.296875 0.125 0.5625q0.0625 0.265625 0.09375 0.46875l0.03125 0q0.03125 -0.140625 0.0625 -0.3125q0.046875 -0.1875 0.09375 -0.390625q0.0625 -0.203125 0.109375 -0.40625q0.0625 -0.21875 0.125 -0.390625l1.046875 -3.3125l0.921875 0l1.015625 3.296875q0.078125 0.25 0.15625 0.53125q0.078125 0.265625 0.140625 0.515625q0.0625 0.25 0.09375 0.453125l0.03125 0q0.03125 -0.171875 0.078125 -0.4375q0.0625 -0.265625 0.140625 -0.578125q0.078125 -0.3125 0.15625 -0.625l0.828125 -3.15625l0.875 0l-1.5625 5.703125l-1.015625 0zm4.4919434 -5.6875l0 5.703125l-0.875 0l0 -5.703125l0.875 0zm-0.421875 -2.140625q0.203125 0 0.359375 0.140625q0.15625 0.140625 0.15625 0.4375q0 0.28125 -0.15625 0.421875q-0.15625 0.140625 -0.359375 0.140625q-0.234375 0 -0.390625 -0.140625q-0.140625 -0.140625 -0.140625 -0.421875q0 -0.296875 0.140625 -0.4375q0.15625 -0.140625 0.390625 -0.140625zm4.9400635 2.03125q1.015625 0 1.53125 0.5q0.53125 0.5 0.53125 1.59375l0 3.71875l-0.859375 0l0 -3.65625q0 -0.71875 -0.328125 -1.0625q-0.328125 -0.359375 -1.0 -0.359375q-0.9375 0 -1.328125 0.546875q-0.375 0.53125 -0.375 1.546875l0 2.984375l-0.875 0l0 -5.703125l0.703125 0l0.125 0.828125l0.046875 0q0.1875 -0.3125 0.46875 -0.515625q0.28125 -0.203125 0.625 -0.3125q0.34375 -0.109375 0.734375 -0.109375zm5.8634033 5.921875q-1.078125 0 -1.71875 -0.734375q-0.625 -0.75 -0.625 -2.203125q0 -1.46875 0.640625 -2.21875q0.65625 -0.765625 1.71875 -0.765625q0.453125 0 0.78125 0.125q0.34375 0.125 0.59375 0.328125q0.25 0.1875 0.40625 0.453125l0.0625 0q-0.015625 -0.171875 -0.046875 -0.453125q-0.015625 -0.28125 -0.015625 -0.453125l0 -2.28125l0.875 0l0 8.09375l-0.703125 0l-0.125 -0.8125l-0.046875 0q-0.15625 0.25 -0.40625 0.46875q-0.25 0.203125 -0.59375 0.328125q-0.328125 0.125 -0.796875 0.125zm0.140625 -0.71875q0.90625 0 1.28125 -0.515625q0.390625 -0.53125 0.390625 -1.546875l0 -0.15625q0 -1.09375 -0.359375 -1.671875q-0.359375 -0.59375 -1.3125 -0.59375q-0.796875 0 -1.203125 0.625q-0.390625 0.609375 -0.390625 1.65625q0 1.046875 0.390625 1.625q0.40625 0.578125 1.203125 0.578125zm9.269653 -2.25q0 0.703125 -0.1875 1.25q-0.171875 0.546875 -0.515625 0.9375q-0.34375 0.375 -0.84375 0.578125q-0.484375 0.203125 -1.09375 0.203125q-0.5625 0 -1.046875 -0.203125q-0.46875 -0.203125 -0.828125 -0.578125q-0.34375 -0.390625 -0.53125 -0.9375q-0.1875 -0.546875 -0.1875 -1.25q0 -0.9375 0.3125 -1.59375q0.328125 -0.65625 0.90625 -1.0q0.59375 -0.359375 1.40625 -0.359375q0.78125 0 1.359375 0.359375q0.59375 0.34375 0.921875 1.0q0.328125 0.65625 0.328125 1.59375zm-4.34375 0q0 0.6875 0.1875 1.1875q0.1875 0.5 0.5625 0.78125q0.375 0.28125 0.96875 0.28125q0.59375 0 0.96875 -0.28125q0.390625 -0.28125 0.578125 -0.78125q0.1875 -0.5 0.1875 -1.1875q0 -0.6875 -0.1875 -1.171875q-0.1875 -0.5 -0.5625 -0.765625q-0.375 -0.28125 -0.984375 -0.28125q-0.890625 0 -1.3125 0.59375q-0.40625 0.578125 -0.40625 1.625zm10.4729 2.84375l-1.015625 -3.3125q-0.0625 -0.21875 -0.125 -0.421875q-0.0625 -0.203125 -0.109375 -0.390625q-0.046875 -0.1875 -0.09375 -0.34375q-0.03125 -0.171875 -0.0625 -0.296875l-0.03125 0q-0.015625 0.125 -0.0625 0.296875q-0.03125 0.15625 -0.078125 0.34375q-0.046875 0.1875 -0.109375 0.40625q-0.0625 0.203125 -0.125 0.421875l-1.0625 3.296875l-0.96875 0l-1.578125 -5.703125l0.890625 0l0.828125 3.15625q0.078125 0.3125 0.15625 0.625q0.078125 0.296875 0.125 0.5625q0.0625 0.265625 0.09375 0.46875l0.03125 0q0.03125 -0.140625 0.0625 -0.3125q0.046875 -0.1875 0.09375 -0.390625q0.0625 -0.203125 0.109375 -0.40625q0.0625 -0.21875 0.125 -0.390625l1.046875 -3.3125l0.921875 0l1.015625 3.296875q0.078125 0.25 0.15625 0.53125q0.078125 0.265625 0.140625 0.515625q0.0625 0.25 0.09375 0.453125l0.03125 0q0.03125 -0.171875 0.078125 -0.4375q0.0625 -0.265625 0.140625 -0.578125q0.078125 -0.3125 0.15625 -0.625l0.828125 -3.15625l0.875 0l-1.5625 5.703125l-1.015625 0z" fill-rule="nonzero"/><path fill="#5252cf" d="m472.06653 58.846832l34.015747 0l0 33.16535l-34.015747 0z" fill-rule="evenodd"/><path stroke="#000000" stroke-width="1.0" stroke-linejoin="round" stroke-linecap="butt" d="m472.06653 58.846832l34.015747 0l0 33.16535l-34.015747 0z" fill-rule="evenodd"/><path fill="#ffffff" d="m495.31558 82.90951l-12.5 0l6.546875 -14.4375l5.953125 14.4375zm-2.453125 -0.859375l-4.15625 -10.0625l-4.578125 10.0625l8.734375 0z" fill-rule="nonzero"/><path fill="#5252cf" d="m513.24396 58.846832l34.015747 0l0 33.16535l-34.015747 0z" fill-rule="evenodd"/><path stroke="#000000" stroke-width="1.0" stroke-linejoin="round" stroke-linecap="butt" d="m513.24396 58.846832l34.015747 0l0 33.16535l-34.015747 0z" fill-rule="evenodd"/><path fill="#000000" fill-opacity="0.0" d="m523.72736 63.601727l13.04895 0l0 24.525257l-13.04895 0l0 -24.525257z" fill-rule="nonzero"/><path fill="#ffffff" d="m536.493 82.90951l-12.5 0l6.546875 -14.4375l5.953125 14.4375zm-2.453125 -0.859375l-4.15625 -10.0625l-4.578125 10.0625l8.734375 0z" fill-rule="nonzero"/><path fill="#010000" fill-opacity="0.0" d="m536.7763 67.069626l0 0l0 24.973068l0 0l0 -24.973068z" fill-rule="nonzero"/><path fill="#ffffff" d="m523.72736 75.54951l13.04895 0l0 1.9200058l-13.04895 0l0 -1.9200058z" fill-rule="nonzero"/><path fill="#5252cf" d="m554.41614 58.846832l34.015747 0l0 33.16535l-34.015747 0z" fill-rule="evenodd"/><path stroke="#000000" stroke-width="1.0" stroke-linejoin="round" stroke-linecap="butt" d="m554.41614 58.846832l34.015747 0l0 33.16535l-34.015747 0z" fill-rule="evenodd"/><path fill="#ffffff" d="m577.66516 82.90951l-12.5 0l6.546875 -14.4375l5.953125 14.4375zm-2.453125 -0.859375l-4.15625 -10.0625l-4.578125 10.0625l8.734375 0z" fill-rule="nonzero"/><path fill="#5252cf" d="m595.59094 58.846832l34.015747 0l0 33.16535l-34.015747 0z" fill-rule="evenodd"/><path stroke="#000000" stroke-width="1.0" stroke-linejoin="round" stroke-linecap="butt" d="m595.59094 58.846832l34.015747 0l0 33.16535l-34.015747 0z" fill-rule="evenodd"/><path fill="#ffffff" d="m618.83997 82.90951l-12.5 0l6.546875 -14.4375l5.953125 14.4375zm-2.453125 -0.859375l-4.15625 -10.0625l-4.578125 10.0625l8.734375 0z" fill-rule="nonzero"/><path fill="#000000" fill-opacity="0.0" d="m8.946853 95.55669l34.015747 0l0 38.771652l-34.015747 0z" fill-rule="evenodd"/><path fill="#000000" d="m22.087479 119.01044q0.3125 0 0.640625 -0.046875q0.34375 -0.0625 0.5625 -0.140625l0 1.0q-0.234375 0.109375 -0.640625 0.171875q-0.390625 0.078125 -0.78125 0.078125q-0.671875 0 -1.234375 -0.234375q-0.546875 -0.25 -0.890625 -0.8125q-0.328125 -0.578125 -0.328125 -1.578125l0 -5.078125l-1.21875 0l0 -0.640625l1.234375 -0.5l0.515625 -1.859375l0.78125 0l0 1.984375l2.5 0l0 1.015625l-2.5 0l0 5.03125q0 0.8125 0.359375 1.21875q0.375 0.390625 1.0 0.390625z" fill-rule="nonzero"/><path fill="#000000" d="m29.196854 122.10419q0 0.921875 -0.140625 1.65625q-0.140625 0.71875 -0.4375 1.234375q-0.296875 0.5 -0.78125 0.765625q-0.484375 0.265625 -1.15625 0.265625q-0.84375 0 -1.40625 -0.46875q-0.546875 -0.46875 -0.828125 -1.34375q-0.265625 -0.875 -0.265625 -2.109375q0 -1.21875 0.25 -2.09375q0.25 -0.875 0.796875 -1.34375q0.5625 -0.484375 1.453125 -0.484375q0.859375 0 1.421875 0.46875q0.5625 0.46875 0.828125 1.34375q0.265625 0.875 0.265625 2.109375zm-4.140625 0q0 1.0625 0.15625 1.765625q0.171875 0.703125 0.53125 1.0625q0.359375 0.34375 0.9375 0.34375q0.59375 0 0.953125 -0.34375q0.359375 -0.34375 0.515625 -1.046875q0.171875 -0.71875 0.171875 -1.78125q0 -1.046875 -0.15625 -1.75q-0.15625 -0.703125 -0.515625 -1.0625q-0.359375 -0.359375 -0.96875 -0.359375q-0.59375 0 -0.953125 0.359375q-0.359375 0.359375 -0.515625 1.0625q-0.15625 0.703125 -0.15625 1.75z" fill-rule="nonzero"/><path fill="#000000" fill-opacity="0.0" d="m629.615 95.55669l89.66925 0l0 38.771652l-89.66925 0z" fill-rule="evenodd"/><path fill="#000000" d="m642.7556 119.01044q0.3125 0 0.640625 -0.046875q0.34375 -0.0625 0.5625 -0.140625l0 1.0q-0.234375 0.109375 -0.640625 0.171875q-0.390625 0.078125 -0.78125 0.078125q-0.671875 0 -1.234375 -0.234375q-0.546875 -0.25 -0.890625 -0.8125q-0.328125 -0.578125 -0.328125 -1.578125l0 -5.078125l-1.21875 0l0 -0.640625l1.234375 -0.5l0.515625 -1.859375l0.78125 0l0 1.984375l2.5 0l0 1.015625l-2.5 0l0 5.03125q0 0.8125 0.359375 1.21875q0.375 0.390625 1.0 0.390625z" fill-rule="nonzero"/><path fill="#000000" d="m647.9275 120.10419q1.015625 0 1.53125 0.5q0.53125 0.5 0.53125 1.59375l0 3.71875l-0.859375 0l0 -3.65625q0 -0.71875 -0.328125 -1.0625q-0.328125 -0.359375 -1.0 -0.359375q-0.9375 0 -1.328125 0.546875q-0.375 0.53125 -0.375 1.546875l0 2.984375l-0.875 0l0 -5.703125l0.703125 0l0.125 0.828125l0.046875 0q0.1875 -0.3125 0.46875 -0.515625q0.28125 -0.203125 0.625 -0.3125q0.34375 -0.109375 0.734375 -0.109375zm8.754028 2.953125q0 0.703125 -0.1875 1.25q-0.171875 0.546875 -0.515625 0.9375q-0.34375 0.375 -0.84375 0.578125q-0.484375 0.203125 -1.09375 0.203125q-0.5625 0 -1.046875 -0.203125q-0.46875 -0.203125 -0.828125 -0.578125q-0.34375 -0.390625 -0.53125 -0.9375q-0.1875 -0.546875 -0.1875 -1.25q0 -0.9375 0.3125 -1.59375q0.328125 -0.65625 0.90625 -1.0q0.59375 -0.359375 1.40625 -0.359375q0.78125 0 1.359375 0.359375q0.59375 0.34375 0.921875 1.0q0.328125 0.65625 0.328125 1.59375zm-4.34375 0q0 0.6875 0.1875 1.1875q0.1875 0.5 0.5625 0.78125q0.375 0.28125 0.96875 0.28125q0.59375 0 0.96875 -0.28125q0.390625 -0.28125 0.578125 -0.78125q0.1875 -0.5 0.1875 -1.1875q0 -0.6875 -0.1875 -1.171875q-0.1875 -0.5 -0.5625 -0.765625q-0.375 -0.28125 -0.984375 -0.28125q-0.890625 0 -1.3125 0.59375q-0.40625 0.578125 -0.40625 1.625zm10.4729 2.84375l-1.015625 -3.3125q-0.0625 -0.21875 -0.125 -0.421875q-0.0625 -0.203125 -0.109375 -0.390625q-0.046875 -0.1875 -0.09375 -0.34375q-0.03125 -0.171875 -0.0625 -0.296875l-0.03125 0q-0.015625 0.125 -0.0625 0.296875q-0.03125 0.15625 -0.078125 0.34375q-0.046875 0.1875 -0.109375 0.40625q-0.0625 0.203125 -0.125 0.421875l-1.0625 3.296875l-0.96875 0l-1.578125 -5.703125l0.890625 0l0.828125 3.15625q0.078125 0.3125 0.15625 0.625q0.078125 0.296875 0.125 0.5625q0.0625 0.265625 0.09375 0.46875l0.03125 0q0.03125 -0.140625 0.0625 -0.3125q0.046875 -0.1875 0.09375 -0.390625q0.0625 -0.203125 0.109375 -0.40625q0.0625 -0.21875 0.125 -0.390625l1.046875 -3.3125l0.921875 0l1.015625 3.296875q0.078125 0.25 0.15625 0.53125q0.078125 0.265625 0.140625 0.515625q0.0625 0.25 0.09375 0.453125l0.03125 0q0.03125 -0.171875 0.078125 -0.4375q0.0625 -0.265625 0.140625 -0.578125q0.078125 -0.3125 0.15625 -0.625l0.828125 -3.15625l0.875 0l-1.5625 5.703125l-1.015625 0z" fill-rule="nonzero"/><path fill="#000000" fill-opacity="0.0" d="m506.0814 110.120735l156.28348 0l0 30.708656l-156.28348 0z" fill-rule="evenodd"/><path fill="#000000" d="m517.4876 127.549484q0.1875 0 0.375 -0.03125q0.203125 -0.03125 0.328125 -0.078125l0 0.59375q-0.125 0.0625 -0.359375 0.09375q-0.234375 0.046875 -0.46875 0.046875q-0.390625 0 -0.71875 -0.140625q-0.3125 -0.140625 -0.515625 -0.46875q-0.1875 -0.34375 -0.1875 -0.921875l0 -2.96875l-0.71875 0l0 -0.359375l0.71875 -0.296875l0.296875 -1.09375l0.453125 0l0 1.171875l1.46875 0l0 0.578125l-1.46875 0l0 2.9375q0 0.46875 0.21875 0.703125q0.21875 0.234375 0.578125 0.234375z" fill-rule="nonzero"/><path fill="#000000" d="m520.51575 128.19011q0.59375 0 0.890625 0.296875q0.3125 0.28125 0.3125 0.921875l0 2.171875l-0.5 0l0 -2.140625q0 -0.40625 -0.203125 -0.609375q-0.1875 -0.21875 -0.578125 -0.21875q-0.546875 0 -0.78125 0.3125q-0.21875 0.3125 -0.21875 0.90625l0 1.75l-0.5 0l0 -3.328125l0.40625 0l0.078125 0.484375l0.03125 0q0.09375 -0.1875 0.25 -0.296875q0.171875 -0.125 0.375 -0.1875q0.203125 -0.0625 0.4375 -0.0625zm5.110718 1.71875q0 0.40625 -0.109375 0.734375q-0.109375 0.328125 -0.3125 0.546875q-0.203125 0.21875 -0.484375 0.34375q-0.28125 0.109375 -0.640625 0.109375q-0.328125 0 -0.609375 -0.109375q-0.28125 -0.125 -0.484375 -0.34375q-0.203125 -0.21875 -0.3125 -0.546875q-0.109375 -0.328125 -0.109375 -0.734375q0 -0.546875 0.1875 -0.921875q0.1875 -0.390625 0.53125 -0.59375q0.34375 -0.203125 0.8125 -0.203125q0.46875 0 0.796875 0.203125q0.34375 0.203125 0.53125 0.59375q0.203125 0.375 0.203125 0.921875zm-2.53125 0q0 0.40625 0.09375 0.703125q0.109375 0.28125 0.328125 0.453125q0.234375 0.15625 0.578125 0.15625q0.34375 0 0.5625 -0.15625q0.234375 -0.171875 0.328125 -0.453125q0.109375 -0.296875 0.109375 -0.703125q0 -0.390625 -0.109375 -0.671875q-0.09375 -0.296875 -0.328125 -0.453125q-0.21875 -0.171875 -0.5625 -0.171875q-0.53125 0 -0.765625 0.34375q-0.234375 0.34375 -0.234375 0.953125zm6.100342 1.671875l-0.59375 -1.9375q-0.03125 -0.125 -0.078125 -0.25q-0.03125 -0.125 -0.0625 -0.234375q-0.015625 -0.109375 -0.046875 -0.203125q-0.015625 -0.09375 -0.03125 -0.171875l-0.015625 0q-0.015625 0.078125 -0.046875 0.171875q-0.015625 0.09375 -0.046875 0.203125q-0.03125 0.109375 -0.0625 0.234375q-0.03125 0.125 -0.078125 0.25l-0.609375 1.9375l-0.578125 0l-0.90625 -3.328125l0.515625 0l0.484375 1.828125q0.046875 0.1875 0.09375 0.375q0.046875 0.171875 0.078125 0.328125q0.03125 0.15625 0.046875 0.265625l0.015625 0q0.015625 -0.078125 0.03125 -0.171875q0.03125 -0.109375 0.0625 -0.234375q0.03125 -0.125 0.0625 -0.234375q0.03125 -0.125 0.0625 -0.234375l0.625 -1.921875l0.53125 0l0.59375 1.921875q0.046875 0.140625 0.09375 0.296875q0.046875 0.15625 0.078125 0.3125q0.03125 0.140625 0.046875 0.265625l0.03125 0q0.015625 -0.109375 0.046875 -0.25q0.03125 -0.15625 0.078125 -0.34375q0.046875 -0.1875 0.09375 -0.375l0.484375 -1.828125l0.515625 0l-0.921875 3.328125l-0.59375 0z" fill-rule="nonzero"/><path fill="#000000" d="m532.7705 125.90886l0 -0.671875l2.25 0l0 0.671875l-2.25 0zm7.6278076 2.265625q-0.953125 0 -1.515625 -0.640625q-0.546875 -0.65625 -0.546875 -1.9375q0 -1.28125 0.5625 -1.9375q0.578125 -0.65625 1.515625 -0.65625q0.390625 0 0.6875 0.109375q0.296875 0.09375 0.5 0.28125q0.21875 0.171875 0.375 0.390625l0.046875 0q-0.015625 -0.140625 -0.03125 -0.390625q-0.015625 -0.25 -0.015625 -0.40625l0 -2.0l0.75 0l0 7.09375l-0.609375 0l-0.109375 -0.703125l-0.03125 0q-0.140625 0.21875 -0.359375 0.40625q-0.21875 0.171875 -0.515625 0.28125q-0.296875 0.109375 -0.703125 0.109375zm0.109375 -0.625q0.8125 0 1.140625 -0.453125q0.328125 -0.46875 0.328125 -1.359375l0 -0.140625q0 -0.953125 -0.3125 -1.453125q-0.3125 -0.515625 -1.15625 -0.515625q-0.6875 0 -1.046875 0.53125q-0.34375 0.53125 -0.34375 1.46875q0 0.90625 0.34375 1.421875q0.34375 0.5 1.046875 0.5z" fill-rule="nonzero"/><path fill="#000000" d="m545.54297 128.64323l-0.828125 0l0 2.9375l-0.5 0l0 -2.9375l-0.59375 0l0 -0.234375l0.59375 -0.171875l0 -0.21875q0 -0.421875 0.109375 -0.6875q0.125 -0.265625 0.359375 -0.390625q0.25 -0.125 0.59375 -0.125q0.1875 0 0.34375 0.046875q0.15625 0.03125 0.28125 0.0625l-0.125 0.40625q-0.109375 -0.03125 -0.25 -0.0625q-0.125 -0.03125 -0.25 -0.03125q-0.296875 0 -0.4375 0.1875q-0.125 0.1875 -0.125 0.578125l0 0.25l0.828125 0l0 0.390625zm3.357727 -0.390625l0 3.328125l-0.421875 0l-0.0625 -0.46875l-0.03125 0q-0.109375 0.171875 -0.28125 0.296875q-0.15625 0.109375 -0.359375 0.171875q-0.203125 0.0625 -0.4375 0.0625q-0.390625 0 -0.65625 -0.125q-0.265625 -0.125 -0.40625 -0.390625q-0.125 -0.28125 -0.125 -0.6875l0 -2.1875l0.5 0l0 2.140625q0 0.421875 0.1875 0.625q0.1875 0.203125 0.578125 0.203125q0.375 0 0.59375 -0.140625q0.21875 -0.140625 0.3125 -0.40625q0.09375 -0.28125 0.09375 -0.671875l0 -1.75l0.515625 0zm1.5638428 3.328125l-0.5 0l0 -4.71875l0.5 0l0 4.71875zm1.5698853 0l-0.5 0l0 -4.71875l0.5 0l0 4.71875zm1.1480103 0l0 -4.4375l0.515625 0l0 3.96875l1.96875 0l0 0.46875l-2.484375 0zm6.0429077 -1.671875q0 0.40625 -0.109375 0.734375q-0.109375 0.328125 -0.3125 0.546875q-0.203125 0.21875 -0.484375 0.34375q-0.28125 0.109375 -0.640625 0.109375q-0.328125 0 -0.609375 -0.109375q-0.28125 -0.125 -0.484375 -0.34375q-0.203125 -0.21875 -0.3125 -0.546875q-0.109375 -0.328125 -0.109375 -0.734375q0 -0.546875 0.1875 -0.921875q0.1875 -0.390625 0.53125 -0.59375q0.34375 -0.203125 0.8125 -0.203125q0.46875 0 0.796875 0.203125q0.34375 0.203125 0.53125 0.59375q0.203125 0.375 0.203125 0.921875zm-2.53125 0q0 0.40625 0.09375 0.703125q0.109375 0.28125 0.328125 0.453125q0.234375 0.15625 0.578125 0.15625q0.34375 0 0.5625 -0.15625q0.234375 -0.171875 0.328125 -0.453125q0.109375 -0.296875 0.109375 -0.703125q0 -0.390625 -0.109375 -0.671875q-0.09375 -0.296875 -0.328125 -0.453125q-0.21875 -0.171875 -0.5625 -0.171875q-0.53125 0 -0.765625 0.34375q-0.234375 0.34375 -0.234375 0.953125zm4.319092 3.171875q-0.65625 0 -1.015625 -0.25q-0.34375 -0.25 -0.34375 -0.6875q0 -0.3125 0.1875 -0.53125q0.203125 -0.21875 0.5625 -0.296875q-0.125 -0.0625 -0.21875 -0.171875q-0.09375 -0.125 -0.09375 -0.28125q0 -0.1875 0.09375 -0.328125q0.109375 -0.140625 0.3125 -0.265625q-0.25 -0.109375 -0.421875 -0.359375q-0.15625 -0.25 -0.15625 -0.59375q0 -0.359375 0.140625 -0.609375q0.15625 -0.25 0.4375 -0.375q0.28125 -0.140625 0.6875 -0.140625q0.078125 0 0.171875 0.015625q0.09375 0 0.171875 0.015625q0.078125 0 0.140625 0.03125l1.140625 0l0 0.3125l-0.609375 0.078125q0.09375 0.125 0.140625 0.296875q0.0625 0.15625 0.0625 0.359375q0 0.5 -0.34375 0.796875q-0.328125 0.296875 -0.90625 0.296875q-0.140625 0 -0.296875 -0.03125q-0.140625 0.078125 -0.21875 0.1875q-0.078125 0.09375 -0.078125 0.234375q0 0.09375 0.0625 0.15625q0.0625 0.046875 0.171875 0.078125q0.109375 0.015625 0.265625 0.015625l0.59375 0q0.53125 0 0.8125 0.234375q0.296875 0.234375 0.296875 0.671875q0 0.546875 -0.453125 0.84375q-0.4375 0.296875 -1.296875 0.296875zm0.015625 -0.40625q0.421875 0 0.6875 -0.078125q0.28125 -0.078125 0.40625 -0.234375q0.140625 -0.15625 0.140625 -0.375q0 -0.203125 -0.09375 -0.3125q-0.09375 -0.09375 -0.265625 -0.125q-0.171875 -0.03125 -0.4375 -0.03125l-0.5625 0q-0.234375 0 -0.40625 0.0625q-0.15625 0.0625 -0.25 0.203125q-0.09375 0.140625 -0.09375 0.34375q0 0.265625 0.21875 0.40625q0.234375 0.140625 0.65625 0.140625zm0.140625 -2.65625q0.359375 0 0.53125 -0.171875q0.1875 -0.1875 0.1875 -0.546875q0 -0.359375 -0.1875 -0.546875q-0.171875 -0.1875 -0.546875 -0.1875q-0.34375 0 -0.53125 0.1875q-0.1875 0.1875 -0.1875 0.5625q0 0.34375 0.1875 0.53125q0.1875 0.171875 0.546875 0.171875zm5.892212 -0.703125q0 0.75 -0.265625 1.265625q-0.265625 0.5 -0.796875 0.75q-0.515625 0.25 -1.25 0.25l-1.203125 0l0 -4.4375l1.34375 0q0.671875 0 1.15625 0.25q0.484375 0.25 0.75 0.734375q0.265625 0.484375 0.265625 1.1875zm-0.53125 0.015625q0 -0.59375 -0.203125 -0.984375q-0.203125 -0.390625 -0.59375 -0.578125q-0.375 -0.1875 -0.921875 -0.1875l-0.75 0l0 3.5625l0.625 0q0.921875 0 1.375 -0.453125q0.46875 -0.453125 0.46875 -1.359375zm4.199707 -1.078125l0 3.328125l-0.421875 0l-0.0625 -0.46875l-0.03125 0q-0.109375 0.171875 -0.28125 0.296875q-0.15625 0.109375 -0.359375 0.171875q-0.203125 0.0625 -0.4375 0.0625q-0.390625 0 -0.65625 -0.125q-0.265625 -0.125 -0.40625 -0.390625q-0.125 -0.28125 -0.125 -0.6875l0 -2.1875l0.5 0l0 2.140625q0 0.421875 0.1875 0.625q0.1875 0.203125 0.578125 0.203125q0.375 0 0.59375 -0.140625q0.21875 -0.140625 0.3125 -0.40625q0.09375 -0.28125 0.09375 -0.671875l0 -1.75l0.515625 0zm2.5794678 -0.0625q0.09375 0 0.203125 0.015625q0.109375 0 0.203125 0.03125l-0.0625 0.46875q-0.09375 -0.03125 -0.203125 -0.03125q-0.09375 -0.015625 -0.171875 -0.015625q-0.203125 0 -0.390625 0.078125q-0.171875 0.078125 -0.3125 0.234375q-0.125 0.140625 -0.203125 0.359375q-0.078125 0.203125 -0.078125 0.46875l0 1.78125l-0.5 0l0 -3.328125l0.421875 0l0.046875 0.609375l0.03125 0q0.09375 -0.1875 0.234375 -0.328125q0.15625 -0.15625 0.34375 -0.25q0.203125 -0.09375 0.4375 -0.09375zm2.27594 0.015625q0.59375 0 0.875 0.265625q0.296875 0.265625 0.296875 0.84375l0 2.265625l-0.375 0l-0.09375 -0.484375l-0.03125 0q-0.140625 0.171875 -0.296875 0.296875q-0.140625 0.125 -0.34375 0.1875q-0.1875 0.0625 -0.484375 0.0625q-0.296875 0 -0.53125 -0.109375q-0.234375 -0.109375 -0.375 -0.3125q-0.140625 -0.21875 -0.140625 -0.546875q0 -0.5 0.390625 -0.765625q0.40625 -0.28125 1.203125 -0.296875l0.578125 -0.03125l0 -0.203125q0 -0.421875 -0.1875 -0.59375q-0.171875 -0.171875 -0.515625 -0.171875q-0.265625 0 -0.5 0.078125q-0.234375 0.0625 -0.453125 0.171875l-0.15625 -0.390625q0.234375 -0.109375 0.515625 -0.1875q0.296875 -0.078125 0.625 -0.078125zm0.671875 1.734375l-0.515625 0.015625q-0.609375 0.03125 -0.875 0.21875q-0.25 0.171875 -0.25 0.5q0 0.28125 0.171875 0.421875q0.171875 0.140625 0.453125 0.140625q0.453125 0 0.734375 -0.25q0.28125 -0.25 0.28125 -0.734375l0 -0.3125zm2.6117554 1.28125q0.125 0 0.25 -0.015625q0.125 -0.015625 0.21875 -0.046875l0 0.390625q-0.09375 0.03125 -0.25 0.0625q-0.15625 0.03125 -0.296875 0.03125q-0.265625 0 -0.484375 -0.09375q-0.21875 -0.09375 -0.34375 -0.3125q-0.125 -0.21875 -0.125 -0.609375l0 -1.984375l-0.484375 0l0 -0.234375l0.484375 -0.203125l0.203125 -0.71875l0.296875 0l0 0.765625l0.96875 0l0 0.390625l-0.96875 0l0 1.96875q0 0.3125 0.140625 0.46875q0.140625 0.140625 0.390625 0.140625zm1.6385498 -2.96875l0 3.328125l-0.5 0l0 -3.328125l0.5 0zm-0.234375 -1.25q0.109375 0 0.203125 0.09375q0.09375 0.078125 0.09375 0.25q0 0.15625 -0.09375 0.25q-0.09375 0.078125 -0.203125 0.078125q-0.140625 0 -0.234375 -0.078125q-0.078125 -0.09375 -0.078125 -0.25q0 -0.171875 0.078125 -0.25q0.09375 -0.09375 0.234375 -0.09375zm4.1792603 2.90625q0 0.40625 -0.109375 0.734375q-0.109375 0.328125 -0.3125 0.546875q-0.203125 0.21875 -0.484375 0.34375q-0.28125 0.109375 -0.640625 0.109375q-0.328125 0 -0.609375 -0.109375q-0.28125 -0.125 -0.484375 -0.34375q-0.203125 -0.21875 -0.3125 -0.546875q-0.109375 -0.328125 -0.109375 -0.734375q0 -0.546875 0.1875 -0.921875q0.1875 -0.390625 0.53125 -0.59375q0.34375 -0.203125 0.8125 -0.203125q0.46875 0 0.796875 0.203125q0.34375 0.203125 0.53125 0.59375q0.203125 0.375 0.203125 0.921875zm-2.53125 0q0 0.40625 0.09375 0.703125q0.109375 0.28125 0.328125 0.453125q0.234375 0.15625 0.578125 0.15625q0.34375 0 0.5625 -0.15625q0.234375 -0.171875 0.328125 -0.453125q0.109375 -0.296875 0.109375 -0.703125q0 -0.390625 -0.109375 -0.671875q-0.09375 -0.296875 -0.328125 -0.453125q-0.21875 -0.171875 -0.5625 -0.171875q-0.53125 0 -0.765625 0.34375q-0.234375 0.34375 -0.234375 0.953125zm4.975342 -1.71875q0.59375 0 0.890625 0.296875q0.3125 0.28125 0.3125 0.921875l0 2.171875l-0.5 0l0 -2.140625q0 -0.40625 -0.203125 -0.609375q-0.1875 -0.21875 -0.578125 -0.21875q-0.546875 0 -0.78125 0.3125q-0.21875 0.3125 -0.21875 0.90625l0 1.75l-0.5 0l0 -3.328125l0.40625 0l0.078125 0.484375l0.03125 0q0.09375 -0.1875 0.25 -0.296875q0.171875 -0.125 0.375 -0.1875q0.203125 -0.0625 0.4375 -0.0625z" fill-rule="nonzero"/><path fill="#000000" fill-opacity="0.0" d="m384.4462 19.199474l124.944885 0l0 131.1496l-124.944885 0z" fill-rule="evenodd"/><path stroke="#5252cf" stroke-width="1.0" stroke-linejoin="round" stroke-linecap="butt" stroke-dasharray="4.0,3.0" d="m384.4462 19.199474l124.944885 0l0 131.1496l-124.944885 0z" fill-rule="evenodd"/><path fill="#000000" d="m400.82166 38.439476l-1.046875 0l-2.75 -3.703125l-0.8125 0.734375l0 2.96875l-0.875 0l0 -7.609377l0.875 0l0 3.796877q0.296875 -0.34375 0.609375 -0.671875q0.3125 -0.34375 0.625 -0.6875l2.21875 -2.437502l1.03125 0l-3.03125 3.296877l3.15625 4.3125zm3.1029968 -5.8125q0.71875 0 1.234375 0.328125q0.53125 0.328125 0.796875 0.90625q0.28125 0.578125 0.28125 1.359375l0 0.53125l-3.9375 0q0.015625 1.0 0.5 1.53125q0.484375 0.515625 1.359375 0.515625q0.546875 0 0.953125 -0.09375q0.421875 -0.09375 0.875 -0.296875l0 0.765625q-0.4375 0.1875 -0.859375 0.28125q-0.421875 0.09375 -1.0 0.09375q-0.8125 0 -1.4375 -0.328125q-0.609375 -0.34375 -0.953125 -1.0q-0.328125 -0.65625 -0.328125 -1.59375q0 -0.921875 0.3125 -1.59375q0.3125 -0.671875 0.875 -1.03125q0.5625 -0.375 1.328125 -0.375zm-0.015625 0.71875q-0.6875 0 -1.109375 0.453125q-0.40625 0.453125 -0.484375 1.265625l3.015625 0q0 -0.515625 -0.15625 -0.90625q-0.15625 -0.390625 -0.46875 -0.59375q-0.3125 -0.21875 -0.796875 -0.21875zm5.999359 -0.71875q0.71875 0 1.234375 0.328125q0.53125 0.328125 0.796875 0.90625q0.28125 0.578125 0.28125 1.359375l0 0.53125l-3.9375 0q0.015625 1.0 0.5 1.53125q0.484375 0.515625 1.359375 0.515625q0.546875 0 0.953125 -0.09375q0.421875 -0.09375 0.875 -0.296875l0 0.765625q-0.4375 0.1875 -0.859375 0.28125q-0.421875 0.09375 -1.0 0.09375q-0.8125 0 -1.4375 -0.328125q-0.609375 -0.34375 -0.953125 -1.0q-0.328125 -0.65625 -0.328125 -1.59375q0 -0.921875 0.3125 -1.59375q0.3125 -0.671875 0.875 -1.03125q0.5625 -0.375 1.328125 -0.375zm-0.015625 0.71875q-0.6875 0 -1.109375 0.453125q-0.40625 0.453125 -0.484375 1.265625l3.015625 0q0 -0.515625 -0.15625 -0.90625q-0.15625 -0.390625 -0.46875 -0.59375q-0.3125 -0.21875 -0.796875 -0.21875zm6.483734 -0.71875q1.0625 0 1.6875 0.734375q0.640625 0.734375 0.640625 2.21875q0 0.96875 -0.296875 1.625q-0.28125 0.65625 -0.8125 1.0q-0.53125 0.34375 -1.25 0.34375q-0.453125 0 -0.796875 -0.125q-0.328125 -0.125 -0.578125 -0.328125q-0.25 -0.203125 -0.40625 -0.4375l-0.0625 0q0.015625 0.203125 0.03125 0.5q0.03125 0.28125 0.03125 0.484375l0 2.34375l-0.875 0l0 -8.25l0.71875 0l0.109375 0.84375l0.046875 0q0.171875 -0.265625 0.40625 -0.46875q0.234375 -0.21875 0.578125 -0.34375q0.34375 -0.140625 0.828125 -0.140625zm-0.15625 0.734375q-0.59375 0 -0.953125 0.234375q-0.359375 0.21875 -0.53125 0.6875q-0.15625 0.453125 -0.171875 1.140625l0 0.15625q0 0.71875 0.15625 1.21875q0.15625 0.5 0.515625 0.765625q0.375 0.265625 1.0 0.265625q0.53125 0 0.875 -0.28125q0.359375 -0.296875 0.53125 -0.8125q0.171875 -0.515625 0.171875 -1.171875q0 -1.015625 -0.390625 -1.609375q-0.390625 -0.59375 -1.203125 -0.59375zm8.787781 5.1875q-1.078125 0 -1.71875 -0.734375q-0.625 -0.75 -0.625 -2.203125q0 -1.46875 0.640625 -2.21875q0.65625 -0.765625 1.71875 -0.765625q0.453125 0 0.78125 0.125q0.34375 0.125 0.59375 0.328125q0.25 0.1875 0.40625 0.453125l0.0625 0q-0.015625 -0.171875 -0.046875 -0.453125q-0.015625 -0.28125 -0.015625 -0.453125l0 -2.281252l0.875 0l0 8.093752l-0.703125 0l-0.125 -0.8125l-0.046875 0q-0.15625 0.25 -0.40625 0.46875q-0.25 0.203125 -0.59375 0.328125q-0.328125 0.125 -0.796875 0.125zm0.140625 -0.71875q0.90625 0 1.28125 -0.515625q0.390625 -0.53125 0.390625 -1.546875l0 -0.15625q0 -1.09375 -0.359375 -1.671875q-0.359375 -0.59375 -1.3125 -0.59375q-0.796875 0 -1.203125 0.625q-0.390625 0.609375 -0.390625 1.65625q0 1.046875 0.390625 1.625q0.40625 0.578125 1.203125 0.578125zm6.550934 -5.203125q0.71875 0 1.234375 0.328125q0.53125 0.328125 0.796875 0.90625q0.28125 0.578125 0.28125 1.359375l0 0.53125l-3.9375 0q0.015625 1.0 0.5 1.53125q0.484375 0.515625 1.359375 0.515625q0.546875 0 0.953125 -0.09375q0.421875 -0.09375 0.875 -0.296875l0 0.765625q-0.4375 0.1875 -0.859375 0.28125q-0.421875 0.09375 -1.0 0.09375q-0.8125 0 -1.4375 -0.328125q-0.609375 -0.34375 -0.953125 -1.0q-0.328125 -0.65625 -0.328125 -1.59375q0 -0.921875 0.3125 -1.59375q0.3125 -0.671875 0.875 -1.03125q0.5625 -0.375 1.328125 -0.375zm-0.015625 0.71875q-0.6875 0 -1.109375 0.453125q-0.40625 0.453125 -0.484375 1.265625l3.015625 0q0 -0.515625 -0.15625 -0.90625q-0.15625 -0.390625 -0.46875 -0.59375q-0.3125 -0.21875 -0.796875 -0.21875zm4.671234 5.09375l-0.875 0l0 -8.093752l0.875 0l0 8.093752zm4.0181885 -5.8125q0.71875 0 1.234375 0.328125q0.53125 0.328125 0.796875 0.90625q0.28125 0.578125 0.28125 1.359375l0 0.53125l-3.9375 0q0.015625 1.0 0.5 1.53125q0.484375 0.515625 1.359375 0.515625q0.546875 0 0.953125 -0.09375q0.421875 -0.09375 0.875 -0.296875l0 0.765625q-0.4375 0.1875 -0.859375 0.28125q-0.421875 0.09375 -1.0 0.09375q-0.8125 0 -1.4375 -0.328125q-0.609375 -0.34375 -0.953125 -1.0q-0.328125 -0.65625 -0.328125 -1.59375q0 -0.921875 0.3125 -1.59375q0.3125 -0.671875 0.875 -1.03125q0.5625 -0.375 1.328125 -0.375zm-0.015625 0.71875q-0.6875 0 -1.109375 0.453125q-0.40625 0.453125 -0.484375 1.265625l3.015625 0q0 -0.515625 -0.15625 -0.90625q-0.15625 -0.390625 -0.46875 -0.59375q-0.3125 -0.21875 -0.796875 -0.21875zm5.639984 4.484375q0.21875 0 0.4375 -0.03125q0.21875 -0.03125 0.359375 -0.09375l0 0.671875q-0.140625 0.078125 -0.421875 0.125q-0.265625 0.046875 -0.515625 0.046875q-0.453125 0 -0.828125 -0.15625q-0.359375 -0.171875 -0.578125 -0.546875q-0.21875 -0.375 -0.21875 -1.046875l0 -3.390625l-0.8125 0l0 -0.421875l0.8125 -0.328125l0.34375 -1.2500019l0.515625 0l0 1.3281269l1.671875 0l0 0.671875l-1.671875 0l0 3.359375q0 0.53125 0.25 0.796875q0.25 0.265625 0.65625 0.265625zm4.1577454 -5.203125q0.71875 0 1.234375 0.328125q0.53125 0.328125 0.796875 0.90625q0.28125 0.578125 0.28125 1.359375l0 0.53125l-3.9375 0q0.015625 1.0 0.5 1.53125q0.484375 0.515625 1.359375 0.515625q0.546875 0 0.953125 -0.09375q0.421875 -0.09375 0.875 -0.296875l0 0.765625q-0.4375 0.1875 -0.859375 0.28125q-0.421875 0.09375 -1.0 0.09375q-0.8125 0 -1.4375 -0.328125q-0.609375 -0.34375 -0.953125 -1.0q-0.328125 -0.65625 -0.328125 -1.59375q0 -0.921875 0.3125 -1.59375q0.3125 -0.671875 0.875 -1.03125q0.5625 -0.375 1.328125 -0.375zm-0.015625 0.71875q-0.6875 0 -1.109375 0.453125q-0.40625 0.453125 -0.484375 1.265625l3.015625 0q0 -0.515625 -0.15625 -0.90625q-0.15625 -0.390625 -0.46875 -0.59375q-0.3125 -0.21875 -0.796875 -0.21875zm7.483734 3.53125q0 0.546875 -0.28125 0.921875q-0.265625 0.375 -0.78125 0.5625q-0.5 0.1875 -1.1875 0.1875q-0.609375 0 -1.046875 -0.09375q-0.4375 -0.09375 -0.765625 -0.265625l0 -0.796875q0.359375 0.171875 0.84375 0.3125q0.484375 0.140625 0.984375 0.140625q0.734375 0 1.0625 -0.234375q0.34375 -0.25 0.34375 -0.65625q0 -0.234375 -0.140625 -0.40625q-0.125 -0.1875 -0.4375 -0.359375q-0.3125 -0.171875 -0.859375 -0.375q-0.546875 -0.203125 -0.953125 -0.40625q-0.390625 -0.203125 -0.609375 -0.5q-0.21875 -0.296875 -0.21875 -0.78125q0 -0.71875 0.578125 -1.109375q0.59375 -0.390625 1.546875 -0.390625q0.515625 0 0.953125 0.109375q0.453125 0.09375 0.84375 0.265625l-0.28125 0.703125q-0.359375 -0.15625 -0.765625 -0.25q-0.390625 -0.109375 -0.8125 -0.109375q-0.59375 0 -0.921875 0.203125q-0.3125 0.1875 -0.3125 0.53125q0 0.265625 0.140625 0.4375q0.15625 0.171875 0.484375 0.328125q0.328125 0.140625 0.859375 0.34375q0.53125 0.203125 0.921875 0.421875q0.390625 0.203125 0.59375 0.5q0.21875 0.296875 0.21875 0.765625zm8.799622 1.546875l-1.015625 -3.3125q-0.0625 -0.21875 -0.125 -0.421875q-0.0625 -0.203125 -0.109375 -0.390625q-0.046875 -0.1875 -0.09375 -0.34375q-0.03125 -0.171875 -0.0625 -0.296875l-0.03125 0q-0.015625 0.125 -0.0625 0.296875q-0.03125 0.15625 -0.078125 0.34375q-0.046875 0.1875 -0.109375 0.40625q-0.0625 0.203125 -0.125 0.421875l-1.0625 3.296875l-0.96875 0l-1.578125 -5.703125l0.890625 0l0.828125 3.15625q0.078125 0.3125 0.15625 0.625q0.078125 0.296875 0.125 0.5625q0.0625 0.265625 0.09375 0.46875l0.03125 0q0.03125 -0.140625 0.0625 -0.3125q0.046875 -0.1875 0.09375 -0.390625q0.0625 -0.203125 0.109375 -0.40625q0.0625 -0.21875 0.125 -0.390625l1.046875 -3.3125l0.921875 0l1.015625 3.296875q0.078125 0.25 0.15625 0.53125q0.078125 0.265625 0.140625 0.515625q0.0625 0.25 0.09375 0.453125l0.03125 0q0.03125 -0.171875 0.078125 -0.4375q0.0625 -0.265625 0.140625 -0.578125q0.078125 -0.3125 0.15625 -0.625l0.828125 -3.15625l0.875 0l-1.5625 5.703125l-1.015625 0zm4.4919434 -5.6875l0 5.703125l-0.875 0l0 -5.703125l0.875 0zm-0.421875 -2.140627q0.203125 0 0.359375 0.140625q0.15625 0.140625 0.15625 0.4375q0 0.28125 -0.15625 0.421875q-0.15625 0.140625 -0.359375 0.140625q-0.234375 0 -0.390625 -0.140625q-0.140625 -0.140625 -0.140625 -0.421875q0 -0.296875 0.140625 -0.4375q0.15625 -0.140625 0.390625 -0.140625zm4.9400635 2.031252q1.015625 0 1.53125 0.5q0.53125 0.5 0.53125 1.59375l0 3.71875l-0.859375 0l0 -3.65625q0 -0.71875 -0.328125 -1.0625q-0.328125 -0.359375 -1.0 -0.359375q-0.9375 0 -1.328125 0.546875q-0.375 0.53125 -0.375 1.546875l0 2.984375l-0.875 0l0 -5.703125l0.703125 0l0.125 0.828125l0.046875 0q0.1875 -0.3125 0.46875 -0.515625q0.28125 -0.203125 0.625 -0.3125q0.34375 -0.109375 0.734375 -0.109375zm5.8634033 5.921875q-1.078125 0 -1.71875 -0.734375q-0.625 -0.75 -0.625 -2.203125q0 -1.46875 0.640625 -2.21875q0.65625 -0.765625 1.71875 -0.765625q0.453125 0 0.78125 0.125q0.34375 0.125 0.59375 0.328125q0.25 0.1875 0.40625 0.453125l0.0625 0q-0.015625 -0.171875 -0.046875 -0.453125q-0.015625 -0.28125 -0.015625 -0.453125l0 -2.281252l0.875 0l0 8.093752l-0.703125 0l-0.125 -0.8125l-0.046875 0q-0.15625 0.25 -0.40625 0.46875q-0.25 0.203125 -0.59375 0.328125q-0.328125 0.125 -0.796875 0.125zm0.140625 -0.71875q0.90625 0 1.28125 -0.515625q0.390625 -0.53125 0.390625 -1.546875l0 -0.15625q0 -1.09375 -0.359375 -1.671875q-0.359375 -0.59375 -1.3125 -0.59375q-0.796875 0 -1.203125 0.625q-0.390625 0.609375 -0.390625 1.65625q0 1.046875 0.390625 1.625q0.40625 0.578125 1.203125 0.578125zm9.269684 -2.25q0 0.703125 -0.1875 1.25q-0.171875 0.546875 -0.515625 0.9375q-0.34375 0.375 -0.84375 0.578125q-0.484375 0.203125 -1.09375 0.203125q-0.5625 0 -1.046875 -0.203125q-0.46875 -0.203125 -0.828125 -0.578125q-0.34375 -0.390625 -0.53125 -0.9375q-0.1875 -0.546875 -0.1875 -1.25q0 -0.9375 0.3125 -1.59375q0.328125 -0.65625 0.90625 -1.0q0.59375 -0.359375 1.40625 -0.359375q0.78125 0 1.359375 0.359375q0.59375 0.34375 0.921875 1.0q0.328125 0.65625 0.328125 1.59375zm-4.34375 0q0 0.6875 0.1875 1.1875q0.1875 0.5 0.5625 0.78125q0.375 0.28125 0.96875 0.28125q0.59375 0 0.96875 -0.28125q0.390625 -0.28125 0.578125 -0.78125q0.1875 -0.5 0.1875 -1.1875q0 -0.6875 -0.1875 -1.171875q-0.1875 -0.5 -0.5625 -0.765625q-0.375 -0.28125 -0.984375 -0.28125q-0.890625 0 -1.3125 0.59375q-0.40625 0.578125 -0.40625 1.625zm10.4729 2.84375l-1.015625 -3.3125q-0.0625 -0.21875 -0.125 -0.421875q-0.0625 -0.203125 -0.109375 -0.390625q-0.046875 -0.1875 -0.09375 -0.34375q-0.03125 -0.171875 -0.0625 -0.296875l-0.03125 0q-0.015625 0.125 -0.0625 0.296875q-0.03125 0.15625 -0.078125 0.34375q-0.046875 0.1875 -0.109375 0.40625q-0.0625 0.203125 -0.125 0.421875l-1.0625 3.296875l-0.96875 0l-1.578125 -5.703125l0.890625 0l0.828125 3.15625q0.078125 0.3125 0.15625 0.625q0.078125 0.296875 0.125 0.5625q0.0625 0.265625 0.09375 0.46875l0.03125 0q0.03125 -0.140625 0.0625 -0.3125q0.046875 -0.1875 0.09375 -0.390625q0.0625 -0.203125 0.109375 -0.40625q0.0625 -0.21875 0.125 -0.390625l1.046875 -3.3125l0.921875 0l1.015625 3.296875q0.078125 0.25 0.15625 0.53125q0.078125 0.265625 0.140625 0.515625q0.0625 0.25 0.09375 0.453125l0.03125 0q0.03125 -0.171875 0.078125 -0.4375q0.0625 -0.265625 0.140625 -0.578125q0.078125 -0.3125 0.15625 -0.625l0.828125 -3.15625l0.875 0l-1.5625 5.703125l-1.015625 0z" fill-rule="nonzero"/><path fill="#000000" fill-opacity="0.0" d="m379.30185 110.120735l156.28348 0l0 30.708656l-156.28348 0z" fill-rule="evenodd"/><path fill="#000000" d="m390.7081 127.549484q0.1875 0 0.375 -0.03125q0.203125 -0.03125 0.328125 -0.078125l0 0.59375q-0.125 0.0625 -0.359375 0.09375q-0.234375 0.046875 -0.46875 0.046875q-0.390625 0 -0.71875 -0.140625q-0.3125 -0.140625 -0.515625 -0.46875q-0.1875 -0.34375 -0.1875 -0.921875l0 -2.96875l-0.71875 0l0 -0.359375l0.71875 -0.296875l0.296875 -1.09375l0.453125 0l0 1.171875l1.46875 0l0 0.578125l-1.46875 0l0 2.9375q0 0.46875 0.21875 0.703125q0.21875 0.234375 0.578125 0.234375z" fill-rule="nonzero"/><path fill="#000000" d="m393.7362 128.19011q0.59375 0 0.890625 0.296875q0.3125 0.28125 0.3125 0.921875l0 2.171875l-0.5 0l0 -2.140625q0 -0.40625 -0.203125 -0.609375q-0.1875 -0.21875 -0.578125 -0.21875q-0.546875 0 -0.78125 0.3125q-0.21875 0.3125 -0.21875 0.90625l0 1.75l-0.5 0l0 -3.328125l0.40625 0l0.078125 0.484375l0.03125 0q0.09375 -0.1875 0.25 -0.296875q0.171875 -0.125 0.375 -0.1875q0.203125 -0.0625 0.4375 -0.0625zm5.110718 1.71875q0 0.40625 -0.109375 0.734375q-0.109375 0.328125 -0.3125 0.546875q-0.203125 0.21875 -0.484375 0.34375q-0.28125 0.109375 -0.640625 0.109375q-0.328125 0 -0.609375 -0.109375q-0.28125 -0.125 -0.484375 -0.34375q-0.203125 -0.21875 -0.3125 -0.546875q-0.109375 -0.328125 -0.109375 -0.734375q0 -0.546875 0.1875 -0.921875q0.1875 -0.390625 0.53125 -0.59375q0.34375 -0.203125 0.8125 -0.203125q0.46875 0 0.796875 0.203125q0.34375 0.203125 0.53125 0.59375q0.203125 0.375 0.203125 0.921875zm-2.53125 0q0 0.40625 0.09375 0.703125q0.109375 0.28125 0.328125 0.453125q0.234375 0.15625 0.578125 0.15625q0.34375 0 0.5625 -0.15625q0.234375 -0.171875 0.328125 -0.453125q0.109375 -0.296875 0.109375 -0.703125q0 -0.390625 -0.109375 -0.671875q-0.09375 -0.296875 -0.328125 -0.453125q-0.21875 -0.171875 -0.5625 -0.171875q-0.53125 0 -0.765625 0.34375q-0.234375 0.34375 -0.234375 0.953125zm6.100342 1.671875l-0.59375 -1.9375q-0.03125 -0.125 -0.078125 -0.25q-0.03125 -0.125 -0.0625 -0.234375q-0.015625 -0.109375 -0.046875 -0.203125q-0.015625 -0.09375 -0.03125 -0.171875l-0.015625 0q-0.015625 0.078125 -0.046875 0.171875q-0.015625 0.09375 -0.046875 0.203125q-0.03125 0.109375 -0.0625 0.234375q-0.03125 0.125 -0.078125 0.25l-0.609375 1.9375l-0.578125 0l-0.90625 -3.328125l0.515625 0l0.484375 1.828125q0.046875 0.1875 0.09375 0.375q0.046875 0.171875 0.078125 0.328125q0.03125 0.15625 0.046875 0.265625l0.015625 0q0.015625 -0.078125 0.03125 -0.171875q0.03125 -0.109375 0.0625 -0.234375q0.03125 -0.125 0.0625 -0.234375q0.03125 -0.125 0.0625 -0.234375l0.625 -1.921875l0.53125 0l0.59375 1.921875q0.046875 0.140625 0.09375 0.296875q0.046875 0.15625 0.078125 0.3125q0.03125 0.140625 0.046875 0.265625l0.03125 0q0.015625 -0.109375 0.046875 -0.25q0.03125 -0.15625 0.078125 -0.34375q0.046875 -0.1875 0.09375 -0.375l0.484375 -1.828125l0.515625 0l-0.921875 3.328125l-0.59375 0z" fill-rule="nonzero"/><path fill="#000000" d="m405.99097 125.90886l0 -0.671875l2.25 0l0 0.671875l-2.25 0zm7.627838 2.265625q-0.953125 0 -1.515625 -0.640625q-0.546875 -0.65625 -0.546875 -1.9375q0 -1.28125 0.5625 -1.9375q0.578125 -0.65625 1.515625 -0.65625q0.390625 0 0.6875 0.109375q0.296875 0.09375 0.5 0.28125q0.21875 0.171875 0.375 0.390625l0.046875 0q-0.015625 -0.140625 -0.03125 -0.390625q-0.015625 -0.25 -0.015625 -0.40625l0 -2.0l0.75 0l0 7.09375l-0.609375 0l-0.109375 -0.703125l-0.03125 0q-0.140625 0.21875 -0.359375 0.40625q-0.21875 0.171875 -0.515625 0.28125q-0.296875 0.109375 -0.703125 0.109375zm0.109375 -0.625q0.8125 0 1.140625 -0.453125q0.328125 -0.46875 0.328125 -1.359375l0 -0.140625q0 -0.953125 -0.3125 -1.453125q-0.3125 -0.515625 -1.15625 -0.515625q-0.6875 0 -1.046875 0.53125q-0.34375 0.53125 -0.34375 1.46875q0 0.90625 0.34375 1.421875q0.34375 0.5 1.046875 0.5z" fill-rule="nonzero"/><path fill="#000000" d="m418.01343 131.58073l-1.265625 -3.328125l0.546875 0l0.71875 2.015625q0.078125 0.203125 0.15625 0.453125q0.078125 0.25 0.109375 0.40625l0.03125 0q0.03125 -0.15625 0.109375 -0.40625q0.09375 -0.25 0.15625 -0.453125l0.734375 -2.015625l0.546875 0l-1.265625 3.328125l-0.578125 0zm3.6531982 -3.390625q0.421875 0 0.71875 0.1875q0.3125 0.1875 0.46875 0.53125q0.171875 0.34375 0.171875 0.796875l0 0.3125l-2.296875 0q0 0.578125 0.28125 0.890625q0.28125 0.296875 0.796875 0.296875q0.3125 0 0.546875 -0.046875q0.25 -0.0625 0.515625 -0.171875l0 0.4375q-0.25 0.109375 -0.5 0.15625q-0.25 0.0625 -0.578125 0.0625q-0.484375 0 -0.84375 -0.1875q-0.359375 -0.203125 -0.5625 -0.578125q-0.1875 -0.390625 -0.1875 -0.9375q0 -0.53125 0.171875 -0.921875q0.1875 -0.40625 0.515625 -0.609375q0.328125 -0.21875 0.78125 -0.21875zm0 0.421875q-0.40625 0 -0.65625 0.265625q-0.234375 0.25 -0.28125 0.734375l1.765625 0q0 -0.296875 -0.09375 -0.515625q-0.09375 -0.234375 -0.28125 -0.359375q-0.171875 -0.125 -0.453125 -0.125zm3.7263489 -0.421875q0.09375 0 0.203125 0.015625q0.109375 0 0.203125 0.03125l-0.0625 0.46875q-0.09375 -0.03125 -0.203125 -0.03125q-0.09375 -0.015625 -0.171875 -0.015625q-0.203125 0 -0.390625 0.078125q-0.171875 0.078125 -0.3125 0.234375q-0.125 0.140625 -0.203125 0.359375q-0.078125 0.203125 -0.078125 0.46875l0 1.78125l-0.5 0l0 -3.328125l0.421875 0l0.046875 0.609375l0.03125 0q0.09375 -0.1875 0.234375 -0.328125q0.15625 -0.15625 0.34375 -0.25q0.203125 -0.09375 0.4375 -0.09375zm3.18219 2.484375q0 0.3125 -0.171875 0.53125q-0.15625 0.21875 -0.453125 0.328125q-0.296875 0.109375 -0.703125 0.109375q-0.34375 0 -0.609375 -0.0625q-0.25 -0.046875 -0.4375 -0.15625l0 -0.453125q0.203125 0.09375 0.484375 0.1875q0.28125 0.078125 0.578125 0.078125q0.4375 0 0.625 -0.140625q0.203125 -0.140625 0.203125 -0.390625q0 -0.125 -0.078125 -0.234375q-0.078125 -0.109375 -0.265625 -0.203125q-0.1875 -0.09375 -0.5 -0.21875q-0.328125 -0.125 -0.5625 -0.234375q-0.21875 -0.125 -0.359375 -0.296875q-0.125 -0.171875 -0.125 -0.453125q0 -0.421875 0.34375 -0.640625q0.34375 -0.234375 0.90625 -0.234375q0.296875 0 0.5625 0.0625q0.265625 0.0625 0.484375 0.15625l-0.171875 0.40625q-0.203125 -0.09375 -0.4375 -0.140625q-0.234375 -0.0625 -0.46875 -0.0625q-0.359375 0 -0.546875 0.109375q-0.1875 0.109375 -0.1875 0.3125q0 0.15625 0.078125 0.265625q0.09375 0.09375 0.28125 0.1875q0.203125 0.078125 0.515625 0.203125q0.3125 0.109375 0.53125 0.234375q0.234375 0.125 0.359375 0.296875q0.125 0.171875 0.125 0.453125zm1.307373 -2.421875l0 3.328125l-0.5 0l0 -3.328125l0.5 0zm-0.234375 -1.25q0.109375 0 0.203125 0.09375q0.09375 0.078125 0.09375 0.25q0 0.15625 -0.09375 0.25q-0.09375 0.078125 -0.203125 0.078125q-0.140625 0 -0.234375 -0.078125q-0.078125 -0.09375 -0.078125 -0.25q0 -0.171875 0.078125 -0.25q0.09375 -0.09375 0.234375 -0.09375zm4.1792297 2.90625q0 0.40625 -0.109375 0.734375q-0.109375 0.328125 -0.3125 0.546875q-0.203125 0.21875 -0.484375 0.34375q-0.28125 0.109375 -0.640625 0.109375q-0.328125 0 -0.609375 -0.109375q-0.28125 -0.125 -0.484375 -0.34375q-0.203125 -0.21875 -0.3125 -0.546875q-0.109375 -0.328125 -0.109375 -0.734375q0 -0.546875 0.1875 -0.921875q0.1875 -0.390625 0.53125 -0.59375q0.34375 -0.203125 0.8125 -0.203125q0.46875 0 0.796875 0.203125q0.34375 0.203125 0.53125 0.59375q0.203125 0.375 0.203125 0.921875zm-2.53125 0q0 0.40625 0.09375 0.703125q0.109375 0.28125 0.328125 0.453125q0.234375 0.15625 0.578125 0.15625q0.34375 0 0.5625 -0.15625q0.234375 -0.171875 0.328125 -0.453125q0.109375 -0.296875 0.109375 -0.703125q0 -0.390625 -0.109375 -0.671875q-0.09375 -0.296875 -0.328125 -0.453125q-0.21875 -0.171875 -0.5625 -0.171875q-0.53125 0 -0.765625 0.34375q-0.234375 0.34375 -0.234375 0.953125zm4.975342 -1.71875q0.59375 0 0.890625 0.296875q0.3125 0.28125 0.3125 0.921875l0 2.171875l-0.5 0l0 -2.140625q0 -0.40625 -0.203125 -0.609375q-0.1875 -0.21875 -0.578125 -0.21875q-0.546875 0 -0.78125 0.3125q-0.21875 0.3125 -0.21875 0.90625l0 1.75l-0.5 0l0 -3.328125l0.40625 0l0.078125 0.484375l0.03125 0q0.09375 -0.1875 0.25 -0.296875q0.171875 -0.125 0.375 -0.1875q0.203125 -0.0625 0.4375 -0.0625zm5.829468 1.125q0 0.75 -0.265625 1.265625q-0.265625 0.5 -0.796875 0.75q-0.515625 0.25 -1.25 0.25l-1.203125 0l0 -4.4375l1.34375 0q0.671875 0 1.15625 0.25q0.484375 0.25 0.75 0.734375q0.265625 0.484375 0.265625 1.1875zm-0.53125 0.015625q0 -0.59375 -0.203125 -0.984375q-0.203125 -0.390625 -0.59375 -0.578125q-0.375 -0.1875 -0.921875 -0.1875l-0.75 0l0 3.5625l0.625 0q0.921875 0 1.375 -0.453125q0.46875 -0.453125 0.46875 -1.359375zm2.7309875 -1.140625q0.421875 0 0.71875 0.1875q0.3125 0.1875 0.46875 0.53125q0.171875 0.34375 0.171875 0.796875l0 0.3125l-2.296875 0q0 0.578125 0.28125 0.890625q0.28125 0.296875 0.796875 0.296875q0.3125 0 0.546875 -0.046875q0.25 -0.0625 0.515625 -0.171875l0 0.4375q-0.25 0.109375 -0.5 0.15625q-0.25 0.0625 -0.578125 0.0625q-0.484375 0 -0.84375 -0.1875q-0.359375 -0.203125 -0.5625 -0.578125q-0.1875 -0.390625 -0.1875 -0.9375q0 -0.53125 0.171875 -0.921875q0.1875 -0.40625 0.515625 -0.609375q0.328125 -0.21875 0.78125 -0.21875zm0 0.421875q-0.40625 0 -0.65625 0.265625q-0.234375 0.25 -0.28125 0.734375l1.765625 0q0 -0.296875 -0.09375 -0.515625q-0.09375 -0.234375 -0.28125 -0.359375q-0.171875 -0.125 -0.453125 -0.125zm2.7107239 2.96875l-0.5 0l0 -4.71875l0.5 0l0 4.71875zm2.3511353 -3.390625q0.421875 0 0.71875 0.1875q0.3125 0.1875 0.46875 0.53125q0.171875 0.34375 0.171875 0.796875l0 0.3125l-2.296875 0q0 0.578125 0.28125 0.890625q0.28125 0.296875 0.796875 0.296875q0.3125 0 0.546875 -0.046875q0.25 -0.0625 0.515625 -0.171875l0 0.4375q-0.25 0.109375 -0.5 0.15625q-0.25 0.0625 -0.578125 0.0625q-0.484375 0 -0.84375 -0.1875q-0.359375 -0.203125 -0.5625 -0.578125q-0.1875 -0.390625 -0.1875 -0.9375q0 -0.53125 0.171875 -0.921875q0.1875 -0.40625 0.515625 -0.609375q0.328125 -0.21875 0.78125 -0.21875zm0 0.421875q-0.40625 0 -0.65625 0.265625q-0.234375 0.25 -0.28125 0.734375l1.765625 0q0 -0.296875 -0.09375 -0.515625q-0.09375 -0.234375 -0.28125 -0.359375q-0.171875 -0.125 -0.453125 -0.125zm3.2888489 2.609375q0.125 0 0.25 -0.015625q0.125 -0.015625 0.21875 -0.046875l0 0.390625q-0.09375 0.03125 -0.25 0.0625q-0.15625 0.03125 -0.296875 0.03125q-0.265625 0 -0.484375 -0.09375q-0.21875 -0.09375 -0.34375 -0.3125q-0.125 -0.21875 -0.125 -0.609375l0 -1.984375l-0.484375 0l0 -0.234375l0.484375 -0.203125l0.203125 -0.71875l0.296875 0l0 0.765625l0.96875 0l0 0.390625l-0.96875 0l0 1.96875q0 0.3125 0.140625 0.46875q0.140625 0.140625 0.390625 0.140625zm2.4197693 -3.03125q0.421875 0 0.71875 0.1875q0.3125 0.1875 0.46875 0.53125q0.171875 0.34375 0.171875 0.796875l0 0.3125l-2.296875 0q0 0.578125 0.28125 0.890625q0.28125 0.296875 0.796875 0.296875q0.3125 0 0.546875 -0.046875q0.25 -0.0625 0.515625 -0.171875l0 0.4375q-0.25 0.109375 -0.5 0.15625q-0.25 0.0625 -0.578125 0.0625q-0.484375 0 -0.84375 -0.1875q-0.359375 -0.203125 -0.5625 -0.578125q-0.1875 -0.390625 -0.1875 -0.9375q0 -0.53125 0.171875 -0.921875q0.1875 -0.40625 0.515625 -0.609375q0.328125 -0.21875 0.78125 -0.21875zm0 0.421875q-0.40625 0 -0.65625 0.265625q-0.234375 0.25 -0.28125 0.734375l1.765625 0q0 -0.296875 -0.09375 -0.515625q-0.09375 -0.234375 -0.28125 -0.359375q-0.171875 -0.125 -0.453125 -0.125zm5.804474 0.703125q0 0.75 -0.265625 1.265625q-0.265625 0.5 -0.796875 0.75q-0.515625 0.25 -1.25 0.25l-1.203125 0l0 -4.4375l1.34375 0q0.671875 0 1.15625 0.25q0.484375 0.25 0.75 0.734375q0.265625 0.484375 0.265625 1.1875zm-0.53125 0.015625q0 -0.59375 -0.203125 -0.984375q-0.203125 -0.390625 -0.59375 -0.578125q-0.375 -0.1875 -0.921875 -0.1875l-0.75 0l0 3.5625l0.625 0q0.921875 0 1.375 -0.453125q0.46875 -0.453125 0.46875 -1.359375zm4.1997375 -1.078125l0 3.328125l-0.421875 0l-0.0625 -0.46875l-0.03125 0q-0.109375 0.171875 -0.28125 0.296875q-0.15625 0.109375 -0.359375 0.171875q-0.203125 0.0625 -0.4375 0.0625q-0.390625 0 -0.65625 -0.125q-0.265625 -0.125 -0.40625 -0.390625q-0.125 -0.28125 -0.125 -0.6875l0 -2.1875l0.5 0l0 2.140625q0 0.421875 0.1875 0.625q0.1875 0.203125 0.578125 0.203125q0.375 0 0.59375 -0.140625q0.21875 -0.140625 0.3125 -0.40625q0.09375 -0.28125 0.09375 -0.671875l0 -1.75l0.515625 0zm2.5794678 -0.0625q0.09375 0 0.203125 0.015625q0.109375 0 0.203125 0.03125l-0.0625 0.46875q-0.09375 -0.03125 -0.203125 -0.03125q-0.09375 -0.015625 -0.171875 -0.015625q-0.203125 0 -0.390625 0.078125q-0.171875 0.078125 -0.3125 0.234375q-0.125 0.140625 -0.203125 0.359375q-0.078125 0.203125 -0.078125 0.46875l0 1.78125l-0.5 0l0 -3.328125l0.421875 0l0.046875 0.609375l0.03125 0q0.09375 -0.1875 0.234375 -0.328125q0.15625 -0.15625 0.34375 -0.25q0.203125 -0.09375 0.4375 -0.09375zm2.2759094 0.015625q0.59375 0 0.875 0.265625q0.296875 0.265625 0.296875 0.84375l0 2.265625l-0.375 0l-0.09375 -0.484375l-0.03125 0q-0.140625 0.171875 -0.296875 0.296875q-0.140625 0.125 -0.34375 0.1875q-0.1875 0.0625 -0.484375 0.0625q-0.296875 0 -0.53125 -0.109375q-0.234375 -0.109375 -0.375 -0.3125q-0.140625 -0.21875 -0.140625 -0.546875q0 -0.5 0.390625 -0.765625q0.40625 -0.28125 1.203125 -0.296875l0.578125 -0.03125l0 -0.203125q0 -0.421875 -0.1875 -0.59375q-0.171875 -0.171875 -0.515625 -0.171875q-0.265625 0 -0.5 0.078125q-0.234375 0.0625 -0.453125 0.171875l-0.15625 -0.390625q0.234375 -0.109375 0.515625 -0.1875q0.296875 -0.078125 0.625 -0.078125zm0.671875 1.734375l-0.515625 0.015625q-0.609375 0.03125 -0.875 0.21875q-0.25 0.171875 -0.25 0.5q0 0.28125 0.171875 0.421875q0.171875 0.140625 0.453125 0.140625q0.453125 0 0.734375 -0.25q0.28125 -0.25 0.28125 -0.734375l0 -0.3125zm2.611786 1.28125q0.125 0 0.25 -0.015625q0.125 -0.015625 0.21875 -0.046875l0 0.390625q-0.09375 0.03125 -0.25 0.0625q-0.15625 0.03125 -0.296875 0.03125q-0.265625 0 -0.484375 -0.09375q-0.21875 -0.09375 -0.34375 -0.3125q-0.125 -0.21875 -0.125 -0.609375l0 -1.984375l-0.484375 0l0 -0.234375l0.484375 -0.203125l0.203125 -0.71875l0.296875 0l0 0.765625l0.96875 0l0 0.390625l-0.96875 0l0 1.96875q0 0.3125 0.140625 0.46875q0.140625 0.140625 0.390625 0.140625zm1.6385193 -2.96875l0 3.328125l-0.5 0l0 -3.328125l0.5 0zm-0.234375 -1.25q0.109375 0 0.203125 0.09375q0.09375 0.078125 0.09375 0.25q0 0.15625 -0.09375 0.25q-0.09375 0.078125 -0.203125 0.078125q-0.140625 0 -0.234375 -0.078125q-0.078125 -0.09375 -0.078125 -0.25q0 -0.171875 0.078125 -0.25q0.09375 -0.09375 0.234375 -0.09375zm4.1792603 2.90625q0 0.40625 -0.109375 0.734375q-0.109375 0.328125 -0.3125 0.546875q-0.203125 0.21875 -0.484375 0.34375q-0.28125 0.109375 -0.640625 0.109375q-0.328125 0 -0.609375 -0.109375q-0.28125 -0.125 -0.484375 -0.34375q-0.203125 -0.21875 -0.3125 -0.546875q-0.109375 -0.328125 -0.109375 -0.734375q0 -0.546875 0.1875 -0.921875q0.1875 -0.390625 0.53125 -0.59375q0.34375 -0.203125 0.8125 -0.203125q0.46875 0 0.796875 0.203125q0.34375 0.203125 0.53125 0.59375q0.203125 0.375 0.203125 0.921875zm-2.53125 0q0 0.40625 0.09375 0.703125q0.109375 0.28125 0.328125 0.453125q0.234375 0.15625 0.578125 0.15625q0.34375 0 0.5625 -0.15625q0.234375 -0.171875 0.328125 -0.453125q0.109375 -0.296875 0.109375 -0.703125q0 -0.390625 -0.109375 -0.671875q-0.09375 -0.296875 -0.328125 -0.453125q-0.21875 -0.171875 -0.5625 -0.171875q-0.53125 0 -0.765625 0.34375q-0.234375 0.34375 -0.234375 0.953125zm4.975342 -1.71875q0.59375 0 0.890625 0.296875q0.3125 0.28125 0.3125 0.921875l0 2.171875l-0.5 0l0 -2.140625q0 -0.40625 -0.203125 -0.609375q-0.1875 -0.21875 -0.578125 -0.21875q-0.546875 0 -0.78125 0.3125q-0.21875 0.3125 -0.21875 0.90625l0 1.75l-0.5 0l0 -3.328125l0.40625 0l0.078125 0.484375l0.03125 0q0.09375 -0.1875 0.25 -0.296875q0.171875 -0.125 0.375 -0.1875q0.203125 -0.0625 0.4375 -0.0625z" fill-rule="nonzero"/><path fill="#000000" fill-opacity="0.0" d="m140.04356 95.5538l115.46457 0l0 38.771652l-115.46457 0z" fill-rule="evenodd"/><path fill="#000000" d="m153.18419 119.00755q0.3125 0 0.640625 -0.046875q0.34375 -0.0625 0.5625 -0.140625l0 1.0q-0.234375 0.109375 -0.640625 0.171875q-0.390625 0.078125 -0.78125 0.078125q-0.671875 0 -1.234375 -0.234375q-0.546875 -0.25 -0.890625 -0.8125q-0.328125 -0.578125 -0.328125 -1.578125l0 -5.078125l-1.21875 0l0 -0.640625l1.234375 -0.5l0.515625 -1.859375l0.78125 0l0 1.984375l2.5 0l0 1.015625l-2.5 0l0 5.03125q0 0.8125 0.359375 1.21875q0.375 0.390625 1.0 0.390625z" fill-rule="nonzero"/><path fill="#000000" d="m159.34044 124.3513q0 0.546875 -0.28125 0.921875q-0.265625 0.375 -0.78125 0.5625q-0.5 0.1875 -1.1875 0.1875q-0.609375 0 -1.046875 -0.09375q-0.4375 -0.09375 -0.765625 -0.265625l0 -0.796875q0.359375 0.171875 0.84375 0.3125q0.484375 0.140625 0.984375 0.140625q0.734375 0 1.0625 -0.234375q0.34375 -0.25 0.34375 -0.65625q0 -0.234375 -0.140625 -0.40625q-0.125 -0.1875 -0.4375 -0.359375q-0.3125 -0.171875 -0.859375 -0.375q-0.546875 -0.203125 -0.953125 -0.40625q-0.390625 -0.203125 -0.609375 -0.5q-0.21875 -0.296875 -0.21875 -0.78125q0 -0.71875 0.578125 -1.109375q0.59375 -0.390625 1.546875 -0.390625q0.515625 0 0.953125 0.109375q0.453125 0.09375 0.84375 0.265625l-0.28125 0.703125q-0.359375 -0.15625 -0.765625 -0.25q-0.390625 -0.109375 -0.8125 -0.109375q-0.59375 0 -0.921875 0.203125q-0.3125 0.1875 -0.3125 0.53125q0 0.265625 0.140625 0.4375q0.15625 0.171875 0.484375 0.328125q0.328125 0.140625 0.859375 0.34375q0.53125 0.203125 0.921875 0.421875q0.390625 0.203125 0.59375 0.5q0.21875 0.296875 0.21875 0.765625zm3.2346191 0.953125q0.21875 0 0.4375 -0.03125q0.21875 -0.03125 0.359375 -0.09375l0 0.671875q-0.140625 0.078125 -0.421875 0.125q-0.265625 0.046875 -0.515625 0.046875q-0.453125 0 -0.828125 -0.15625q-0.359375 -0.171875 -0.578125 -0.546875q-0.21875 -0.375 -0.21875 -1.046875l0 -3.390625l-0.8125 0l0 -0.421875l0.8125 -0.328125l0.34375 -1.25l0.515625 0l0 1.328125l1.671875 0l0 0.671875l-1.671875 0l0 3.359375q0 0.53125 0.25 0.796875q0.25 0.265625 0.65625 0.265625zm4.0952454 -5.1875q1.015625 0 1.5 0.46875q0.5 0.453125 0.5 1.453125l0 3.875l-0.625 0l-0.171875 -0.84375l-0.03125 0q-0.25 0.3125 -0.515625 0.53125q-0.25 0.203125 -0.59375 0.3125q-0.34375 0.109375 -0.828125 0.109375q-0.515625 0 -0.921875 -0.1875q-0.40625 -0.1875 -0.640625 -0.546875q-0.234375 -0.375 -0.234375 -0.9375q0 -0.859375 0.671875 -1.3125q0.6875 -0.453125 2.0625 -0.5l0.984375 -0.046875l0 -0.34375q0 -0.734375 -0.3125 -1.03125q-0.3125 -0.296875 -0.890625 -0.296875q-0.453125 0 -0.859375 0.125q-0.40625 0.125 -0.765625 0.3125l-0.265625 -0.65625q0.390625 -0.203125 0.890625 -0.34375q0.5 -0.140625 1.046875 -0.140625zm1.15625 2.984375l-0.875 0.046875q-1.0625 0.03125 -1.5 0.34375q-0.4375 0.296875 -0.4375 0.859375q0 0.5 0.296875 0.734375q0.296875 0.234375 0.78125 0.234375q0.765625 0 1.25 -0.421875q0.484375 -0.421875 0.484375 -1.265625l0 -0.53125zm5.21817 -3.0q0.171875 0 0.359375 0.03125q0.1875 0.015625 0.328125 0.046875l-0.109375 0.796875q-0.140625 -0.03125 -0.3125 -0.046875q-0.171875 -0.03125 -0.3125 -0.03125q-0.34375 0 -0.65625 0.140625q-0.296875 0.140625 -0.53125 0.40625q-0.21875 0.25 -0.359375 0.609375q-0.125 0.359375 -0.125 0.796875l0 3.0625l-0.875 0l0 -5.703125l0.71875 0l0.09375 1.046875l0.046875 0q0.171875 -0.3125 0.421875 -0.578125q0.25 -0.265625 0.578125 -0.421875q0.328125 -0.15625 0.734375 -0.15625zm3.6051178 5.203125q0.21875 0 0.4375 -0.03125q0.21875 -0.03125 0.359375 -0.09375l0 0.671875q-0.140625 0.078125 -0.421875 0.125q-0.265625 0.046875 -0.515625 0.046875q-0.453125 0 -0.828125 -0.15625q-0.359375 -0.171875 -0.578125 -0.546875q-0.21875 -0.375 -0.21875 -1.046875l0 -3.390625l-0.8125 0l0 -0.421875l0.8125 -0.328125l0.34375 -1.25l0.515625 0l0 1.328125l1.671875 0l0 0.671875l-1.671875 0l0 3.359375q0 0.53125 0.25 0.796875q0.25 0.265625 0.65625 0.265625zm2.8296204 -5.09375l0 5.703125l-0.875 0l0 -5.703125l0.875 0zm-0.421875 -2.140625q0.203125 0 0.359375 0.140625q0.15625 0.140625 0.15625 0.4375q0 0.28125 -0.15625 0.421875q-0.15625 0.140625 -0.359375 0.140625q-0.234375 0 -0.390625 -0.140625q-0.140625 -0.140625 -0.140625 -0.421875q0 -0.296875 0.140625 -0.4375q0.15625 -0.140625 0.390625 -0.140625zm4.9400787 2.03125q1.015625 0 1.53125 0.5q0.53125 0.5 0.53125 1.59375l0 3.71875l-0.859375 0l0 -3.65625q0 -0.71875 -0.328125 -1.0625q-0.328125 -0.359375 -1.0 -0.359375q-0.9375 0 -1.328125 0.546875q-0.375 0.53125 -0.375 1.546875l0 2.984375l-0.875 0l0 -5.703125l0.703125 0l0.125 0.828125l0.046875 0q0.1875 -0.3125 0.46875 -0.515625q0.28125 -0.203125 0.625 -0.3125q0.34375 -0.109375 0.734375 -0.109375zm5.4259033 8.375q-1.125 0 -1.734375 -0.421875q-0.609375 -0.421875 -0.609375 -1.171875q0 -0.53125 0.34375 -0.921875q0.34375 -0.375 0.953125 -0.5q-0.234375 -0.109375 -0.390625 -0.3125q-0.15625 -0.203125 -0.15625 -0.484375q0 -0.3125 0.171875 -0.546875q0.171875 -0.234375 0.53125 -0.453125q-0.4375 -0.1875 -0.71875 -0.609375q-0.28125 -0.4375 -0.28125 -1.015625q0 -0.609375 0.25 -1.046875q0.265625 -0.4375 0.75 -0.65625q0.484375 -0.234375 1.15625 -0.234375q0.15625 0 0.3125 0.015625q0.15625 0 0.296875 0.03125q0.140625 0.015625 0.234375 0.046875l1.96875 0l0 0.5625l-1.0625 0.125q0.15625 0.203125 0.265625 0.5q0.109375 0.28125 0.109375 0.625q0 0.859375 -0.578125 1.359375q-0.578125 0.5 -1.59375 0.5q-0.234375 0 -0.484375 -0.046875q-0.25 0.140625 -0.390625 0.3125q-0.125 0.171875 -0.125 0.40625q0 0.15625 0.09375 0.265625q0.109375 0.09375 0.296875 0.140625q0.1875 0.046875 0.46875 0.046875l1.0 0q0.921875 0 1.421875 0.390625q0.5 0.390625 0.5 1.140625q0 0.9375 -0.78125 1.4375q-0.765625 0.515625 -2.21875 0.515625zm0.03125 -0.671875q0.703125 0 1.171875 -0.15625q0.46875 -0.140625 0.6875 -0.40625q0.234375 -0.265625 0.234375 -0.640625q0 -0.34375 -0.15625 -0.515625q-0.15625 -0.171875 -0.453125 -0.234375q-0.296875 -0.0625 -0.734375 -0.0625l-0.984375 0q-0.390625 0 -0.6875 0.125q-0.28125 0.125 -0.4375 0.359375q-0.140625 0.234375 -0.140625 0.578125q0 0.46875 0.390625 0.703125q0.390625 0.25 1.109375 0.25zm0.21875 -4.5625q0.625 0 0.9375 -0.3125q0.3125 -0.3125 0.3125 -0.90625q0 -0.640625 -0.328125 -0.953125q-0.3125 -0.328125 -0.9375 -0.328125q-0.578125 0 -0.90625 0.328125q-0.3125 0.328125 -0.3125 0.96875q0 0.578125 0.3125 0.890625q0.328125 0.3125 0.921875 0.3125zm4.9578857 2.671875l-0.875 0l0 -7.609375l4.234375 0l0 0.78125l-3.359375 0l0 2.796875l3.15625 0l0 0.765625l-3.15625 0l0 3.265625zm7.077957 -5.8125q0.171875 0 0.359375 0.03125q0.1875 0.015625 0.328125 0.046875l-0.109375 0.796875q-0.140625 -0.03125 -0.3125 -0.046875q-0.171875 -0.03125 -0.3125 -0.03125q-0.34375 0 -0.65625 0.140625q-0.296875 0.140625 -0.53125 0.40625q-0.21875 0.25 -0.359375 0.609375q-0.125 0.359375 -0.125 0.796875l0 3.0625l-0.875 0l0 -5.703125l0.71875 0l0.09375 1.046875l0.046875 0q0.171875 -0.3125 0.421875 -0.578125q0.25 -0.265625 0.578125 -0.421875q0.328125 -0.15625 0.734375 -0.15625zm6.683243 2.953125q0 0.703125 -0.1875 1.25q-0.171875 0.546875 -0.515625 0.9375q-0.34375 0.375 -0.84375 0.578125q-0.484375 0.203125 -1.09375 0.203125q-0.5625 0 -1.046875 -0.203125q-0.46875 -0.203125 -0.828125 -0.578125q-0.34375 -0.390625 -0.53125 -0.9375q-0.1875 -0.546875 -0.1875 -1.25q0 -0.9375 0.3125 -1.59375q0.328125 -0.65625 0.90625 -1.0q0.59375 -0.359375 1.40625 -0.359375q0.78125 0 1.359375 0.359375q0.59375 0.34375 0.921875 1.0q0.328125 0.65625 0.328125 1.59375zm-4.34375 0q0 0.6875 0.1875 1.1875q0.1875 0.5 0.5625 0.78125q0.375 0.28125 0.96875 0.28125q0.59375 0 0.96875 -0.28125q0.390625 -0.28125 0.578125 -0.78125q0.1875 -0.5 0.1875 -1.1875q0 -0.6875 -0.1875 -1.171875q-0.1875 -0.5 -0.5625 -0.765625q-0.375 -0.28125 -0.984375 -0.28125q-0.890625 0 -1.3125 0.59375q-0.40625 0.578125 -0.40625 1.625zm12.0354 -2.953125q0.9375 0 1.40625 0.5q0.484375 0.484375 0.484375 1.578125l0 3.734375l-0.859375 0l0 -3.6875q0 -0.703125 -0.296875 -1.046875q-0.296875 -0.34375 -0.875 -0.34375q-0.828125 0 -1.203125 0.484375q-0.375 0.46875 -0.375 1.40625l0 3.1875l-0.859375 0l0 -3.6875q0 -0.46875 -0.140625 -0.765625q-0.125 -0.3125 -0.390625 -0.46875q-0.265625 -0.15625 -0.671875 -0.15625q-0.5625 0 -0.90625 0.234375q-0.34375 0.234375 -0.5 0.703125q-0.140625 0.453125 -0.140625 1.125l0 3.015625l-0.875 0l0 -5.703125l0.703125 0l0.125 0.8125l0.046875 0q0.171875 -0.296875 0.4375 -0.5q0.265625 -0.203125 0.578125 -0.3125q0.328125 -0.109375 0.6875 -0.109375q0.65625 0 1.09375 0.25q0.4375 0.234375 0.640625 0.734375l0.046875 0q0.28125 -0.5 0.765625 -0.734375q0.484375 -0.25 1.078125 -0.25z" fill-rule="nonzero"/><path fill="#000000" fill-opacity="0.0" d="m140.13805 33.93176l-0.09448242 81.00787" fill-rule="evenodd"/><path stroke="#5252cf" stroke-width="1.0" stroke-linejoin="round" stroke-linecap="butt" stroke-dasharray="4.0,3.0" d="m140.13364 37.721756l-0.08564758 73.42788" fill-rule="evenodd"/><path stroke="#5252cf" stroke-width="1.0" stroke-linecap="butt" d="m140.13747 34.43176c0.9085083 0.0010604858 1.6441345 0.73841095 1.6430817 1.6469154c-0.0010528564 0.9085083 -0.7384033 1.6441422 -1.6469116 1.6430817c-0.9085083 -0.0010604858 -1.6441498 -0.73841095 -1.6430817 -1.6469193c0.0010528564 -0.9085045 0.7384033 -1.6441383 1.6469116 -1.6430779z" fill-rule="nonzero"/><path stroke="#5252cf" stroke-width="1.0" stroke-linecap="butt" d="m140.04414 114.43964c-0.9085083 -0.0010604858 -1.6441345 -0.73841095 -1.6430817 -1.6469193c0.0010681152 -0.9085083 0.7384186 -1.6441422 1.6469269 -1.6430817c0.9085083 0.0010604858 1.6441345 0.73841095 1.6430817 1.6469193c-0.0010681152 0.9085083 -0.7384186 1.6441345 -1.6469269 1.6430817z" fill-rule="nonzero"/><path fill="#000000" fill-opacity="0.0" d="m262.44882 110.120735l156.28348 0l0 30.708656l-156.28348 0z" fill-rule="evenodd"/><path fill="#000000" d="m273.85507 127.549484q0.1875 0 0.375 -0.03125q0.203125 -0.03125 0.328125 -0.078125l0 0.59375q-0.125 0.0625 -0.359375 0.09375q-0.234375 0.046875 -0.46875 0.046875q-0.390625 0 -0.71875 -0.140625q-0.3125 -0.140625 -0.515625 -0.46875q-0.1875 -0.34375 -0.1875 -0.921875l0 -2.96875l-0.71875 0l0 -0.359375l0.71875 -0.296875l0.296875 -1.09375l0.453125 0l0 1.171875l1.46875 0l0 0.578125l-1.46875 0l0 2.9375q0 0.46875 0.21875 0.703125q0.21875 0.234375 0.578125 0.234375z" fill-rule="nonzero"/><path fill="#000000" d="m276.88318 128.19011q0.59375 0 0.890625 0.296875q0.3125 0.28125 0.3125 0.921875l0 2.171875l-0.5 0l0 -2.140625q0 -0.40625 -0.203125 -0.609375q-0.1875 -0.21875 -0.578125 -0.21875q-0.546875 0 -0.78125 0.3125q-0.21875 0.3125 -0.21875 0.90625l0 1.75l-0.5 0l0 -3.328125l0.40625 0l0.078125 0.484375l0.03125 0q0.09375 -0.1875 0.25 -0.296875q0.171875 -0.125 0.375 -0.1875q0.203125 -0.0625 0.4375 -0.0625zm5.110718 1.71875q0 0.40625 -0.109375 0.734375q-0.109375 0.328125 -0.3125 0.546875q-0.203125 0.21875 -0.484375 0.34375q-0.28125 0.109375 -0.640625 0.109375q-0.328125 0 -0.609375 -0.109375q-0.28125 -0.125 -0.484375 -0.34375q-0.203125 -0.21875 -0.3125 -0.546875q-0.109375 -0.328125 -0.109375 -0.734375q0 -0.546875 0.1875 -0.921875q0.1875 -0.390625 0.53125 -0.59375q0.34375 -0.203125 0.8125 -0.203125q0.46875 0 0.796875 0.203125q0.34375 0.203125 0.53125 0.59375q0.203125 0.375 0.203125 0.921875zm-2.53125 0q0 0.40625 0.09375 0.703125q0.109375 0.28125 0.328125 0.453125q0.234375 0.15625 0.578125 0.15625q0.34375 0 0.5625 -0.15625q0.234375 -0.171875 0.328125 -0.453125q0.109375 -0.296875 0.109375 -0.703125q0 -0.390625 -0.109375 -0.671875q-0.09375 -0.296875 -0.328125 -0.453125q-0.21875 -0.171875 -0.5625 -0.171875q-0.53125 0 -0.765625 0.34375q-0.234375 0.34375 -0.234375 0.953125zm6.100342 1.671875l-0.59375 -1.9375q-0.03125 -0.125 -0.078125 -0.25q-0.03125 -0.125 -0.0625 -0.234375q-0.015625 -0.109375 -0.046875 -0.203125q-0.015625 -0.09375 -0.03125 -0.171875l-0.015625 0q-0.015625 0.078125 -0.046875 0.171875q-0.015625 0.09375 -0.046875 0.203125q-0.03125 0.109375 -0.0625 0.234375q-0.03125 0.125 -0.078125 0.25l-0.609375 1.9375l-0.578125 0l-0.90625 -3.328125l0.515625 0l0.484375 1.828125q0.046875 0.1875 0.09375 0.375q0.046875 0.171875 0.078125 0.328125q0.03125 0.15625 0.046875 0.265625l0.015625 0q0.015625 -0.078125 0.03125 -0.171875q0.03125 -0.109375 0.0625 -0.234375q0.03125 -0.125 0.0625 -0.234375q0.03125 -0.125 0.0625 -0.234375l0.625 -1.921875l0.53125 0l0.59375 1.921875q0.046875 0.140625 0.09375 0.296875q0.046875 0.15625 0.078125 0.3125q0.03125 0.140625 0.046875 0.265625l0.03125 0q0.015625 -0.109375 0.046875 -0.25q0.03125 -0.15625 0.078125 -0.34375q0.046875 -0.1875 0.09375 -0.375l0.484375 -1.828125l0.515625 0l-0.921875 3.328125l-0.59375 0z" fill-rule="nonzero"/><path fill="#000000" d="m289.13794 125.90886l0 -0.671875l2.25 0l0 0.671875l-2.25 0zm7.627838 2.265625q-0.953125 0 -1.515625 -0.640625q-0.546875 -0.65625 -0.546875 -1.9375q0 -1.28125 0.5625 -1.9375q0.578125 -0.65625 1.515625 -0.65625q0.390625 0 0.6875 0.109375q0.296875 0.09375 0.5 0.28125q0.21875 0.171875 0.375 0.390625l0.046875 0q-0.015625 -0.140625 -0.03125 -0.390625q-0.015625 -0.25 -0.015625 -0.40625l0 -2.0l0.75 0l0 7.09375l-0.609375 0l-0.109375 -0.703125l-0.03125 0q-0.140625 0.21875 -0.359375 0.40625q-0.21875 0.171875 -0.515625 0.28125q-0.296875 0.109375 -0.703125 0.109375zm0.109375 -0.625q0.8125 0 1.140625 -0.453125q0.328125 -0.46875 0.328125 -1.359375l0 -0.140625q0 -0.953125 -0.3125 -1.453125q-0.3125 -0.515625 -1.15625 -0.515625q-0.6875 0 -1.046875 0.53125q-0.34375 0.53125 -0.34375 1.46875q0 0.90625 0.34375 1.421875q0.34375 0.5 1.046875 0.5z" fill-rule="nonzero"/><path fill="#000000" d="m301.1604 131.58073l-1.265625 -3.328125l0.546875 0l0.71875 2.015625q0.078125 0.203125 0.15625 0.453125q0.078125 0.25 0.109375 0.40625l0.03125 0q0.03125 -0.15625 0.109375 -0.40625q0.09375 -0.25 0.15625 -0.453125l0.734375 -2.015625l0.546875 0l-1.265625 3.328125l-0.578125 0zm3.6531982 -3.390625q0.421875 0 0.71875 0.1875q0.3125 0.1875 0.46875 0.53125q0.171875 0.34375 0.171875 0.796875l0 0.3125l-2.296875 0q0 0.578125 0.28125 0.890625q0.28125 0.296875 0.796875 0.296875q0.3125 0 0.546875 -0.046875q0.25 -0.0625 0.515625 -0.171875l0 0.4375q-0.25 0.109375 -0.5 0.15625q-0.25 0.0625 -0.578125 0.0625q-0.484375 0 -0.84375 -0.1875q-0.359375 -0.203125 -0.5625 -0.578125q-0.1875 -0.390625 -0.1875 -0.9375q0 -0.53125 0.171875 -0.921875q0.1875 -0.40625 0.515625 -0.609375q0.328125 -0.21875 0.78125 -0.21875zm0 0.421875q-0.40625 0 -0.65625 0.265625q-0.234375 0.25 -0.28125 0.734375l1.765625 0q0 -0.296875 -0.09375 -0.515625q-0.09375 -0.234375 -0.28125 -0.359375q-0.171875 -0.125 -0.453125 -0.125zm3.7263489 -0.421875q0.09375 0 0.203125 0.015625q0.109375 0 0.203125 0.03125l-0.0625 0.46875q-0.09375 -0.03125 -0.203125 -0.03125q-0.09375 -0.015625 -0.171875 -0.015625q-0.203125 0 -0.390625 0.078125q-0.171875 0.078125 -0.3125 0.234375q-0.125 0.140625 -0.203125 0.359375q-0.078125 0.203125 -0.078125 0.46875l0 1.78125l-0.5 0l0 -3.328125l0.421875 0l0.046875 0.609375l0.03125 0q0.09375 -0.1875 0.234375 -0.328125q0.15625 -0.15625 0.34375 -0.25q0.203125 -0.09375 0.4375 -0.09375zm3.18219 2.484375q0 0.3125 -0.171875 0.53125q-0.15625 0.21875 -0.453125 0.328125q-0.296875 0.109375 -0.703125 0.109375q-0.34375 0 -0.609375 -0.0625q-0.25 -0.046875 -0.4375 -0.15625l0 -0.453125q0.203125 0.09375 0.484375 0.1875q0.28125 0.078125 0.578125 0.078125q0.4375 0 0.625 -0.140625q0.203125 -0.140625 0.203125 -0.390625q0 -0.125 -0.078125 -0.234375q-0.078125 -0.109375 -0.265625 -0.203125q-0.1875 -0.09375 -0.5 -0.21875q-0.328125 -0.125 -0.5625 -0.234375q-0.21875 -0.125 -0.359375 -0.296875q-0.125 -0.171875 -0.125 -0.453125q0 -0.421875 0.34375 -0.640625q0.34375 -0.234375 0.90625 -0.234375q0.296875 0 0.5625 0.0625q0.265625 0.0625 0.484375 0.15625l-0.171875 0.40625q-0.203125 -0.09375 -0.4375 -0.140625q-0.234375 -0.0625 -0.46875 -0.0625q-0.359375 0 -0.546875 0.109375q-0.1875 0.109375 -0.1875 0.3125q0 0.15625 0.078125 0.265625q0.09375 0.09375 0.28125 0.1875q0.203125 0.078125 0.515625 0.203125q0.3125 0.109375 0.53125 0.234375q0.234375 0.125 0.359375 0.296875q0.125 0.171875 0.125 0.453125zm1.307373 -2.421875l0 3.328125l-0.5 0l0 -3.328125l0.5 0zm-0.234375 -1.25q0.109375 0 0.203125 0.09375q0.09375 0.078125 0.09375 0.25q0 0.15625 -0.09375 0.25q-0.09375 0.078125 -0.203125 0.078125q-0.140625 0 -0.234375 -0.078125q-0.078125 -0.09375 -0.078125 -0.25q0 -0.171875 0.078125 -0.25q0.09375 -0.09375 0.234375 -0.09375zm4.1792297 2.90625q0 0.40625 -0.109375 0.734375q-0.109375 0.328125 -0.3125 0.546875q-0.203125 0.21875 -0.484375 0.34375q-0.28125 0.109375 -0.640625 0.109375q-0.328125 0 -0.609375 -0.109375q-0.28125 -0.125 -0.484375 -0.34375q-0.203125 -0.21875 -0.3125 -0.546875q-0.109375 -0.328125 -0.109375 -0.734375q0 -0.546875 0.1875 -0.921875q0.1875 -0.390625 0.53125 -0.59375q0.34375 -0.203125 0.8125 -0.203125q0.46875 0 0.796875 0.203125q0.34375 0.203125 0.53125 0.59375q0.203125 0.375 0.203125 0.921875zm-2.53125 0q0 0.40625 0.09375 0.703125q0.109375 0.28125 0.328125 0.453125q0.234375 0.15625 0.578125 0.15625q0.34375 0 0.5625 -0.15625q0.234375 -0.171875 0.328125 -0.453125q0.109375 -0.296875 0.109375 -0.703125q0 -0.390625 -0.109375 -0.671875q-0.09375 -0.296875 -0.328125 -0.453125q-0.21875 -0.171875 -0.5625 -0.171875q-0.53125 0 -0.765625 0.34375q-0.234375 0.34375 -0.234375 0.953125zm4.975342 -1.71875q0.59375 0 0.890625 0.296875q0.3125 0.28125 0.3125 0.921875l0 2.171875l-0.5 0l0 -2.140625q0 -0.40625 -0.203125 -0.609375q-0.1875 -0.21875 -0.578125 -0.21875q-0.546875 0 -0.78125 0.3125q-0.21875 0.3125 -0.21875 0.90625l0 1.75l-0.5 0l0 -3.328125l0.40625 0l0.078125 0.484375l0.03125 0q0.09375 -0.1875 0.25 -0.296875q0.171875 -0.125 0.375 -0.1875q0.203125 -0.0625 0.4375 -0.0625zm5.829468 1.125q0 0.75 -0.265625 1.265625q-0.265625 0.5 -0.796875 0.75q-0.515625 0.25 -1.25 0.25l-1.203125 0l0 -4.4375l1.34375 0q0.671875 0 1.15625 0.25q0.484375 0.25 0.75 0.734375q0.265625 0.484375 0.265625 1.1875zm-0.53125 0.015625q0 -0.59375 -0.203125 -0.984375q-0.203125 -0.390625 -0.59375 -0.578125q-0.375 -0.1875 -0.921875 -0.1875l-0.75 0l0 3.5625l0.625 0q0.921875 0 1.375 -0.453125q0.46875 -0.453125 0.46875 -1.359375zm4.1997375 -1.078125l0 3.328125l-0.421875 0l-0.0625 -0.46875l-0.03125 0q-0.109375 0.171875 -0.28125 0.296875q-0.15625 0.109375 -0.359375 0.171875q-0.203125 0.0625 -0.4375 0.0625q-0.390625 0 -0.65625 -0.125q-0.265625 -0.125 -0.40625 -0.390625q-0.125 -0.28125 -0.125 -0.6875l0 -2.1875l0.5 0l0 2.140625q0 0.421875 0.1875 0.625q0.1875 0.203125 0.578125 0.203125q0.375 0 0.59375 -0.140625q0.21875 -0.140625 0.3125 -0.40625q0.09375 -0.28125 0.09375 -0.671875l0 -1.75l0.515625 0zm2.5794678 -0.0625q0.09375 0 0.203125 0.015625q0.109375 0 0.203125 0.03125l-0.0625 0.46875q-0.09375 -0.03125 -0.203125 -0.03125q-0.09375 -0.015625 -0.171875 -0.015625q-0.203125 0 -0.390625 0.078125q-0.171875 0.078125 -0.3125 0.234375q-0.125 0.140625 -0.203125 0.359375q-0.078125 0.203125 -0.078125 0.46875l0 1.78125l-0.5 0l0 -3.328125l0.421875 0l0.046875 0.609375l0.03125 0q0.09375 -0.1875 0.234375 -0.328125q0.15625 -0.15625 0.34375 -0.25q0.203125 -0.09375 0.4375 -0.09375zm2.27594 0.015625q0.59375 0 0.875 0.265625q0.296875 0.265625 0.296875 0.84375l0 2.265625l-0.375 0l-0.09375 -0.484375l-0.03125 0q-0.140625 0.171875 -0.296875 0.296875q-0.140625 0.125 -0.34375 0.1875q-0.1875 0.0625 -0.484375 0.0625q-0.296875 0 -0.53125 -0.109375q-0.234375 -0.109375 -0.375 -0.3125q-0.140625 -0.21875 -0.140625 -0.546875q0 -0.5 0.390625 -0.765625q0.40625 -0.28125 1.203125 -0.296875l0.578125 -0.03125l0 -0.203125q0 -0.421875 -0.1875 -0.59375q-0.171875 -0.171875 -0.515625 -0.171875q-0.265625 0 -0.5 0.078125q-0.234375 0.0625 -0.453125 0.171875l-0.15625 -0.390625q0.234375 -0.109375 0.515625 -0.1875q0.296875 -0.078125 0.625 -0.078125zm0.671875 1.734375l-0.515625 0.015625q-0.609375 0.03125 -0.875 0.21875q-0.25 0.171875 -0.25 0.5q0 0.28125 0.171875 0.421875q0.171875 0.140625 0.453125 0.140625q0.453125 0 0.734375 -0.25q0.28125 -0.25 0.28125 -0.734375l0 -0.3125zm2.611786 1.28125q0.125 0 0.25 -0.015625q0.125 -0.015625 0.21875 -0.046875l0 0.390625q-0.09375 0.03125 -0.25 0.0625q-0.15625 0.03125 -0.296875 0.03125q-0.265625 0 -0.484375 -0.09375q-0.21875 -0.09375 -0.34375 -0.3125q-0.125 -0.21875 -0.125 -0.609375l0 -1.984375l-0.484375 0l0 -0.234375l0.484375 -0.203125l0.203125 -0.71875l0.296875 0l0 0.765625l0.96875 0l0 0.390625l-0.96875 0l0 1.96875q0 0.3125 0.140625 0.46875q0.140625 0.140625 0.390625 0.140625zm1.6385193 -2.96875l0 3.328125l-0.5 0l0 -3.328125l0.5 0zm-0.234375 -1.25q0.109375 0 0.203125 0.09375q0.09375 0.078125 0.09375 0.25q0 0.15625 -0.09375 0.25q-0.09375 0.078125 -0.203125 0.078125q-0.140625 0 -0.234375 -0.078125q-0.078125 -0.09375 -0.078125 -0.25q0 -0.171875 0.078125 -0.25q0.09375 -0.09375 0.234375 -0.09375zm4.1792297 2.90625q0 0.40625 -0.109375 0.734375q-0.109375 0.328125 -0.3125 0.546875q-0.203125 0.21875 -0.484375 0.34375q-0.28125 0.109375 -0.640625 0.109375q-0.328125 0 -0.609375 -0.109375q-0.28125 -0.125 -0.484375 -0.34375q-0.203125 -0.21875 -0.3125 -0.546875q-0.109375 -0.328125 -0.109375 -0.734375q0 -0.546875 0.1875 -0.921875q0.1875 -0.390625 0.53125 -0.59375q0.34375 -0.203125 0.8125 -0.203125q0.46875 0 0.796875 0.203125q0.34375 0.203125 0.53125 0.59375q0.203125 0.375 0.203125 0.921875zm-2.53125 0q0 0.40625 0.09375 0.703125q0.109375 0.28125 0.328125 0.453125q0.234375 0.15625 0.578125 0.15625q0.34375 0 0.5625 -0.15625q0.234375 -0.171875 0.328125 -0.453125q0.109375 -0.296875 0.109375 -0.703125q0 -0.390625 -0.109375 -0.671875q-0.09375 -0.296875 -0.328125 -0.453125q-0.21875 -0.171875 -0.5625 -0.171875q-0.53125 0 -0.765625 0.34375q-0.234375 0.34375 -0.234375 0.953125zm4.975342 -1.71875q0.59375 0 0.890625 0.296875q0.3125 0.28125 0.3125 0.921875l0 2.171875l-0.5 0l0 -2.140625q0 -0.40625 -0.203125 -0.609375q-0.1875 -0.21875 -0.578125 -0.21875q-0.546875 0 -0.78125 0.3125q-0.21875 0.3125 -0.21875 0.90625l0 1.75l-0.5 0l0 -3.328125l0.40625 0l0.078125 0.484375l0.03125 0q0.09375 -0.1875 0.25 -0.296875q0.171875 -0.125 0.375 -0.1875q0.203125 -0.0625 0.4375 -0.0625z" fill-rule="nonzero"/></g></svg>