<svg version="1.1" viewBox="0.0 0.0 529.4619422572179 237.21259842519686" fill="none" stroke="none" stroke-linecap="square" stroke-miterlimit="10" xmlns:xlink="http://www.w3.org/1999/xlink" xmlns="http://www.w3.org/2000/svg"><clipPath id="p.0"><path d="m0 0l529.4619 0l0 237.2126l-529.4619 0l0 -237.2126z" clip-rule="nonzero"/></clipPath><g clip-path="url(#p.0)"><path fill="#000000" fill-opacity="0.0" d="m0 0l529.4619 0l0 237.2126l-529.4619 0z" fill-rule="evenodd"/><path fill="#5252cf" fill-opacity="0.5136" d="m222.99774 1.7416549l73.38583 0l0 39.937008l-73.38583 0z" fill-rule="evenodd"/><path stroke="#000000" stroke-width="1.0" stroke-linejoin="round" stroke-linecap="butt" d="m222.99774 1.7416549l73.38583 0l0 39.937008l-73.38583 0z" fill-rule="evenodd"/><path fill="#ffffff" d="m241.0042 19.489532l1.453125 0l0.046875 1.6875q0.8125 -0.984375 1.59375 -1.421875q0.796875 -0.4375 1.59375 -0.4375q1.421875 0 2.15625 0.921875q0.734375 0.921875 0.671875 2.734375l-1.59375 0q0.015625 -1.203125 -0.359375 -1.734375q-0.375 -0.546875 -1.109375 -0.546875q-0.3125 0 -0.640625 0.109375q-0.328125 0.109375 -0.671875 0.359375q-0.328125 0.25 -0.71875 0.640625q-0.375 0.390625 -0.8125 0.953125l0 5.875l-1.609375 0l0 -9.140625zm17.851059 4.5q0 1.0625 -0.3125 1.953125q-0.296875 0.890625 -0.859375 1.53125q-0.5625 0.625 -1.375 0.96875q-0.81251526 0.34375 -1.8437653 0.34375q-0.984375 0 -1.765625 -0.296875q-0.765625 -0.3125 -1.3125 -0.890625q-0.546875 -0.59375 -0.828125 -1.46875q-0.28125 -0.875 -0.28125 -2.015625q0 -1.0625 0.296875 -1.9375q0.296875 -0.890625 0.859375 -1.515625q0.5625 -0.640625 1.375 -0.984375q0.8125 -0.359375 1.84375 -0.359375q0.984375 0 1.7656403 0.3125q0.78125 0.296875 1.3125 0.890625q0.546875 0.578125 0.828125 1.453125q0.296875 0.875 0.296875 2.015625zm-1.625 0.0625q0 -0.84375 -0.1875 -1.46875q-0.1875 -0.640625 -0.53125 -1.0625q-0.34375 -0.421875 -0.84376526 -0.640625q-0.5 -0.21875 -1.109375 -0.21875q-0.703125 0 -1.21875 0.28125q-0.5 0.28125 -0.828125 0.75q-0.3125 0.453125 -0.46875 1.078125q-0.15625 0.609375 -0.15625 1.28125q0 0.859375 0.1875 1.5q0.1875 0.625 0.53125 1.046875q0.359375 0.421875 0.84375 0.640625q0.5 0.21875 1.109375 0.21875q0.71875 0 1.21875 -0.28125q0.50001526 -0.28125 0.82814026 -0.734375q0.328125 -0.46875 0.46875 -1.078125q0.15625 -0.625 0.15625 -1.3125zm11.882294 -0.0625q0 1.0625 -0.3125 1.953125q-0.296875 0.890625 -0.859375 1.53125q-0.5625 0.625 -1.375 0.96875q-0.8125 0.34375 -1.84375 0.34375q-0.984375 0 -1.765625 -0.296875q-0.765625 -0.3125 -1.3125 -0.890625q-0.546875 -0.59375 -0.828125 -1.46875q-0.28125 -0.875 -0.28125 -2.015625q0 -1.0625 0.296875 -1.9375q0.296875 -0.890625 0.859375 -1.515625q0.5625 -0.640625 1.375 -0.984375q0.8125 -0.359375 1.84375 -0.359375q0.984375 0 1.765625 0.3125q0.78125 0.296875 1.3125 0.890625q0.546875 0.578125 0.828125 1.453125q0.296875 0.875 0.296875 2.015625zm-1.625 0.0625q0 -0.84375 -0.1875 -1.46875q-0.1875 -0.640625 -0.53125 -1.0625q-0.34375 -0.421875 -0.84375 -0.640625q-0.5 -0.21875 -1.109375 -0.21875q-0.703125 0 -1.21875 0.28125q-0.5 0.28125 -0.828125 0.75q-0.3125 0.453125 -0.46875 1.078125q-0.15625 0.609375 -0.15625 1.28125q0 0.859375 0.1875 1.5q0.1875 0.625 0.53125 1.046875q0.359375 0.421875 0.84375 0.640625q0.5 0.21875 1.109375 0.21875q0.71875 0 1.21875 -0.28125q0.5 -0.28125 0.828125 -0.734375q0.328125 -0.46875 0.46875 -1.078125q0.15625 -0.625 0.15625 -1.3125zm11.288544 4.453125q-0.53125 0.140625 -1.109375 0.1875q-0.578125 0.0625 -1.171875 0.0625q-1.71875 0 -2.5625 -0.78125q-0.84375 -0.78125 -0.84375 -2.390625l0 -4.765625l-2.5625 0l0 -1.328125l2.5625 0l0 -2.515625l1.578125 -0.40625l0 2.921875l4.109375 0l0 1.328125l-4.109375 0l0 4.640625q0 0.984375 0.515625 1.46875q0.53125 0.484375 1.546875 0.484375q0.4375 0 0.953125 -0.0625q0.53125 -0.0625 1.09375 -0.21875l0 1.375z" fill-rule="nonzero"/><path fill="#5252cf" fill-opacity="0.5136" d="m16.961004 105.038246l73.385826 0l0 39.937004l-73.385826 0z" fill-rule="evenodd"/><path stroke="#000000" stroke-width="1.0" stroke-linejoin="round" stroke-linecap="butt" d="m16.961004 105.038246l73.385826 0l0 39.937004l-73.385826 0z" fill-rule="evenodd"/><path fill="#ffffff" d="m42.326828 131.92674l-7.84375 0l0 -1.421875l3.078125 -3.0625q0.75 -0.75 1.21875 -1.296875q0.484375 -0.546875 0.75 -0.984375q0.265625 -0.453125 0.34375 -0.859375q0.09375 -0.40625 0.09375 -0.859375q0 -0.4375 -0.125 -0.828125q-0.109375 -0.40625 -0.359375 -0.703125q-0.234375 -0.3125 -0.640625 -0.484375q-0.390625 -0.171875 -0.9375 -0.171875q-0.75 0 -1.375 0.34375q-0.609375 0.328125 -1.125 0.875l-0.875 -1.046875q0.671875 -0.71875 1.546875 -1.140625q0.875 -0.421875 2.046875 -0.421875q0.796875 0 1.4375 0.234375q0.65625 0.234375 1.125 0.6875q0.484375 0.4375 0.734375 1.09375q0.265625 0.640625 0.265625 1.453125q0 0.671875 -0.1875 1.265625q-0.171875 0.578125 -0.546875 1.15625q-0.375 0.578125 -0.9375 1.203125q-0.546875 0.609375 -1.3125 1.359375l-2.171875 2.09375l5.796875 0l0 1.515625zm10.522919 -5.953125q0 1.375 -0.28125 2.5q-0.265625 1.125 -0.828125 1.9375q-0.546875 0.796875 -1.375 1.234375q-0.8125 0.4375 -1.9375 0.4375q-0.953125 0 -1.734375 -0.359375q-0.78125 -0.359375 -1.34375 -1.09375q-0.546875 -0.75 -0.859375 -1.90625q-0.296875 -1.15625 -0.296875 -2.75q0 -1.359375 0.28125 -2.484375q0.28125 -1.140625 0.828125 -1.9375q0.546875 -0.8125 1.375 -1.25q0.84375 -0.4375 1.9375 -0.4375q0.953125 0 1.734375 0.359375q0.796875 0.359375 1.34375 1.109375q0.5625 0.75 0.859375 1.90625q0.296875 1.15625 0.296875 2.734375zm-1.59375 0.0625q0 -0.3125 -0.03125 -0.609375q-0.015625 -0.3125 -0.046875 -0.609375l-5.046875 3.75q0.140625 0.46875 0.34375 0.875q0.21875 0.390625 0.515625 0.6875q0.296875 0.28125 0.671875 0.453125q0.375 0.15625 0.859375 0.15625q0.625 0 1.125 -0.296875q0.515625 -0.3125 0.859375 -0.90625q0.359375 -0.59375 0.546875 -1.46875q0.203125 -0.875 0.203125 -2.03125zm-5.453125 -0.109375q0 0.28125 0 0.5625q0 0.28125 0.03125 0.546875l5.046875 -3.734375q-0.140625 -0.453125 -0.359375 -0.828125q-0.203125 -0.390625 -0.5 -0.671875q-0.28125 -0.28125 -0.65625 -0.4375q-0.375 -0.15625 -0.84375 -0.15625q-0.609375 0 -1.125 0.3125q-0.5 0.296875 -0.859375 0.890625q-0.359375 0.59375 -0.546875 1.484375q-0.1875 0.875 -0.1875 2.03125zm17.038544 6.0l-7.84375 0l0 -1.421875l3.078125 -3.0625q0.75 -0.75 1.21875 -1.296875q0.484375 -0.546875 0.75 -0.984375q0.265625 -0.453125 0.34375 -0.859375q0.09375 -0.40625 0.09375 -0.859375q0 -0.4375 -0.125 -0.828125q-0.109375 -0.40625 -0.359375 -0.703125q-0.234375 -0.3125 -0.640625 -0.484375q-0.390625 -0.171875 -0.9375 -0.171875q-0.75 0 -1.375 0.34375q-0.609375 0.328125 -1.125 0.875l-0.875 -1.046875q0.671875 -0.71875 1.546875 -1.140625q0.875 -0.421875 2.046875 -0.421875q0.796875 0 1.4375 0.234375q0.65625 0.234375 1.125 0.6875q0.484375 0.4375 0.734375 1.09375q0.265625 0.640625 0.265625 1.453125q0 0.671875 -0.1875 1.265625q-0.171875 0.578125 -0.546875 1.15625q-0.375 0.578125 -0.9375 1.203125q-0.546875 0.609375 -1.3125 1.359375l-2.171875 2.09375l5.796875 0l0 1.515625zm10.851044 -2.625l-2.03125 0l0 2.625l-1.625 0l0 -2.625l-5.734375 0l0 -1.40625l5.078125 -7.875l2.28125 0l0 7.875l2.03125 0l0 1.40625zm-3.65625 -7.75l-4.140625 6.34375l4.140625 0l0 -6.34375z" fill-rule="nonzero"/><path fill="#5252cf" fill-opacity="0.5136" d="m196.51744 105.038246l73.38582 0l0 39.937004l-73.38582 0z" fill-rule="evenodd"/><path stroke="#000000" stroke-width="1.0" stroke-linejoin="round" stroke-linecap="butt" d="m196.51744 105.038246l73.38582 0l0 39.937004l-73.38582 0z" fill-rule="evenodd"/><path fill="#ffffff" d="m221.88326 131.92674l-7.84375 0l0 -1.421875l3.078125 -3.0625q0.75 -0.75 1.21875 -1.296875q0.484375 -0.546875 0.75 -0.984375q0.265625 -0.453125 0.34375 -0.859375q0.09375 -0.40625 0.09375 -0.859375q0 -0.4375 -0.125 -0.828125q-0.109375 -0.40625 -0.359375 -0.703125q-0.234375 -0.3125 -0.640625 -0.484375q-0.390625 -0.171875 -0.9375 -0.171875q-0.75 0 -1.375 0.34375q-0.609375 0.328125 -1.125 0.875l-0.875 -1.046875q0.671875 -0.71875 1.546875 -1.140625q0.875 -0.421875 2.046875 -0.421875q0.796875 0 1.4375 0.234375q0.65625 0.234375 1.125 0.6875q0.484375 0.4375 0.734375 1.09375q0.265625 0.640625 0.265625 1.453125q0 0.671875 -0.1875 1.265625q-0.171875 0.578125 -0.546875 1.15625q-0.375 0.578125 -0.9375 1.203125q-0.546875 0.609375 -1.3125 1.359375l-2.171875 2.09375l5.796875 0l0 1.515625zm10.522919 -5.953125q0 1.375 -0.28125 2.5q-0.265625 1.125 -0.828125 1.9375q-0.546875 0.796875 -1.375 1.234375q-0.8125 0.4375 -1.9375 0.4375q-0.953125 0 -1.734375 -0.359375q-0.78125 -0.359375 -1.34375 -1.09375q-0.546875 -0.75 -0.859375 -1.90625q-0.296875 -1.15625 -0.296875 -2.75q0 -1.359375 0.28125 -2.484375q0.28125 -1.140625 0.828125 -1.9375q0.546875 -0.8125 1.375 -1.25q0.84375 -0.4375 1.9375 -0.4375q0.953125 0 1.734375 0.359375q0.796875 0.359375 1.34375 1.109375q0.5625 0.75 0.859375 1.90625q0.296875 1.15625 0.296875 2.734375zm-1.59375 0.0625q0 -0.3125 -0.03125 -0.609375q-0.015625 -0.3125 -0.046875 -0.609375l-5.046875 3.75q0.140625 0.46875 0.34375 0.875q0.21875 0.390625 0.515625 0.6875q0.296875 0.28125 0.671875 0.453125q0.375 0.15625 0.859375 0.15625q0.625 0 1.125 -0.296875q0.515625 -0.3125 0.859375 -0.90625q0.359375 -0.59375 0.546875 -1.46875q0.203125 -0.875 0.203125 -2.03125zm-5.453125 -0.109375q0 0.28125 0 0.5625q0 0.28125 0.03125 0.546875l5.046875 -3.734375q-0.140625 -0.453125 -0.359375 -0.828125q-0.203125 -0.390625 -0.5 -0.671875q-0.28125 -0.28125 -0.65625 -0.4375q-0.375 -0.15625 -0.84375 -0.15625q-0.609375 0 -1.125 0.3125q-0.5 0.296875 -0.859375 0.890625q-0.359375 0.59375 -0.546875 1.484375q-0.1875 0.875 -0.1875 2.03125zm17.038544 6.0l-7.84375 0l0 -1.421875l3.078125 -3.0625q0.75 -0.75 1.21875 -1.296875q0.484375 -0.546875 0.75 -0.984375q0.265625 -0.453125 0.34375 -0.859375q0.09375 -0.40625 0.09375 -0.859375q0 -0.4375 -0.125 -0.828125q-0.109375 -0.40625 -0.359375 -0.703125q-0.234375 -0.3125 -0.640625 -0.484375q-0.390625 -0.171875 -0.9375 -0.171875q-0.75 0 -1.375 0.34375q-0.609375 0.328125 -1.125 0.875l-0.875 -1.046875q0.671875 -0.71875 1.546875 -1.140625q0.875 -0.421875 2.046875 -0.421875q0.796875 0 1.4375 0.234375q0.65625 0.234375 1.125 0.6875q0.484375 0.4375 0.734375 1.09375q0.265625 0.640625 0.265625 1.453125q0 0.671875 -0.1875 1.265625q-0.171875 0.578125 -0.546875 1.15625q-0.375 0.578125 -0.9375 1.203125q-0.546875 0.609375 -1.3125 1.359375l-2.171875 2.09375l5.796875 0l0 1.515625zm9.944794 -3.8125q0 0.890625 -0.390625 1.625q-0.375 0.71875 -1.046875 1.25q-0.65625 0.515625 -1.578125 0.8125q-0.90625 0.28125 -1.953125 0.28125q-0.265625 0 -0.578125 -0.015625q-0.296875 0 -0.609375 -0.03125q-0.296875 -0.015625 -0.59375 -0.046875q-0.28125 -0.03125 -0.5 -0.0625l0 -1.4375q0.484375 0.109375 1.109375 0.171875q0.640625 0.046875 1.296875 0.046875q0.71875 0 1.296875 -0.171875q0.59375 -0.171875 1.0 -0.484375q0.40625 -0.328125 0.625 -0.78125q0.21875 -0.46875 0.21875 -1.046875q0 -1.109375 -0.796875 -1.609375q-0.796875 -0.515625 -2.28125 -0.515625l-2.265625 0l0 -6.078125l6.421875 0l0 1.390625l-4.921875 0l0 3.34375l1.03125 0q0.859375 0 1.671875 0.15625q0.8125 0.140625 1.4375 0.53125q0.640625 0.390625 1.015625 1.046875q0.390625 0.640625 0.390625 1.625z" fill-rule="nonzero"/><path fill="#5252cf" fill-opacity="0.5136" d="m390.5778 105.04481l73.38583 0l0 39.937004l-73.38583 0z" fill-rule="evenodd"/><path stroke="#000000" stroke-width="1.0" stroke-linejoin="round" stroke-linecap="butt" d="m390.5778 105.04481l73.38583 0l0 39.937004l-73.38583 0z" fill-rule="evenodd"/><path fill="#ffffff" d="m415.94363 131.9333l-7.84375 0l0 -1.421875l3.078125 -3.0625q0.75 -0.75 1.21875 -1.296875q0.484375 -0.546875 0.75 -0.984375q0.265625 -0.453125 0.34375 -0.859375q0.09375 -0.40625 0.09375 -0.859375q0 -0.4375 -0.125 -0.828125q-0.109375 -0.40625 -0.359375 -0.703125q-0.234375 -0.3125 -0.640625 -0.484375q-0.390625 -0.171875 -0.9375 -0.171875q-0.75 0 -1.375 0.34375q-0.609375 0.328125 -1.125 0.875l-0.875 -1.046875q0.671875 -0.71875 1.546875 -1.140625q0.875 -0.421875 2.046875 -0.421875q0.796875 0 1.4375 0.234375q0.65625 0.234375 1.125 0.6875q0.484375 0.4375 0.734375 1.09375q0.265625 0.640625 0.265625 1.453125q0 0.671875 -0.1875 1.265625q-0.171875 0.578125 -0.546875 1.15625q-0.375 0.578125 -0.9375 1.203125q-0.546875 0.609375 -1.3125 1.359375l-2.171875 2.09375l5.796875 0l0 1.515625zm10.522919 -5.953125q0 1.375 -0.28125 2.5q-0.265625 1.125 -0.828125 1.9375q-0.546875 0.796875 -1.375 1.234375q-0.8125 0.4375 -1.9375 0.4375q-0.953125 0 -1.734375 -0.359375q-0.78125 -0.359375 -1.34375 -1.09375q-0.546875 -0.75 -0.859375 -1.90625q-0.296875 -1.15625 -0.296875 -2.75q0 -1.359375 0.28125 -2.484375q0.28125 -1.140625 0.828125 -1.9375q0.546875 -0.8125 1.375 -1.25q0.84375 -0.4375 1.9375 -0.4375q0.953125 0 1.734375 0.359375q0.796875 0.359375 1.34375 1.109375q0.5625 0.75 0.859375 1.90625q0.296875 1.15625 0.296875 2.734375zm-1.59375 0.0625q0 -0.3125 -0.03125 -0.609375q-0.015625 -0.3125 -0.046875 -0.609375l-5.046875 3.75q0.140625 0.46875 0.34375 0.875q0.21875 0.390625 0.515625 0.6875q0.296875 0.28125 0.671875 0.453125q0.375 0.15625 0.859375 0.15625q0.625 0 1.125 -0.296875q0.515625 -0.3125 0.859375 -0.90625q0.359375 -0.59375 0.546875 -1.46875q0.203125 -0.875 0.203125 -2.03125zm-5.453125 -0.109375q0 0.28125 0 0.5625q0 0.28125 0.03125 0.546875l5.046875 -3.734375q-0.140625 -0.453125 -0.359375 -0.828125q-0.203125 -0.390625 -0.5 -0.671875q-0.28125 -0.28125 -0.65625 -0.4375q-0.375 -0.15625 -0.84375 -0.15625q-0.609375 0 -1.125 0.3125q-0.5 0.296875 -0.859375 0.890625q-0.359375 0.59375 -0.546875 1.484375q-0.1875 0.875 -0.1875 2.03125zm17.038544 6.0l-7.84375 0l0 -1.421875l3.078125 -3.0625q0.75 -0.75 1.21875 -1.296875q0.484375 -0.546875 0.75 -0.984375q0.265625 -0.453125 0.34375 -0.859375q0.09375 -0.40625 0.09375 -0.859375q0 -0.4375 -0.125 -0.828125q-0.109375 -0.40625 -0.359375 -0.703125q-0.234375 -0.3125 -0.640625 -0.484375q-0.390625 -0.171875 -0.9375 -0.171875q-0.75 0 -1.375 0.34375q-0.609375 0.328125 -1.125 0.875l-0.875 -1.046875q0.671875 -0.71875 1.546875 -1.140625q0.875 -0.421875 2.046875 -0.421875q0.796875 0 1.4375 0.234375q0.65625 0.234375 1.125 0.6875q0.484375 0.4375 0.734375 1.09375q0.265625 0.640625 0.265625 1.453125q0 0.671875 -0.1875 1.265625q-0.171875 0.578125 -0.546875 1.15625q-0.375 0.578125 -0.9375 1.203125q-0.546875 0.609375 -1.3125 1.359375l-2.171875 2.09375l5.796875 0l0 1.515625zm10.397919 -3.765625q0 0.8125 -0.296875 1.53125q-0.296875 0.71875 -0.84375 1.25q-0.546875 0.53125 -1.3125 0.84375q-0.765625 0.296875 -1.703125 0.296875q-0.984375 0 -1.75 -0.3125q-0.75 -0.3125 -1.265625 -0.953125q-0.5 -0.65625 -0.765625 -1.640625q-0.265625 -1.0 -0.265625 -2.359375q0 -0.90625 0.109375 -1.765625q0.125 -0.859375 0.390625 -1.609375q0.28125 -0.765625 0.734375 -1.390625q0.453125 -0.625 1.125 -1.078125q0.6875 -0.453125 1.609375 -0.703125q0.921875 -0.25 2.125 -0.25l1.1875 0l0 1.390625l-1.28125 0q-1.0625 0 -1.859375 0.25q-0.78125 0.25 -1.3125 0.71875q-0.515625 0.46875 -0.796875 1.125q-0.28125 0.65625 -0.359375 1.46875l-0.03125 0.359375q0.5625 -0.328125 1.3125 -0.53125q0.765625 -0.203125 1.640625 -0.203125q0.890625 0 1.5625 0.265625q0.6875 0.25 1.140625 0.734375q0.453125 0.46875 0.671875 1.125q0.234375 0.640625 0.234375 1.4375zm-1.65625 0.09375q0 -0.546875 -0.140625 -0.984375q-0.125 -0.4375 -0.40625 -0.75q-0.28125 -0.3125 -0.71875 -0.46875q-0.4375 -0.171875 -1.03125 -0.171875q-0.34375 0 -0.703125 0.0625q-0.359375 0.0625 -0.703125 0.1875q-0.328125 0.109375 -0.640625 0.25q-0.3125 0.140625 -0.5625 0.3125q0 1.171875 0.15625 1.96875q0.171875 0.78125 0.484375 1.25q0.328125 0.46875 0.796875 0.671875q0.484375 0.203125 1.09375 0.203125q0.53125 0 0.953125 -0.15625q0.4375 -0.171875 0.75 -0.5q0.3125 -0.328125 0.484375 -0.796875q0.1875 -0.46875 0.1875 -1.078125z" fill-rule="nonzero"/><path fill="#000000" fill-opacity="0.0" d="m259.69067 41.67866c0 15.839985 -51.511826 23.758709 -103.023636 31.679974c-51.51181 7.921257 -103.02362 15.845055 -103.02362 31.69011" fill-rule="evenodd"/><path stroke="#5252cf" stroke-width="1.0" stroke-linejoin="round" stroke-linecap="butt" d="m259.69064 41.67866c0 15.839989 -51.511795 23.758709 -103.023605 31.679974c-25.755905 3.9606247 -51.51181 7.9218903 -70.82874 12.873627c-9.658463 2.4758682 -17.707176 5.1993637 -23.341282 8.294197c-2.8170547 1.5474243 -5.0304527 3.1876678 -6.539589 4.9362335l-0.031139374 0.03730774" fill-rule="evenodd"/><path fill="#5252cf" stroke="#5252cf" stroke-width="1.0" stroke-linecap="butt" d="m54.39878 98.87155l-0.19914246 4.8252335l3.2541542 -3.5683365z" fill-rule="evenodd"/><path fill="#000000" fill-opacity="0.0" d="m259.69067 41.67866c0 15.839985 -6.622055 23.758709 -13.24411 31.679974c-6.62204 7.921257 -13.244095 15.845055 -13.244095 31.69011" fill-rule="evenodd"/><path stroke="#5252cf" stroke-width="1.0" stroke-linejoin="round" stroke-linecap="butt" d="m259.69064 41.67866c0 15.839989 -6.62204 23.758709 -13.24408 31.679974c-3.31102 3.9606247 -6.622055 7.9218903 -9.105316 12.873627c-1.2416382 2.4758682 -2.2763214 5.1993637 -3.0006104 8.294197c-0.18106079 0.7737045 -0.34274292 1.5706253 -0.48339844 2.3926926c-0.07032776 0.411026 -0.13539124 0.8283386 -0.19502258 1.252182c-0.029800415 0.21192169 -0.058258057 0.4254837 -0.08529663 0.64069366l-0.029190063 0.24665833" fill-rule="evenodd"/><path fill="#5252cf" stroke="#5252cf" stroke-width="1.0" stroke-linecap="butt" d="m231.89874 98.96364l1.3878479 4.6256256l1.910141 -4.4355316z" fill-rule="evenodd"/><path fill="#000000" fill-opacity="0.0" d="m259.69067 41.67866c0 15.841572 41.897614 23.761883 83.79526 31.68314c41.897644 7.921257 83.79529 15.843468 83.79529 31.686943" fill-rule="evenodd"/><path stroke="#5252cf" stroke-width="1.0" stroke-linejoin="round" stroke-linecap="butt" d="m259.69064 41.67866c0 15.841572 41.897644 23.761875 83.79529 31.68314c20.948822 3.9606323 41.897644 7.9214935 57.609253 12.872635c7.8558044 2.4755783 14.402313 5.198715 18.984863 8.293182c1.1456299 0.773613 2.168518 1.5704346 3.0584412 2.3924026c0.4449768 0.41098785 0.85665894 0.8282547 1.2338867 1.2520523c0.18856812 0.2118988 0.3685608 0.42541504 0.5397339 0.64060974c0.08560181 0.10760498 0.16897583 0.21561432 0.25012207 0.32404327l0.17175293 0.23677826" fill-rule="evenodd"/><path fill="#5252cf" stroke="#5252cf" stroke-width="1.0" stroke-linecap="butt" d="m423.77164 99.90955l3.0351257 3.7564163l0.089538574 -4.828514z" fill-rule="evenodd"/><path fill="#5252cf" fill-opacity="0.5136" d="m354.13162 178.98444l42.771637 0l0 39.93701l-42.771637 0z" fill-rule="evenodd"/><path stroke="#000000" stroke-width="1.0" stroke-linejoin="round" stroke-linecap="butt" d="m354.13162 178.98444l42.771637 0l0 39.93701l-42.771637 0z" fill-rule="evenodd"/><path fill="#ffffff" d="m374.71326 199.91982q0 1.375 -0.28125 2.5q-0.265625 1.125 -0.828125 1.9375q-0.546875 0.796875 -1.375 1.234375q-0.8125 0.4375 -1.9375 0.4375q-0.953125 0 -1.734375 -0.359375q-0.78125 -0.359375 -1.34375 -1.09375q-0.546875 -0.75 -0.859375 -1.90625q-0.296875 -1.15625 -0.296875 -2.75q0 -1.359375 0.28125 -2.484375q0.28125 -1.140625 0.828125 -1.9375q0.546875 -0.8125 1.375 -1.25q0.84375 -0.4375 1.9375 -0.4375q0.953125 0 1.734375 0.359375q0.796875 0.359375 1.34375 1.109375q0.5625 0.75 0.859375 1.90625q0.296875 1.15625 0.296875 2.734375zm-1.59375 0.0625q0 -0.3125 -0.03125 -0.609375q-0.015625 -0.3125 -0.046875 -0.609375l-5.046875 3.75q0.140625 0.46875 0.34375 0.875q0.21875 0.390625 0.515625 0.6875q0.296875 0.28125 0.671875 0.453125q0.375 0.15625 0.859375 0.15625q0.625 0 1.125 -0.296875q0.515625 -0.3125 0.859375 -0.90625q0.359375 -0.59375 0.546875 -1.46875q0.203125 -0.875 0.203125 -2.03125zm-5.453125 -0.109375q0 0.28125 0 0.5625q0 0.28125 0.03125 0.546875l5.046875 -3.734375q-0.140625 -0.453125 -0.359375 -0.828125q-0.203125 -0.390625 -0.5 -0.671875q-0.28125 -0.28125 -0.65625 -0.4375q-0.375 -0.15625 -0.84375 -0.15625q-0.609375 0 -1.125 0.3125q-0.5 0.296875 -0.859375 0.890625q-0.359375 0.59375 -0.546875 1.484375q-0.1875 0.875 -0.1875 2.03125zm16.929169 6.0l-7.46875 0l0 -1.46875l3.0625 0l0 -8.703125l-2.859375 1.546875l-0.578125 -1.34375l3.78125 -1.984375l1.40625 0l0 10.484375l2.65625 0l0 1.46875z" fill-rule="nonzero"/><path fill="#5252cf" fill-opacity="0.5136" d="m405.8849 178.98444l42.771667 0l0 39.93701l-42.771667 0z" fill-rule="evenodd"/><path stroke="#000000" stroke-width="1.0" stroke-linejoin="round" stroke-linecap="butt" d="m405.8849 178.98444l42.771667 0l0 39.93701l-42.771667 0z" fill-rule="evenodd"/><path fill="#ffffff" d="m420.11447 205.87294l0 -1.875l1.875 0l0 1.875l-1.875 0zm6.234375 0l0 -1.875l1.859375 0l0 1.875l-1.859375 0zm6.203125 0l0 -1.875l1.875 0l0 1.875l-1.875 0z" fill-rule="nonzero"/><path fill="#5252cf" fill-opacity="0.5136" d="m457.63818 178.98444l42.771637 0l0 39.93701l-42.771637 0z" fill-rule="evenodd"/><path stroke="#000000" stroke-width="1.0" stroke-linejoin="round" stroke-linecap="butt" d="m457.63818 178.98444l42.771637 0l0 39.93701l-42.771637 0z" fill-rule="evenodd"/><path fill="#ffffff" d="m478.21982 199.91982q0 1.375 -0.28125 2.5q-0.265625 1.125 -0.828125 1.9375q-0.546875 0.796875 -1.375 1.234375q-0.8125 0.4375 -1.9375 0.4375q-0.953125 0 -1.734375 -0.359375q-0.78125 -0.359375 -1.34375 -1.09375q-0.546875 -0.75 -0.859375 -1.90625q-0.296875 -1.15625 -0.296875 -2.75q0 -1.359375 0.28125 -2.484375q0.28125 -1.140625 0.828125 -1.9375q0.546875 -0.8125 1.375 -1.25q0.84375 -0.4375 1.9375 -0.4375q0.953125 0 1.734375 0.359375q0.796875 0.359375 1.34375 1.109375q0.5625 0.75 0.859375 1.90625q0.296875 1.15625 0.296875 2.734375zm-1.59375 0.0625q0 -0.3125 -0.03125 -0.609375q-0.015625 -0.3125 -0.046875 -0.609375l-5.046875 3.75q0.140625 0.46875 0.34375 0.875q0.21875 0.390625 0.515625 0.6875q0.296875 0.28125 0.671875 0.453125q0.375 0.15625 0.859375 0.15625q0.625 0 1.125 -0.296875q0.515625 -0.3125 0.859375 -0.90625q0.359375 -0.59375 0.546875 -1.46875q0.203125 -0.875 0.203125 -2.03125zm-5.453125 -0.109375q0 0.28125 0 0.5625q0 0.28125 0.03125 0.546875l5.046875 -3.734375q-0.140625 -0.453125 -0.359375 -0.828125q-0.203125 -0.390625 -0.5 -0.671875q-0.28125 -0.28125 -0.65625 -0.4375q-0.375 -0.15625 -0.84375 -0.15625q-0.609375 0 -1.125 0.3125q-0.5 0.296875 -0.859375 0.890625q-0.359375 0.59375 -0.546875 1.484375q-0.1875 0.875 -0.1875 2.03125zm16.726044 2.1875q0 0.890625 -0.390625 1.625q-0.375 0.71875 -1.046875 1.25q-0.65625 0.515625 -1.578125 0.8125q-0.90625 0.28125 -1.953125 0.28125q-0.265625 0 -0.578125 -0.015625q-0.296875 0 -0.609375 -0.03125q-0.296875 -0.015625 -0.59375 -0.046875q-0.28125 -0.03125 -0.5 -0.0625l0 -1.4375q0.484375 0.109375 1.109375 0.171875q0.640625 0.046875 1.296875 0.046875q0.71875 0 1.296875 -0.171875q0.59375 -0.171875 1.0 -0.484375q0.40625 -0.328125 0.625 -0.78125q0.21875 -0.46875 0.21875 -1.046875q0 -1.109375 -0.796875 -1.609375q-0.796875 -0.515625 -2.28125 -0.515625l-2.265625 0l0 -6.078125l6.421875 0l0 1.390625l-4.921875 0l0 3.34375l1.03125 0q0.859375 0 1.671875 0.15625q0.8125 0.140625 1.4375 0.53125q0.640625 0.390625 1.015625 1.046875q0.390625 0.640625 0.390625 1.625z" fill-rule="nonzero"/><path fill="#000000" fill-opacity="0.0" d="m427.27072 144.98181c0 8.500702 -12.937012 12.749451 -25.874023 17.00142c-12.937012 4.2519684 -25.874023 8.507156 -25.874023 17.014328" fill-rule="evenodd"/><path stroke="#5252cf" stroke-width="1.0" stroke-linejoin="round" stroke-linecap="butt" d="m427.27072 144.98181c0 8.500702 -12.937012 12.749451 -25.874023 17.00142c-6.468506 2.1259766 -12.937012 4.252777 -17.788391 6.9114685c-2.4256897 1.3293457 -4.4470825 2.7916565 -5.862091 4.4533386l-0.04763794 0.05796814" fill-rule="evenodd"/><path fill="#5252cf" stroke="#5252cf" stroke-width="1.0" stroke-linecap="butt" d="m376.15927 172.807l-0.10644531 4.828171l3.185028 -3.6301727z" fill-rule="evenodd"/><path fill="#000000" fill-opacity="0.0" d="m427.27072 144.98181c0 8.500702 0.01574707 12.749451 0.03149414 17.00142c0.01574707 4.2519684 0.03149414 8.507156 0.03149414 17.014328" fill-rule="evenodd"/><path stroke="#5252cf" stroke-width="1.0" stroke-linejoin="round" stroke-linecap="butt" d="m427.27072 144.98181c0 8.500702 0.01574707 12.749451 0.03149414 17.00142c0.007873535 2.1259766 0.01574707 4.252777 0.021636963 6.9114685l0.0065612793 4.1028595" fill-rule="evenodd"/><path fill="#5252cf" stroke="#5252cf" stroke-width="1.0" stroke-linecap="butt" d="m425.6787 172.99846l1.6542053 4.537201l1.6492615 -4.5390015z" fill-rule="evenodd"/><path fill="#000000" fill-opacity="0.0" d="m427.27072 144.98181c0 8.500702 12.937012 12.749451 25.874023 17.00142c12.936981 4.2519684 25.873993 8.507156 25.873993 17.014328" fill-rule="evenodd"/><path stroke="#5252cf" stroke-width="1.0" stroke-linejoin="round" stroke-linecap="butt" d="m427.27072 144.98181c0 8.500702 12.937012 12.749451 25.873993 17.00142c6.468506 2.1259766 12.937012 4.252777 17.788391 6.9114685c2.4256897 1.3293457 4.447113 2.7916565 5.862091 4.4533386l0.04763794 0.05796814" fill-rule="evenodd"/><path fill="#5252cf" stroke="#5252cf" stroke-width="1.0" stroke-linecap="butt" d="m475.30356 174.005l3.185028 3.6301727l-0.10644531 -4.828171z" fill-rule="evenodd"/><path fill="#5252cf" fill-opacity="0.5136" d="m160.07124 178.98312l42.771652 0l0 39.93701l-42.771652 0z" fill-rule="evenodd"/><path stroke="#000000" stroke-width="1.0" stroke-linejoin="round" stroke-linecap="butt" d="m160.07124 178.98312l42.771652 0l0 39.93701l-42.771652 0z" fill-rule="evenodd"/><path fill="#ffffff" d="m180.6529 199.9185q0 1.375 -0.28125 2.5q-0.265625 1.125 -0.828125 1.9375q-0.546875 0.796875 -1.375 1.234375q-0.8125 0.4375 -1.9375 0.4375q-0.953125 0 -1.734375 -0.359375q-0.78125 -0.359375 -1.34375 -1.09375q-0.546875 -0.75 -0.859375 -1.90625q-0.296875 -1.15625 -0.296875 -2.75q0 -1.359375 0.28125 -2.484375q0.28125 -1.140625 0.828125 -1.9375q0.546875 -0.8125 1.375 -1.25q0.84375 -0.4375 1.9375 -0.4375q0.953125 0 1.734375 0.359375q0.796875 0.359375 1.34375 1.109375q0.5625 0.75 0.859375 1.90625q0.296875 1.15625 0.296875 2.734375zm-1.59375 0.0625q0 -0.3125 -0.03125 -0.609375q-0.015625 -0.3125 -0.046875 -0.609375l-5.046875 3.75q0.140625 0.46875 0.34375 0.875q0.21875 0.390625 0.515625 0.6875q0.296875 0.28125 0.671875 0.453125q0.375 0.15625 0.859375 0.15625q0.625 0 1.125 -0.296875q0.515625 -0.3125 0.859375 -0.90625q0.359375 -0.59375 0.546875 -1.46875q0.203125 -0.875 0.203125 -2.03125zm-5.453125 -0.109375q0 0.28125 0 0.5625q0 0.28125 0.03125 0.546875l5.046875 -3.734375q-0.140625 -0.453125 -0.359375 -0.828125q-0.203125 -0.390625 -0.5 -0.671875q-0.28125 -0.28125 -0.65625 -0.4375q-0.375 -0.15625 -0.84375 -0.15625q-0.609375 0 -1.125 0.3125q-0.5 0.296875 -0.859375 0.890625q-0.359375 0.59375 -0.546875 1.484375q-0.1875 0.875 -0.1875 2.03125zm16.929169 6.0l-7.46875 0l0 -1.46875l3.0625 0l0 -8.703125l-2.859375 1.546875l-0.578125 -1.34375l3.78125 -1.984375l1.40625 0l0 10.484375l2.65625 0l0 1.46875z" fill-rule="nonzero"/><path fill="#5252cf" fill-opacity="0.5136" d="m211.82452 178.98312l42.771652 0l0 39.93701l-42.771652 0z" fill-rule="evenodd"/><path stroke="#000000" stroke-width="1.0" stroke-linejoin="round" stroke-linecap="butt" d="m211.82452 178.98312l42.771652 0l0 39.93701l-42.771652 0z" fill-rule="evenodd"/><path fill="#ffffff" d="m226.0541 205.87163l0 -1.875l1.875 0l0 1.875l-1.875 0zm6.234375 0l0 -1.875l1.859375 0l0 1.875l-1.859375 0zm6.203125 0l0 -1.875l1.875 0l0 1.875l-1.875 0z" fill-rule="nonzero"/><path fill="#5252cf" fill-opacity="0.5136" d="m263.5778 178.98312l42.771667 0l0 39.93701l-42.771667 0z" fill-rule="evenodd"/><path stroke="#000000" stroke-width="1.0" stroke-linejoin="round" stroke-linecap="butt" d="m263.5778 178.98312l42.771667 0l0 39.93701l-42.771667 0z" fill-rule="evenodd"/><path fill="#ffffff" d="m283.78445 205.87163l-7.46875 0l0 -1.46875l3.0625 0l0 -8.703125l-2.859375 1.546875l-0.578125 -1.34375l3.78125 -1.984375l1.40625 0l0 10.484375l2.65625 0l0 1.46875zm10.366669 0l-7.84375 0l0 -1.421875l3.078125 -3.0625q0.75 -0.75 1.21875 -1.296875q0.484375 -0.546875 0.75 -0.984375q0.265625 -0.453125 0.34375 -0.859375q0.09375 -0.40625 0.09375 -0.859375q0 -0.4375 -0.125 -0.828125q-0.109375 -0.40625 -0.359375 -0.703125q-0.234375 -0.3125 -0.640625 -0.484375q-0.390625 -0.171875 -0.9375 -0.171875q-0.75 0 -1.375 0.34375q-0.609375 0.328125 -1.125 0.875l-0.875 -1.046875q0.671875 -0.71875 1.546875 -1.140625q0.875 -0.421875 2.046875 -0.421875q0.796875 0 1.4375 0.234375q0.65625 0.234375 1.125 0.6875q0.484375 0.4375 0.734375 1.09375q0.265625 0.640625 0.265625 1.453125q0 0.671875 -0.1875 1.265625q-0.171875 0.578125 -0.546875 1.15625q-0.375 0.578125 -0.9375 1.203125q-0.546875 0.609375 -1.3125 1.359375l-2.171875 2.09375l5.796875 0l0 1.515625z" fill-rule="nonzero"/><path fill="#000000" fill-opacity="0.0" d="m233.21034 144.97525c0 8.501892 -12.936996 12.751831 -25.874008 17.0038c-12.937012 4.2519684 -25.874023 8.505966 -25.874023 17.011948" fill-rule="evenodd"/><path stroke="#5252cf" stroke-width="1.0" stroke-linejoin="round" stroke-linecap="butt" d="m233.21034 144.97525c0 8.501892 -12.937012 12.751831 -25.874008 17.0038c-6.468506 2.1259766 -12.937012 4.252472 -17.788391 6.910721c-2.4256897 1.3291168 -4.447098 2.7911835 -5.862091 4.452591l-0.04711914 0.057281494" fill-rule="evenodd"/><path fill="#5252cf" stroke="#5252cf" stroke-width="1.0" stroke-linecap="butt" d="m182.0995 172.8005l-0.106903076 4.8281555l3.1853638 -3.6298676z" fill-rule="evenodd"/><path fill="#000000" fill-opacity="0.0" d="m233.21034 144.97525c0 8.501892 0.01574707 12.751831 0.03149414 17.0038c0.01576233 4.2519684 0.0315094 8.505966 0.0315094 17.011948" fill-rule="evenodd"/><path stroke="#5252cf" stroke-width="1.0" stroke-linejoin="round" stroke-linecap="butt" d="m233.21034 144.97525c0 8.501892 0.01574707 12.751831 0.03149414 17.0038c0.007873535 2.1259766 0.01574707 4.252472 0.021652222 6.910721l0.006591797 4.101227" fill-rule="evenodd"/><path fill="#5252cf" stroke="#5252cf" stroke-width="1.0" stroke-linecap="butt" d="m231.61833 172.9919l1.6542053 4.537201l1.6492615 -4.5390015z" fill-rule="evenodd"/><path fill="#000000" fill-opacity="0.0" d="m233.21034 144.97525c0 8.501892 12.937012 12.751831 25.874008 17.0038c12.937012 4.2519684 25.874023 8.505966 25.874023 17.011948" fill-rule="evenodd"/><path stroke="#5252cf" stroke-width="1.0" stroke-linejoin="round" stroke-linecap="butt" d="m233.21034 144.97525c0 8.501892 12.937012 12.751831 25.874008 17.0038c6.468506 2.1259766 12.937012 4.252472 17.788391 6.910721c2.4256897 1.3291168 4.447113 2.7911835 5.862091 4.452591l0.04711914 0.057281494" fill-rule="evenodd"/><path fill="#5252cf" stroke="#5252cf" stroke-width="1.0" stroke-linecap="butt" d="m281.2427 173.9988l3.1853943 3.6298676l-0.106903076 -4.8281555z" fill-rule="evenodd"/></g></svg>