<svg xmlns="http://www.w3.org/2000/svg" xmlns:xlink="http://www.w3.org/1999/xlink" contentStyleType="text/css" height="812px" preserveAspectRatio="none" style="width:770px;height:812px;background:#FFFFFF;" version="1.1" viewBox="0 0 770 812" width="770px" zoomAndPan="magnify"><defs/><g><!--class tree::Relation--><g id="elem_tree::Relation"><rect codeLine="6" fill="#F1F1F1" height="96.8906" id="tree::Relation" rx="2.5" ry="2.5" style="stroke:#181818;stroke-width:0.5;" width="201.2188" x="104.5" y="7"/><ellipse cx="153.0933" cy="23" fill="#ADD1B2" rx="11" ry="11" style="stroke:#181818;stroke-width:1.0;"/><path d="M156.062,28.6406 Q155.4839,28.9375 154.8433,29.0781 Q154.2026,29.2344 153.4995,29.2344 Q150.9995,29.2344 149.6714,27.5938 Q148.3589,25.9375 148.3589,22.8125 Q148.3589,19.6875 149.6714,18.0313 Q150.9995,16.375 153.4995,16.375 Q154.2026,16.375 154.8433,16.5313 Q155.4995,16.6875 156.062,16.9844 L156.062,19.7031 Q155.437,19.125 154.8433,18.8594 Q154.2495,18.5781 153.6245,18.5781 Q152.2808,18.5781 151.5933,19.6563 Q150.9058,20.7188 150.9058,22.8125 Q150.9058,24.9063 151.5933,25.9844 Q152.2808,27.0469 153.6245,27.0469 Q154.2495,27.0469 154.8433,26.7813 Q155.437,26.5 156.062,25.9219 L156.062,28.6406 Z " fill="#000000"/><text fill="#000000" font-family="sans-serif" font-size="14" lengthAdjust="spacing" textLength="95.5322" x="173.5933" y="27.8467">tree::Relation</text><line style="stroke:#181818;stroke-width:0.5;" x1="105.5" x2="304.7188" y1="39" y2="39"/><ellipse cx="115.5" cy="52.6484" fill="none" rx="3" ry="3" style="stroke:#038048;stroke-width:1.0;"/><text fill="#000000" font-family="sans-serif" font-size="14" lengthAdjust="spacing" textLength="65.0166" x="124.5" y="55.9951">tree:path</text><ellipse cx="115.5" cy="68.9453" fill="none" rx="3" ry="3" style="stroke:#038048;stroke-width:1.0;"/><text fill="#000000" font-family="sans-serif" font-size="14" lengthAdjust="spacing" textLength="175.2188" x="124.5" y="72.292">tree:remainingItems : int</text><ellipse cx="115.5" cy="85.2422" fill="none" rx="3" ry="3" style="stroke:#038048;stroke-width:1.0;"/><text fill="#000000" font-family="sans-serif" font-size="14" lengthAdjust="spacing" textLength="71.4287" x="124.5" y="88.5889">tree:value</text><line style="stroke:#181818;stroke-width:0.5;" x1="105.5" x2="304.7188" y1="95.8906" y2="95.8906"/></g><!--class tree::Node--><g id="elem_tree::Node"><rect codeLine="12" fill="#F1F1F1" height="80.5938" id="tree::Node" rx="2.5" ry="2.5" style="stroke:#181818;stroke-width:0.5;" width="204.4863" x="7" y="238"/><ellipse cx="67.7715" cy="254" fill="#ADD1B2" rx="11" ry="11" style="stroke:#181818;stroke-width:1.0;"/><path d="M70.7402,259.6406 Q70.1621,259.9375 69.5215,260.0781 Q68.8809,260.2344 68.1777,260.2344 Q65.6777,260.2344 64.3496,258.5938 Q63.0371,256.9375 63.0371,253.8125 Q63.0371,250.6875 64.3496,249.0313 Q65.6777,247.375 68.1777,247.375 Q68.8809,247.375 69.5215,247.5313 Q70.1777,247.6875 70.7402,247.9844 L70.7402,250.7031 Q70.1152,250.125 69.5215,249.8594 Q68.9277,249.5781 68.3027,249.5781 Q66.959,249.5781 66.2715,250.6563 Q65.584,251.7188 65.584,253.8125 Q65.584,255.9063 66.2715,256.9844 Q66.959,258.0469 68.3027,258.0469 Q68.9277,258.0469 69.5215,257.7813 Q70.1152,257.5 70.7402,256.9219 L70.7402,259.6406 Z " fill="#000000"/><text fill="#000000" font-family="sans-serif" font-size="14" lengthAdjust="spacing" textLength="74.4434" x="88.2715" y="258.8467">tree::Node</text><line style="stroke:#181818;stroke-width:0.5;" x1="8" x2="210.4863" y1="270" y2="270"/><ellipse cx="18" cy="283.6484" fill="none" rx="3" ry="3" style="stroke:#038048;stroke-width:1.0;"/><text fill="#000000" font-family="sans-serif" font-size="14" lengthAdjust="spacing" textLength="178.4863" x="27" y="286.9951">ldes:immutable : boolean</text><ellipse cx="18" cy="299.9453" fill="none" rx="3" ry="3" style="stroke:#038048;stroke-width:1.0;"/><text fill="#000000" font-family="sans-serif" font-size="14" lengthAdjust="spacing" textLength="145.373" x="27" y="303.292">ldes:viewDescription</text><line style="stroke:#181818;stroke-width:0.5;" x1="8" x2="210.4863" y1="310.5938" y2="310.5938"/></g><!--class tree::Collection--><g id="elem_tree::Collection"><rect codeLine="17" fill="#F1F1F1" height="64.2969" id="tree::Collection" rx="2.5" ry="2.5" style="stroke:#181818;stroke-width:0.5;" width="139.1533" x="39.5" y="494"/><ellipse cx="54.5" cy="510" fill="#ADD1B2" rx="11" ry="11" style="stroke:#181818;stroke-width:1.0;"/><path d="M57.4688,515.6406 Q56.8906,515.9375 56.25,516.0781 Q55.6094,516.2344 54.9063,516.2344 Q52.4063,516.2344 51.0781,514.5938 Q49.7656,512.9375 49.7656,509.8125 Q49.7656,506.6875 51.0781,505.0313 Q52.4063,503.375 54.9063,503.375 Q55.6094,503.375 56.25,503.5313 Q56.9063,503.6875 57.4688,503.9844 L57.4688,506.7031 Q56.8438,506.125 56.25,505.8594 Q55.6563,505.5781 55.0313,505.5781 Q53.6875,505.5781 53,506.6563 Q52.3125,507.7188 52.3125,509.8125 Q52.3125,511.9063 53,512.9844 Q53.6875,514.0469 55.0313,514.0469 Q55.6563,514.0469 56.25,513.7813 Q56.8438,513.5 57.4688,512.9219 L57.4688,515.6406 Z " fill="#000000"/><text fill="#000000" font-family="sans-serif" font-size="14" lengthAdjust="spacing" textLength="107.1533" x="68.5" y="514.8467">tree::Collection</text><line style="stroke:#181818;stroke-width:0.5;" x1="40.5" x2="177.6533" y1="526" y2="526"/><ellipse cx="50.5" cy="539.6484" fill="none" rx="3" ry="3" style="stroke:#038048;stroke-width:1.0;"/><text fill="#000000" font-family="sans-serif" font-size="14" lengthAdjust="spacing" textLength="92.333" x="59.5" y="542.9951">tree:member</text><line style="stroke:#181818;stroke-width:0.5;" x1="40.5" x2="177.6533" y1="550.2969" y2="550.2969"/></g><!--class sh::NodeShape--><g id="elem_sh::NodeShape"><rect codeLine="21" fill="#F1F1F1" height="48" id="sh::NodeShape" rx="2.5" ry="2.5" style="stroke:#181818;stroke-width:0.5;" width="137.9775" x="359" y="31.5"/><ellipse cx="374" cy="47.5" fill="#ADD1B2" rx="11" ry="11" style="stroke:#181818;stroke-width:1.0;"/><path d="M376.9688,53.1406 Q376.3906,53.4375 375.75,53.5781 Q375.1094,53.7344 374.4063,53.7344 Q371.9063,53.7344 370.5781,52.0938 Q369.2656,50.4375 369.2656,47.3125 Q369.2656,44.1875 370.5781,42.5313 Q371.9063,40.875 374.4063,40.875 Q375.1094,40.875 375.75,41.0313 Q376.4063,41.1875 376.9688,41.4844 L376.9688,44.2031 Q376.3438,43.625 375.75,43.3594 Q375.1563,43.0781 374.5313,43.0781 Q373.1875,43.0781 372.5,44.1563 Q371.8125,45.2188 371.8125,47.3125 Q371.8125,49.4063 372.5,50.4844 Q373.1875,51.5469 374.5313,51.5469 Q375.1563,51.5469 375.75,51.2813 Q376.3438,51 376.9688,50.4219 L376.9688,53.1406 Z " fill="#000000"/><text fill="#000000" font-family="sans-serif" font-size="14" lengthAdjust="spacing" textLength="105.9775" x="388" y="52.3467">sh::NodeShape</text><line style="stroke:#181818;stroke-width:0.5;" x1="360" x2="495.9775" y1="63.5" y2="63.5"/><line style="stroke:#181818;stroke-width:0.5;" x1="360" x2="495.9775" y1="71.5" y2="71.5"/></g><!--class dcat::Distribution--><g id="elem_dcat::Distribution"><rect codeLine="23" fill="#F1F1F1" height="48" id="dcat::Distribution" rx="2.5" ry="2.5" style="stroke:#181818;stroke-width:0.5;" width="153.7617" x="541" y="31.5"/><ellipse cx="556" cy="47.5" fill="#ADD1B2" rx="11" ry="11" style="stroke:#181818;stroke-width:1.0;"/><path d="M558.9688,53.1406 Q558.3906,53.4375 557.75,53.5781 Q557.1094,53.7344 556.4063,53.7344 Q553.9063,53.7344 552.5781,52.0938 Q551.2656,50.4375 551.2656,47.3125 Q551.2656,44.1875 552.5781,42.5313 Q553.9063,40.875 556.4063,40.875 Q557.1094,40.875 557.75,41.0313 Q558.4063,41.1875 558.9688,41.4844 L558.9688,44.2031 Q558.3438,43.625 557.75,43.3594 Q557.1563,43.0781 556.5313,43.0781 Q555.1875,43.0781 554.5,44.1563 Q553.8125,45.2188 553.8125,47.3125 Q553.8125,49.4063 554.5,50.4844 Q555.1875,51.5469 556.5313,51.5469 Q557.1563,51.5469 557.75,51.2813 Q558.3438,51 558.9688,50.4219 L558.9688,53.1406 Z " fill="#000000"/><text fill="#000000" font-family="sans-serif" font-size="14" lengthAdjust="spacing" textLength="121.7617" x="570" y="52.3467">dcat::Distribution</text><line style="stroke:#181818;stroke-width:0.5;" x1="542" x2="693.7617" y1="63.5" y2="63.5"/><line style="stroke:#181818;stroke-width:0.5;" x1="542" x2="693.7617" y1="71.5" y2="71.5"/></g><!--class hydra::IriTemplate--><g id="elem_hydra::IriTemplate"><rect codeLine="25" fill="#F1F1F1" height="48" id="hydra::IriTemplate" rx="2.5" ry="2.5" style="stroke:#181818;stroke-width:0.5;" width="161.8486" x="246" y="254.5"/><ellipse cx="261" cy="270.5" fill="#ADD1B2" rx="11" ry="11" style="stroke:#181818;stroke-width:1.0;"/><path d="M263.9688,276.1406 Q263.3906,276.4375 262.75,276.5781 Q262.1094,276.7344 261.4063,276.7344 Q258.9063,276.7344 257.5781,275.0938 Q256.2656,273.4375 256.2656,270.3125 Q256.2656,267.1875 257.5781,265.5313 Q258.9063,263.875 261.4063,263.875 Q262.1094,263.875 262.75,264.0313 Q263.4063,264.1875 263.9688,264.4844 L263.9688,267.2031 Q263.3438,266.625 262.75,266.3594 Q262.1563,266.0781 261.5313,266.0781 Q260.1875,266.0781 259.5,267.1563 Q258.8125,268.2188 258.8125,270.3125 Q258.8125,272.4063 259.5,273.4844 Q260.1875,274.5469 261.5313,274.5469 Q262.1563,274.5469 262.75,274.2813 Q263.3438,274 263.9688,273.4219 L263.9688,276.1406 Z " fill="#000000"/><text fill="#000000" font-family="sans-serif" font-size="14" lengthAdjust="spacing" textLength="129.8486" x="275" y="275.3467">hydra::IriTemplate</text><line style="stroke:#181818;stroke-width:0.5;" x1="247" x2="406.8486" y1="286.5" y2="286.5"/><line style="stroke:#181818;stroke-width:0.5;" x1="247" x2="406.8486" y1="294.5" y2="294.5"/></g><!--class ldes::RetentionPolicy--><g id="elem_ldes::RetentionPolicy"><rect codeLine="27" fill="#F1F1F1" height="129.4844" id="ldes::RetentionPolicy" rx="2.5" ry="2.5" style="stroke:#181818;stroke-width:0.5;" width="290.0107" x="473" y="676"/><ellipse cx="540.2451" cy="692" fill="#ADD1B2" rx="11" ry="11" style="stroke:#181818;stroke-width:1.0;"/><path d="M543.2139,697.6406 Q542.6357,697.9375 541.9951,698.0781 Q541.3545,698.2344 540.6514,698.2344 Q538.1514,698.2344 536.8232,696.5938 Q535.5107,694.9375 535.5107,691.8125 Q535.5107,688.6875 536.8232,687.0313 Q538.1514,685.375 540.6514,685.375 Q541.3545,685.375 541.9951,685.5313 Q542.6514,685.6875 543.2139,685.9844 L543.2139,688.7031 Q542.5889,688.125 541.9951,687.8594 Q541.4014,687.5781 540.7764,687.5781 Q539.4326,687.5781 538.7451,688.6563 Q538.0576,689.7188 538.0576,691.8125 Q538.0576,693.9063 538.7451,694.9844 Q539.4326,696.0469 540.7764,696.0469 Q541.4014,696.0469 541.9951,695.7813 Q542.5889,695.5 543.2139,694.9219 L543.2139,697.6406 Z " fill="#000000"/><text fill="#000000" font-family="sans-serif" font-size="14" lengthAdjust="spacing" textLength="147.0205" x="560.7451" y="696.8467">ldes::RetentionPolicy</text><line style="stroke:#181818;stroke-width:0.5;" x1="474" x2="762.0107" y1="708" y2="708"/><ellipse cx="484" cy="721.6484" fill="none" rx="3" ry="3" style="stroke:#038048;stroke-width:1.0;"/><text fill="#000000" font-family="sans-serif" font-size="14" lengthAdjust="spacing" textLength="141.0391" x="493" y="724.9951">ldes:fullLogDuration</text><ellipse cx="484" cy="737.9453" fill="none" rx="3" ry="3" style="stroke:#038048;stroke-width:1.0;"/><text fill="#000000" font-family="sans-serif" font-size="14" lengthAdjust="spacing" textLength="203.5469" x="493" y="741.292">ldes:startingFrom : dateTime</text><ellipse cx="484" cy="754.2422" fill="none" rx="3" ry="3" style="stroke:#038048;stroke-width:1.0;"/><text fill="#000000" font-family="sans-serif" font-size="14" lengthAdjust="spacing" textLength="139.6924" x="493" y="757.5889">ldes:versionAmount</text><ellipse cx="484" cy="770.5391" fill="none" rx="3" ry="3" style="stroke:#038048;stroke-width:1.0;"/><text fill="#000000" font-family="sans-serif" font-size="14" lengthAdjust="spacing" textLength="264.0107" x="493" y="773.8857">ldes:versionDeleteDuration : duration</text><ellipse cx="484" cy="786.8359" fill="none" rx="3" ry="3" style="stroke:#038048;stroke-width:1.0;"/><text fill="#000000" font-family="sans-serif" font-size="14" lengthAdjust="spacing" textLength="218.0117" x="493" y="790.1826">ldes:versionDuration : duration</text><line style="stroke:#181818;stroke-width:0.5;" x1="474" x2="762.0107" y1="797.4844" y2="797.4844"/></g><!--class ldes::EventStream--><g id="elem_ldes::EventStream"><rect codeLine="35" fill="#F1F1F1" height="145.7813" id="ldes::EventStream" rx="2.5" ry="2.5" style="stroke:#181818;stroke-width:0.5;" width="220.6396" x="507.5" y="453"/><ellipse cx="549.2543" cy="469" fill="#ADD1B2" rx="11" ry="11" style="stroke:#181818;stroke-width:1.0;"/><path d="M552.2231,474.6406 Q551.645,474.9375 551.0043,475.0781 Q550.3637,475.2344 549.6606,475.2344 Q547.1606,475.2344 545.8325,473.5938 Q544.52,471.9375 544.52,468.8125 Q544.52,465.6875 545.8325,464.0313 Q547.1606,462.375 549.6606,462.375 Q550.3637,462.375 551.0043,462.5313 Q551.6606,462.6875 552.2231,462.9844 L552.2231,465.7031 Q551.5981,465.125 551.0043,464.8594 Q550.4106,464.5781 549.7856,464.5781 Q548.4418,464.5781 547.7543,465.6563 Q547.0668,466.7188 547.0668,468.8125 Q547.0668,470.9063 547.7543,471.9844 Q548.4418,473.0469 549.7856,473.0469 Q550.4106,473.0469 551.0043,472.7813 Q551.5981,472.5 552.2231,471.9219 L552.2231,474.6406 Z " fill="#000000"/><text fill="#000000" font-family="sans-serif" font-size="14" lengthAdjust="spacing" textLength="129.1855" x="569.1998" y="473.8467">ldes::EventStream</text><line style="stroke:#181818;stroke-width:0.5;" x1="508.5" x2="727.1396" y1="485" y2="485"/><ellipse cx="518.5" cy="498.6484" fill="none" rx="3" ry="3" style="stroke:#038048;stroke-width:1.0;"/><text fill="#000000" font-family="sans-serif" font-size="14" lengthAdjust="spacing" textLength="165.7646" x="527.5" y="501.9951">ldes:pollingInterval : int</text><ellipse cx="518.5" cy="514.9453" fill="none" rx="3" ry="3" style="stroke:#038048;stroke-width:1.0;"/><text fill="#000000" font-family="sans-serif" font-size="14" lengthAdjust="spacing" textLength="132.248" x="527.5" y="518.292">ldes:sequencePath</text><ellipse cx="518.5" cy="531.2422" fill="none" rx="3" ry="3" style="stroke:#038048;stroke-width:1.0;"/><text fill="#000000" font-family="sans-serif" font-size="14" lengthAdjust="spacing" textLength="140.3008" x="527.5" y="534.5889">ldes:timestampPath</text><ellipse cx="518.5" cy="547.5391" fill="none" rx="3" ry="3" style="stroke:#038048;stroke-width:1.0;"/><text fill="#000000" font-family="sans-serif" font-size="14" lengthAdjust="spacing" textLength="132.0088" x="527.5" y="550.8857">ldes:versionOfPath</text><ellipse cx="518.5" cy="563.8359" fill="none" rx="3" ry="3" style="stroke:#038048;stroke-width:1.0;"/><text fill="#000000" font-family="sans-serif" font-size="14" lengthAdjust="spacing" textLength="185.1172" x="527.5" y="567.1826">ldes:versionSequencePath</text><ellipse cx="518.5" cy="580.1328" fill="none" rx="3" ry="3" style="stroke:#038048;stroke-width:1.0;"/><text fill="#000000" font-family="sans-serif" font-size="14" lengthAdjust="spacing" textLength="194.6396" x="527.5" y="583.4795">ldes:versionTimestampPath</text><line style="stroke:#181818;stroke-width:0.5;" x1="508.5" x2="727.1396" y1="590.7813" y2="590.7813"/></g><!--class ldes::EventSource--><g id="elem_ldes::EventSource"><rect codeLine="44" fill="#F1F1F1" height="194.6719" id="ldes::EventSource" rx="2.5" ry="2.5" style="stroke:#181818;stroke-width:0.5;" width="246.1035" x="495" y="181"/><ellipse cx="550.4941" cy="197" fill="#ADD1B2" rx="11" ry="11" style="stroke:#181818;stroke-width:1.0;"/><path d="M553.4629,202.6406 Q552.8848,202.9375 552.2441,203.0781 Q551.6035,203.2344 550.9004,203.2344 Q548.4004,203.2344 547.0723,201.5938 Q545.7598,199.9375 545.7598,196.8125 Q545.7598,193.6875 547.0723,192.0313 Q548.4004,190.375 550.9004,190.375 Q551.6035,190.375 552.2441,190.5313 Q552.9004,190.6875 553.4629,190.9844 L553.4629,193.7031 Q552.8379,193.125 552.2441,192.8594 Q551.6504,192.5781 551.0254,192.5781 Q549.6816,192.5781 548.9941,193.6563 Q548.3066,194.7188 548.3066,196.8125 Q548.3066,198.9063 548.9941,199.9844 Q549.6816,201.0469 551.0254,201.0469 Q551.6504,201.0469 552.2441,200.7813 Q552.8379,200.5 553.4629,199.9219 L553.4629,202.6406 Z " fill="#000000"/><text fill="#000000" font-family="sans-serif" font-size="14" lengthAdjust="spacing" textLength="126.6152" x="570.9941" y="201.8467">ldes::EventSource</text><line style="stroke:#181818;stroke-width:0.5;" x1="496" x2="740.1035" y1="213" y2="213"/><ellipse cx="506" cy="226.6484" fill="none" rx="3" ry="3" style="stroke:#038048;stroke-width:1.0;"/><text fill="#000000" font-family="sans-serif" font-size="14" lengthAdjust="spacing" textLength="220.1035" x="515" y="229.9951">ldes:transactionFinalizedObject</text><ellipse cx="506" cy="242.9453" fill="none" rx="3" ry="3" style="stroke:#038048;stroke-width:1.0;"/><text fill="#000000" font-family="sans-serif" font-size="14" lengthAdjust="spacing" textLength="205.8916" x="515" y="246.292">ldes:transactionFinalizedPath</text><ellipse cx="506" cy="259.2422" fill="none" rx="3" ry="3" style="stroke:#038048;stroke-width:1.0;"/><text fill="#000000" font-family="sans-serif" font-size="14" lengthAdjust="spacing" textLength="143.8691" x="515" y="262.5889">ldes:transactionPath</text><ellipse cx="506" cy="275.5391" fill="none" rx="3" ry="3" style="stroke:#038048;stroke-width:1.0;"/><text fill="#000000" font-family="sans-serif" font-size="14" lengthAdjust="spacing" textLength="177.0986" x="515" y="278.8857">ldes:versionCreateObject</text><ellipse cx="506" cy="291.8359" fill="none" rx="3" ry="3" style="stroke:#038048;stroke-width:1.0;"/><text fill="#000000" font-family="sans-serif" font-size="14" lengthAdjust="spacing" textLength="162.8867" x="515" y="295.1826">ldes:versionCreatePath</text><ellipse cx="506" cy="308.1328" fill="none" rx="3" ry="3" style="stroke:#038048;stroke-width:1.0;"/><text fill="#000000" font-family="sans-serif" font-size="14" lengthAdjust="spacing" textLength="176.2715" x="515" y="311.4795">ldes:versionDeleteObject</text><ellipse cx="506" cy="324.4297" fill="none" rx="3" ry="3" style="stroke:#038048;stroke-width:1.0;"/><text fill="#000000" font-family="sans-serif" font-size="14" lengthAdjust="spacing" textLength="162.0596" x="515" y="327.7764">ldes:versionDeletePath</text><ellipse cx="506" cy="340.7266" fill="none" rx="3" ry="3" style="stroke:#038048;stroke-width:1.0;"/><text fill="#000000" font-family="sans-serif" font-size="14" lengthAdjust="spacing" textLength="180.9746" x="515" y="344.0732">ldes:versionUpdateObject</text><ellipse cx="506" cy="357.0234" fill="none" rx="3" ry="3" style="stroke:#038048;stroke-width:1.0;"/><text fill="#000000" font-family="sans-serif" font-size="14" lengthAdjust="spacing" textLength="166.7627" x="515" y="360.3701">ldes:versionUpdatePath</text><line style="stroke:#181818;stroke-width:0.5;" x1="496" x2="740.1035" y1="367.6719" y2="367.6719"/></g><!--link tree::Relation to tree::Node--><g id="link_tree::Relation_tree::Node"><path codeLine="60" d="M184.29,104.18 C166.98,144.03 144.971,194.687 128.691,232.157 " fill="none" id="tree::Relation-to-tree::Node" style="stroke:#181818;stroke-width:1.0;"/><polygon fill="#181818" points="126.3,237.66,133.5551,230.9994,128.2925,233.0741,126.2178,227.8115,126.3,237.66" style="stroke:#181818;stroke-width:1.0;"/><text fill="#000000" font-family="sans-serif" font-size="13" lengthAdjust="spacing" textLength="63.2607" x="173" y="147.0669">tree:node</text></g><!--link tree::Node to tree::Collection--><g id="link_tree::Node_tree::Collection"><path codeLine="61" d="M80.07,319.22 C62.89,347.59 46.05,386.96 55,423 C61.28,448.28 71.9343,469.0994 84.0243,488.4794 " fill="none" id="tree::Node-to-tree::Collection" style="stroke:#181818;stroke-width:1.0;"/><polygon fill="#181818" points="87.2,493.57,85.8301,483.8169,84.5535,489.3278,79.0426,488.0512,87.2,493.57" style="stroke:#181818;stroke-width:1.0;"/><text fill="#000000" font-family="sans-serif" font-size="13" lengthAdjust="spacing" textLength="60.7534" x="56" y="419.0669">tree:view</text></g><!--link tree::Collection to tree::Node--><g id="link_tree::Collection_tree::Node"><path codeLine="62" d="M113.63,493.83 C116.38,473.68 119.6,446.85 121,423 C123.06,387.81 120.0091,353.7966 116.1391,324.9966 " fill="none" id="tree::Collection-to-tree::Node" style="stroke:#181818;stroke-width:1.0;"/><polygon fill="#181818" points="115.34,319.05,112.5742,328.5025,116.0059,324.0055,120.503,327.4371,115.34,319.05" style="stroke:#181818;stroke-width:1.0;"/><text fill="#000000" font-family="sans-serif" font-size="13" lengthAdjust="spacing" textLength="70.0464" x="123" y="419.0669">tree:shape</text></g><!--reverse link dcat::Distribution to ldes::EventSource--><g id="link_dcat::Distribution_ldes::EventSource"><path codeLine="63" d="M618,97.73 C618,121.95 618,143.51 618,180.92 " fill="none" id="dcat::Distribution-backto-ldes::EventSource" style="stroke:#181818;stroke-width:1.0;"/><polygon fill="none" points="618,79.73,612,97.73,624,97.73,618,79.73" style="stroke:#181818;stroke-width:1.0;"/></g><!--link ldes::EventSource to ldes::EventStream--><g id="link_ldes::EventSource_ldes::EventStream"><path codeLine="64" d="M618,376.18 C618,401.67 618,422.74 618,446.7 " fill="none" id="ldes::EventSource-to-ldes::EventStream" style="stroke:#181818;stroke-width:1.0;"/><polygon fill="#181818" points="618,452.7,622,443.7,618,447.7,614,443.7,618,452.7" style="stroke:#181818;stroke-width:1.0;"/><text fill="#000000" font-family="sans-serif" font-size="13" lengthAdjust="spacing" textLength="134.7925" x="619" y="419.0669">tree:viewDescription</text></g><!--link ldes::EventStream to ldes::RetentionPolicy--><g id="link_ldes::EventStream_ldes::RetentionPolicy"><path codeLine="65" d="M618,599.24 C618,624.15 618,645.84 618,670 " fill="none" id="ldes::EventStream-to-ldes::RetentionPolicy" style="stroke:#181818;stroke-width:1.0;"/><polygon fill="#181818" points="618,676,622,667,618,671,614,667,618,676" style="stroke:#181818;stroke-width:1.0;"/><text fill="#000000" font-family="sans-serif" font-size="13" lengthAdjust="spacing" textLength="128.4512" x="619" y="642.0669">ldes:retentionPolicy</text></g><!--link tree::Relation to hydra::IriTemplate--><g id="link_tree::Relation_hydra::IriTemplate"><path codeLine="66" d="M231.32,104.18 C256.89,150.5 291.7308,213.607 311.2908,249.047 " fill="none" id="tree::Relation-to-hydra::IriTemplate" style="stroke:#181818;stroke-width:1.0;"/><polygon fill="#181818" points="314.19,254.3,313.3432,244.4876,311.774,249.9225,306.3391,248.3533,314.19,254.3" style="stroke:#181818;stroke-width:1.0;"/><text fill="#000000" font-family="sans-serif" font-size="13" lengthAdjust="spacing" textLength="115.9717" x="257" y="147.0669">hydra:iriTemplate</text></g><!--SRC=[VLJBRjim4BppAmXVUYZy0qHR8B0Jm43H1BNp0PIqYHZmeP8h5scJVyzAb2LAfgARPcT7-nfnzeL_ltu8tMaP0WGkRSLl4BqgMeImGkUixEXyWnv0YD-W9IfdD_m_urzv3pOIw_75Wv7AAljyG3212wuiZi6pr2smzwNeBrV18AWh248Pqw8iD51wuPm6QSVOMS7VFOJIgwQhurfivxI6SbcZ0LE0JzcXZXy-rhA1pOHNfKGXzYh4mNGwKx1-hRmKuk3L2Kn3eqWp-_feGWYsItjmMfMlQLzFhTO_tVE-zVqCHpoWz4WZk_FEKCiLoPwKWQbdy87uDyQrSPWfkWTDNxneTkbB-GinGtbVLdzxfkAFD39fqieR6cgtKulWQOdJMcFzyAS5MyB3S0WzYDG1DMQQ6JhKSl-KGuyvdI5scicjrErQNyuk2RsqGVRNSAUirEeVLFV52zt7fvHv8nCXLzYEPeMm49t5SbbnQ_ci6CjbFJRLwhTYR9pEclal1WwrQjOzV-NsxVR7tAqY-ihI2vi54cPgnO7VsPTbmclweNCdovcIVtlRRdFhPxcJwFKp9vwKbVvLSjH4uihZ8gx2p_6LCMP-8YGGKJM1Z7y0]--></g></svg>