<svg xmlns="http://www.w3.org/2000/svg" xmlns:xlink="http://www.w3.org/1999/xlink" contentStyleType="text/css" height="842px" preserveAspectRatio="none" style="width:1074px;height:842px;background:#FFFFFF;" version="1.1" viewBox="0 0 1074 842" width="1074px" zoomAndPan="magnify"><defs/><g><!--class tree::Relation--><g id="elem_tree::Relation"><rect codeLine="6" fill="#F1F1F1" height="96.8906" id="tree::Relation" rx="2.5" ry="2.5" style="stroke:#181818;stroke-width:0.5;" width="201.2188" x="326.5" y="7"/><ellipse cx="375.0933" cy="23" fill="#ADD1B2" rx="11" ry="11" style="stroke:#181818;stroke-width:1.0;"/><path d="M378.062,28.6406 Q377.4839,28.9375 376.8433,29.0781 Q376.2026,29.2344 375.4995,29.2344 Q372.9995,29.2344 371.6714,27.5938 Q370.3589,25.9375 370.3589,22.8125 Q370.3589,19.6875 371.6714,18.0313 Q372.9995,16.375 375.4995,16.375 Q376.2026,16.375 376.8433,16.5313 Q377.4995,16.6875 378.062,16.9844 L378.062,19.7031 Q377.437,19.125 376.8433,18.8594 Q376.2495,18.5781 375.6245,18.5781 Q374.2808,18.5781 373.5933,19.6563 Q372.9058,20.7188 372.9058,22.8125 Q372.9058,24.9063 373.5933,25.9844 Q374.2808,27.0469 375.6245,27.0469 Q376.2495,27.0469 376.8433,26.7813 Q377.437,26.5 378.062,25.9219 L378.062,28.6406 Z " fill="#000000"/><text fill="#000000" font-family="sans-serif" font-size="14" lengthAdjust="spacing" textLength="95.5322" x="395.5933" y="27.8467">tree::Relation</text><line style="stroke:#181818;stroke-width:0.5;" x1="327.5" x2="526.7188" y1="39" y2="39"/><ellipse cx="337.5" cy="52.6484" fill="none" rx="3" ry="3" style="stroke:#038048;stroke-width:1.0;"/><text fill="#000000" font-family="sans-serif" font-size="14" lengthAdjust="spacing" textLength="65.0166" x="346.5" y="55.9951">tree:path</text><ellipse cx="337.5" cy="68.9453" fill="none" rx="3" ry="3" style="stroke:#038048;stroke-width:1.0;"/><text fill="#000000" font-family="sans-serif" font-size="14" lengthAdjust="spacing" textLength="175.2188" x="346.5" y="72.292">tree:remainingItems : int</text><ellipse cx="337.5" cy="85.2422" fill="none" rx="3" ry="3" style="stroke:#038048;stroke-width:1.0;"/><text fill="#000000" font-family="sans-serif" font-size="14" lengthAdjust="spacing" textLength="71.4287" x="346.5" y="88.5889">tree:value</text><line style="stroke:#181818;stroke-width:0.5;" x1="327.5" x2="526.7188" y1="95.8906" y2="95.8906"/></g><!--class tree::Node--><g id="elem_tree::Node"><rect codeLine="12" fill="#F1F1F1" height="64.2969" id="tree::Node" rx="2.5" ry="2.5" style="stroke:#181818;stroke-width:0.5;" width="204.4863" x="362" y="181"/><ellipse cx="422.7715" cy="197" fill="#ADD1B2" rx="11" ry="11" style="stroke:#181818;stroke-width:1.0;"/><path d="M425.7402,202.6406 Q425.1621,202.9375 424.5215,203.0781 Q423.8809,203.2344 423.1777,203.2344 Q420.6777,203.2344 419.3496,201.5938 Q418.0371,199.9375 418.0371,196.8125 Q418.0371,193.6875 419.3496,192.0313 Q420.6777,190.375 423.1777,190.375 Q423.8809,190.375 424.5215,190.5313 Q425.1777,190.6875 425.7402,190.9844 L425.7402,193.7031 Q425.1152,193.125 424.5215,192.8594 Q423.9277,192.5781 423.3027,192.5781 Q421.959,192.5781 421.2715,193.6563 Q420.584,194.7188 420.584,196.8125 Q420.584,198.9063 421.2715,199.9844 Q421.959,201.0469 423.3027,201.0469 Q423.9277,201.0469 424.5215,200.7813 Q425.1152,200.5 425.7402,199.9219 L425.7402,202.6406 Z " fill="#000000"/><text fill="#000000" font-family="sans-serif" font-size="14" lengthAdjust="spacing" textLength="74.4434" x="443.2715" y="201.8467">tree::Node</text><line style="stroke:#181818;stroke-width:0.5;" x1="363" x2="565.4863" y1="213" y2="213"/><ellipse cx="373" cy="226.6484" fill="none" rx="3" ry="3" style="stroke:#038048;stroke-width:1.0;"/><text fill="#000000" font-family="sans-serif" font-size="14" lengthAdjust="spacing" textLength="178.4863" x="382" y="229.9951">ldes:immutable : boolean</text><line style="stroke:#181818;stroke-width:0.5;" x1="363" x2="565.4863" y1="237.2969" y2="237.2969"/></g><!--class tree::Collection--><g id="elem_tree::Collection"><rect codeLine="16" fill="#F1F1F1" height="64.2969" id="tree::Collection" rx="2.5" ry="2.5" style="stroke:#181818;stroke-width:0.5;" width="139.1533" x="726.5" y="23.5"/><ellipse cx="741.5" cy="39.5" fill="#ADD1B2" rx="11" ry="11" style="stroke:#181818;stroke-width:1.0;"/><path d="M744.4688,45.1406 Q743.8906,45.4375 743.25,45.5781 Q742.6094,45.7344 741.9063,45.7344 Q739.4063,45.7344 738.0781,44.0938 Q736.7656,42.4375 736.7656,39.3125 Q736.7656,36.1875 738.0781,34.5313 Q739.4063,32.875 741.9063,32.875 Q742.6094,32.875 743.25,33.0313 Q743.9063,33.1875 744.4688,33.4844 L744.4688,36.2031 Q743.8438,35.625 743.25,35.3594 Q742.6563,35.0781 742.0313,35.0781 Q740.6875,35.0781 740,36.1563 Q739.3125,37.2188 739.3125,39.3125 Q739.3125,41.4063 740,42.4844 Q740.6875,43.5469 742.0313,43.5469 Q742.6563,43.5469 743.25,43.2813 Q743.8438,43 744.4688,42.4219 L744.4688,45.1406 Z " fill="#000000"/><text fill="#000000" font-family="sans-serif" font-size="14" lengthAdjust="spacing" textLength="107.1533" x="755.5" y="44.3467">tree::Collection</text><line style="stroke:#181818;stroke-width:0.5;" x1="727.5" x2="864.6533" y1="55.5" y2="55.5"/><ellipse cx="737.5" cy="69.1484" fill="none" rx="3" ry="3" style="stroke:#038048;stroke-width:1.0;"/><text fill="#000000" font-family="sans-serif" font-size="14" lengthAdjust="spacing" textLength="92.333" x="746.5" y="72.4951">tree:member</text><line style="stroke:#181818;stroke-width:0.5;" x1="727.5" x2="864.6533" y1="79.7969" y2="79.7969"/></g><!--class sh::NodeShape--><g id="elem_sh::NodeShape"><rect codeLine="20" fill="#F1F1F1" height="48" id="sh::NodeShape" rx="2.5" ry="2.5" style="stroke:#181818;stroke-width:0.5;" width="137.9775" x="727" y="189"/><ellipse cx="742" cy="205" fill="#ADD1B2" rx="11" ry="11" style="stroke:#181818;stroke-width:1.0;"/><path d="M744.9688,210.6406 Q744.3906,210.9375 743.75,211.0781 Q743.1094,211.2344 742.4063,211.2344 Q739.9063,211.2344 738.5781,209.5938 Q737.2656,207.9375 737.2656,204.8125 Q737.2656,201.6875 738.5781,200.0313 Q739.9063,198.375 742.4063,198.375 Q743.1094,198.375 743.75,198.5313 Q744.4063,198.6875 744.9688,198.9844 L744.9688,201.7031 Q744.3438,201.125 743.75,200.8594 Q743.1563,200.5781 742.5313,200.5781 Q741.1875,200.5781 740.5,201.6563 Q739.8125,202.7188 739.8125,204.8125 Q739.8125,206.9063 740.5,207.9844 Q741.1875,209.0469 742.5313,209.0469 Q743.1563,209.0469 743.75,208.7813 Q744.3438,208.5 744.9688,207.9219 L744.9688,210.6406 Z " fill="#000000"/><text fill="#000000" font-family="sans-serif" font-size="14" lengthAdjust="spacing" textLength="105.9775" x="756" y="209.8467">sh::NodeShape</text><line style="stroke:#181818;stroke-width:0.5;" x1="728" x2="863.9775" y1="221" y2="221"/><line style="stroke:#181818;stroke-width:0.5;" x1="728" x2="863.9775" y1="229" y2="229"/></g><!--class dcat::Distribution--><g id="elem_dcat::Distribution"><rect codeLine="22" fill="#F1F1F1" height="48" id="dcat::Distribution" rx="2.5" ry="2.5" style="stroke:#181818;stroke-width:0.5;" width="153.7617" x="7" y="491.5"/><ellipse cx="22" cy="507.5" fill="#ADD1B2" rx="11" ry="11" style="stroke:#181818;stroke-width:1.0;"/><path d="M24.9688,513.1406 Q24.3906,513.4375 23.75,513.5781 Q23.1094,513.7344 22.4063,513.7344 Q19.9063,513.7344 18.5781,512.0938 Q17.2656,510.4375 17.2656,507.3125 Q17.2656,504.1875 18.5781,502.5313 Q19.9063,500.875 22.4063,500.875 Q23.1094,500.875 23.75,501.0313 Q24.4063,501.1875 24.9688,501.4844 L24.9688,504.2031 Q24.3438,503.625 23.75,503.3594 Q23.1563,503.0781 22.5313,503.0781 Q21.1875,503.0781 20.5,504.1563 Q19.8125,505.2188 19.8125,507.3125 Q19.8125,509.4063 20.5,510.4844 Q21.1875,511.5469 22.5313,511.5469 Q23.1563,511.5469 23.75,511.2813 Q24.3438,511 24.9688,510.4219 L24.9688,513.1406 Z " fill="#000000"/><text fill="#000000" font-family="sans-serif" font-size="14" lengthAdjust="spacing" textLength="121.7617" x="36" y="512.3467">dcat::Distribution</text><line style="stroke:#181818;stroke-width:0.5;" x1="8" x2="159.7617" y1="523.5" y2="523.5"/><line style="stroke:#181818;stroke-width:0.5;" x1="8" x2="159.7617" y1="531.5" y2="531.5"/></g><!--class dcat::DataService--><g id="elem_dcat::DataService"><rect codeLine="24" fill="#F1F1F1" height="48" id="dcat::DataService" rx="2.5" ry="2.5" style="stroke:#181818;stroke-width:0.5;" width="157.2549" x="196.5" y="491.5"/><ellipse cx="211.5" cy="507.5" fill="#ADD1B2" rx="11" ry="11" style="stroke:#181818;stroke-width:1.0;"/><path d="M214.4688,513.1406 Q213.8906,513.4375 213.25,513.5781 Q212.6094,513.7344 211.9063,513.7344 Q209.4063,513.7344 208.0781,512.0938 Q206.7656,510.4375 206.7656,507.3125 Q206.7656,504.1875 208.0781,502.5313 Q209.4063,500.875 211.9063,500.875 Q212.6094,500.875 213.25,501.0313 Q213.9063,501.1875 214.4688,501.4844 L214.4688,504.2031 Q213.8438,503.625 213.25,503.3594 Q212.6563,503.0781 212.0313,503.0781 Q210.6875,503.0781 210,504.1563 Q209.3125,505.2188 209.3125,507.3125 Q209.3125,509.4063 210,510.4844 Q210.6875,511.5469 212.0313,511.5469 Q212.6563,511.5469 213.25,511.2813 Q213.8438,511 214.4688,510.4219 L214.4688,513.1406 Z " fill="#000000"/><text fill="#000000" font-family="sans-serif" font-size="14" lengthAdjust="spacing" textLength="125.2549" x="225.5" y="512.3467">dcat::DataService</text><line style="stroke:#181818;stroke-width:0.5;" x1="197.5" x2="352.7549" y1="523.5" y2="523.5"/><line style="stroke:#181818;stroke-width:0.5;" x1="197.5" x2="352.7549" y1="531.5" y2="531.5"/></g><!--class tree::SearchTree--><g id="elem_tree::SearchTree"><rect codeLine="26" fill="#F1F1F1" height="48" id="tree::SearchTree" rx="2.5" ry="2.5" style="stroke:#181818;stroke-width:0.5;" width="149.8447" x="389" y="491.5"/><ellipse cx="404" cy="507.5" fill="#ADD1B2" rx="11" ry="11" style="stroke:#181818;stroke-width:1.0;"/><path d="M406.9688,513.1406 Q406.3906,513.4375 405.75,513.5781 Q405.1094,513.7344 404.4063,513.7344 Q401.9063,513.7344 400.5781,512.0938 Q399.2656,510.4375 399.2656,507.3125 Q399.2656,504.1875 400.5781,502.5313 Q401.9063,500.875 404.4063,500.875 Q405.1094,500.875 405.75,501.0313 Q406.4063,501.1875 406.9688,501.4844 L406.9688,504.2031 Q406.3438,503.625 405.75,503.3594 Q405.1563,503.0781 404.5313,503.0781 Q403.1875,503.0781 402.5,504.1563 Q401.8125,505.2188 401.8125,507.3125 Q401.8125,509.4063 402.5,510.4844 Q403.1875,511.5469 404.5313,511.5469 Q405.1563,511.5469 405.75,511.2813 Q406.3438,511 406.9688,510.4219 L406.9688,513.1406 Z " fill="#000000"/><text fill="#000000" font-family="sans-serif" font-size="14" lengthAdjust="spacing" textLength="117.8447" x="418" y="512.3467">tree::SearchTree</text><line style="stroke:#181818;stroke-width:0.5;" x1="390" x2="537.8447" y1="523.5" y2="523.5"/><line style="stroke:#181818;stroke-width:0.5;" x1="390" x2="537.8447" y1="531.5" y2="531.5"/></g><!--class ldes::RetentionPolicy--><g id="elem_ldes::RetentionPolicy"><rect codeLine="28" fill="#F1F1F1" height="129.4844" id="ldes::RetentionPolicy" rx="2.5" ry="2.5" style="stroke:#181818;stroke-width:0.5;" width="290.0107" x="574" y="451"/><ellipse cx="641.2451" cy="467" fill="#ADD1B2" rx="11" ry="11" style="stroke:#181818;stroke-width:1.0;"/><path d="M644.2139,472.6406 Q643.6357,472.9375 642.9951,473.0781 Q642.3545,473.2344 641.6514,473.2344 Q639.1514,473.2344 637.8232,471.5938 Q636.5107,469.9375 636.5107,466.8125 Q636.5107,463.6875 637.8232,462.0313 Q639.1514,460.375 641.6514,460.375 Q642.3545,460.375 642.9951,460.5313 Q643.6514,460.6875 644.2139,460.9844 L644.2139,463.7031 Q643.5889,463.125 642.9951,462.8594 Q642.4014,462.5781 641.7764,462.5781 Q640.4326,462.5781 639.7451,463.6563 Q639.0576,464.7188 639.0576,466.8125 Q639.0576,468.9063 639.7451,469.9844 Q640.4326,471.0469 641.7764,471.0469 Q642.4014,471.0469 642.9951,470.7813 Q643.5889,470.5 644.2139,469.9219 L644.2139,472.6406 Z " fill="#000000"/><text fill="#000000" font-family="sans-serif" font-size="14" lengthAdjust="spacing" textLength="147.0205" x="661.7451" y="471.8467">ldes::RetentionPolicy</text><line style="stroke:#181818;stroke-width:0.5;" x1="575" x2="863.0107" y1="483" y2="483"/><ellipse cx="585" cy="496.6484" fill="none" rx="3" ry="3" style="stroke:#038048;stroke-width:1.0;"/><text fill="#000000" font-family="sans-serif" font-size="14" lengthAdjust="spacing" textLength="141.0391" x="594" y="499.9951">ldes:fullLogDuration</text><ellipse cx="585" cy="512.9453" fill="none" rx="3" ry="3" style="stroke:#038048;stroke-width:1.0;"/><text fill="#000000" font-family="sans-serif" font-size="14" lengthAdjust="spacing" textLength="203.5469" x="594" y="516.292">ldes:startingFrom : dateTime</text><ellipse cx="585" cy="529.2422" fill="none" rx="3" ry="3" style="stroke:#038048;stroke-width:1.0;"/><text fill="#000000" font-family="sans-serif" font-size="14" lengthAdjust="spacing" textLength="139.6924" x="594" y="532.5889">ldes:versionAmount</text><ellipse cx="585" cy="545.5391" fill="none" rx="3" ry="3" style="stroke:#038048;stroke-width:1.0;"/><text fill="#000000" font-family="sans-serif" font-size="14" lengthAdjust="spacing" textLength="264.0107" x="594" y="548.8857">ldes:versionDeleteDuration : duration</text><ellipse cx="585" cy="561.8359" fill="none" rx="3" ry="3" style="stroke:#038048;stroke-width:1.0;"/><text fill="#000000" font-family="sans-serif" font-size="14" lengthAdjust="spacing" textLength="218.0117" x="594" y="565.1826">ldes:versionDuration : duration</text><line style="stroke:#181818;stroke-width:0.5;" x1="575" x2="863.0107" y1="572.4844" y2="572.4844"/></g><!--class ldes::EventStream--><g id="elem_ldes::EventStream"><rect codeLine="36" fill="#F1F1F1" height="145.7813" id="ldes::EventStream" rx="2.5" ry="2.5" style="stroke:#181818;stroke-width:0.5;" width="220.6396" x="823.5" y="275"/><ellipse cx="865.2543" cy="291" fill="#ADD1B2" rx="11" ry="11" style="stroke:#181818;stroke-width:1.0;"/><path d="M868.2231,296.6406 Q867.645,296.9375 867.0043,297.0781 Q866.3637,297.2344 865.6606,297.2344 Q863.1606,297.2344 861.8325,295.5938 Q860.52,293.9375 860.52,290.8125 Q860.52,287.6875 861.8325,286.0313 Q863.1606,284.375 865.6606,284.375 Q866.3637,284.375 867.0043,284.5313 Q867.6606,284.6875 868.2231,284.9844 L868.2231,287.7031 Q867.5981,287.125 867.0043,286.8594 Q866.4106,286.5781 865.7856,286.5781 Q864.4418,286.5781 863.7543,287.6563 Q863.0668,288.7188 863.0668,290.8125 Q863.0668,292.9063 863.7543,293.9844 Q864.4418,295.0469 865.7856,295.0469 Q866.4106,295.0469 867.0043,294.7813 Q867.5981,294.5 868.2231,293.9219 L868.2231,296.6406 Z " fill="#000000"/><text fill="#000000" font-family="sans-serif" font-size="14" lengthAdjust="spacing" textLength="129.1855" x="885.1998" y="295.8467">ldes::EventStream</text><line style="stroke:#181818;stroke-width:0.5;" x1="824.5" x2="1043.1396" y1="307" y2="307"/><ellipse cx="834.5" cy="320.6484" fill="none" rx="3" ry="3" style="stroke:#038048;stroke-width:1.0;"/><text fill="#000000" font-family="sans-serif" font-size="14" lengthAdjust="spacing" textLength="165.7646" x="843.5" y="323.9951">ldes:pollingInterval : int</text><ellipse cx="834.5" cy="336.9453" fill="none" rx="3" ry="3" style="stroke:#038048;stroke-width:1.0;"/><text fill="#000000" font-family="sans-serif" font-size="14" lengthAdjust="spacing" textLength="132.248" x="843.5" y="340.292">ldes:sequencePath</text><ellipse cx="834.5" cy="353.2422" fill="none" rx="3" ry="3" style="stroke:#038048;stroke-width:1.0;"/><text fill="#000000" font-family="sans-serif" font-size="14" lengthAdjust="spacing" textLength="140.3008" x="843.5" y="356.5889">ldes:timestampPath</text><ellipse cx="834.5" cy="369.5391" fill="none" rx="3" ry="3" style="stroke:#038048;stroke-width:1.0;"/><text fill="#000000" font-family="sans-serif" font-size="14" lengthAdjust="spacing" textLength="132.0088" x="843.5" y="372.8857">ldes:versionOfPath</text><ellipse cx="834.5" cy="385.8359" fill="none" rx="3" ry="3" style="stroke:#038048;stroke-width:1.0;"/><text fill="#000000" font-family="sans-serif" font-size="14" lengthAdjust="spacing" textLength="185.1172" x="843.5" y="389.1826">ldes:versionSequencePath</text><ellipse cx="834.5" cy="402.1328" fill="none" rx="3" ry="3" style="stroke:#038048;stroke-width:1.0;"/><text fill="#000000" font-family="sans-serif" font-size="14" lengthAdjust="spacing" textLength="194.6396" x="843.5" y="405.4795">ldes:versionTimestampPath</text><line style="stroke:#181818;stroke-width:0.5;" x1="824.5" x2="1043.1396" y1="412.7813" y2="412.7813"/></g><!--class ldes::EventSource--><g id="elem_ldes::EventSource"><rect codeLine="45" fill="#F1F1F1" height="194.6719" id="ldes::EventSource" rx="2.5" ry="2.5" style="stroke:#181818;stroke-width:0.5;" width="246.1035" x="386" y="641"/><ellipse cx="441.4941" cy="657" fill="#ADD1B2" rx="11" ry="11" style="stroke:#181818;stroke-width:1.0;"/><path d="M444.4629,662.6406 Q443.8848,662.9375 443.2441,663.0781 Q442.6035,663.2344 441.9004,663.2344 Q439.4004,663.2344 438.0723,661.5938 Q436.7598,659.9375 436.7598,656.8125 Q436.7598,653.6875 438.0723,652.0313 Q439.4004,650.375 441.9004,650.375 Q442.6035,650.375 443.2441,650.5313 Q443.9004,650.6875 444.4629,650.9844 L444.4629,653.7031 Q443.8379,653.125 443.2441,652.8594 Q442.6504,652.5781 442.0254,652.5781 Q440.6816,652.5781 439.9941,653.6563 Q439.3066,654.7188 439.3066,656.8125 Q439.3066,658.9063 439.9941,659.9844 Q440.6816,661.0469 442.0254,661.0469 Q442.6504,661.0469 443.2441,660.7813 Q443.8379,660.5 444.4629,659.9219 L444.4629,662.6406 Z " fill="#000000"/><text fill="#000000" font-family="sans-serif" font-size="14" lengthAdjust="spacing" textLength="126.6152" x="461.9941" y="661.8467">ldes::EventSource</text><line style="stroke:#181818;stroke-width:0.5;" x1="387" x2="631.1035" y1="673" y2="673"/><ellipse cx="397" cy="686.6484" fill="none" rx="3" ry="3" style="stroke:#038048;stroke-width:1.0;"/><text fill="#000000" font-family="sans-serif" font-size="14" lengthAdjust="spacing" textLength="220.1035" x="406" y="689.9951">ldes:transactionFinalizedObject</text><ellipse cx="397" cy="702.9453" fill="none" rx="3" ry="3" style="stroke:#038048;stroke-width:1.0;"/><text fill="#000000" font-family="sans-serif" font-size="14" lengthAdjust="spacing" textLength="205.8916" x="406" y="706.292">ldes:transactionFinalizedPath</text><ellipse cx="397" cy="719.2422" fill="none" rx="3" ry="3" style="stroke:#038048;stroke-width:1.0;"/><text fill="#000000" font-family="sans-serif" font-size="14" lengthAdjust="spacing" textLength="143.8691" x="406" y="722.5889">ldes:transactionPath</text><ellipse cx="397" cy="735.5391" fill="none" rx="3" ry="3" style="stroke:#038048;stroke-width:1.0;"/><text fill="#000000" font-family="sans-serif" font-size="14" lengthAdjust="spacing" textLength="177.0986" x="406" y="738.8857">ldes:versionCreateObject</text><ellipse cx="397" cy="751.8359" fill="none" rx="3" ry="3" style="stroke:#038048;stroke-width:1.0;"/><text fill="#000000" font-family="sans-serif" font-size="14" lengthAdjust="spacing" textLength="162.8867" x="406" y="755.1826">ldes:versionCreatePath</text><ellipse cx="397" cy="768.1328" fill="none" rx="3" ry="3" style="stroke:#038048;stroke-width:1.0;"/><text fill="#000000" font-family="sans-serif" font-size="14" lengthAdjust="spacing" textLength="176.2715" x="406" y="771.4795">ldes:versionDeleteObject</text><ellipse cx="397" cy="784.4297" fill="none" rx="3" ry="3" style="stroke:#038048;stroke-width:1.0;"/><text fill="#000000" font-family="sans-serif" font-size="14" lengthAdjust="spacing" textLength="162.0596" x="406" y="787.7764">ldes:versionDeletePath</text><ellipse cx="397" cy="800.7266" fill="none" rx="3" ry="3" style="stroke:#038048;stroke-width:1.0;"/><text fill="#000000" font-family="sans-serif" font-size="14" lengthAdjust="spacing" textLength="180.9746" x="406" y="804.0732">ldes:versionUpdateObject</text><ellipse cx="397" cy="817.0234" fill="none" rx="3" ry="3" style="stroke:#038048;stroke-width:1.0;"/><text fill="#000000" font-family="sans-serif" font-size="14" lengthAdjust="spacing" textLength="166.7627" x="406" y="820.3701">ldes:versionUpdatePath</text><line style="stroke:#181818;stroke-width:0.5;" x1="387" x2="631.1035" y1="827.6719" y2="827.6719"/></g><!--link tree::Node to tree::SearchTree--><g id="link_tree::Node_tree::SearchTree"><path codeLine="61" d="M464,245.03 C464,305.46 464,431.71 464,485.28 " fill="none" id="tree::Node-to-tree::SearchTree" style="stroke:#181818;stroke-width:1.0;"/><polygon fill="#181818" points="464,491.28,468,482.28,464,486.28,460,482.28,464,491.28" style="stroke:#181818;stroke-width:1.0;"/><text fill="#000000" font-family="sans-serif" font-size="13" lengthAdjust="spacing" textLength="134.7925" x="465" y="352.5669">tree:viewDescription</text></g><!--link tree::Node to dcat::Distribution--><g id="link_tree::Node_dcat::Distribution"><path codeLine="62" d="M361.79,220.08 C275.58,227.4 161.22,242.96 129,275 C70.05,333.62 74.391,437.3997 79.921,485.2397 " fill="none" id="tree::Node-to-dcat::Distribution" style="stroke:#181818;stroke-width:1.0;"/><polygon fill="#181818" points="80.61,491.2,83.5501,481.8002,80.0359,486.2331,75.603,482.7188,80.61,491.2" style="stroke:#181818;stroke-width:1.0;"/><text fill="#000000" font-family="sans-serif" font-size="13" lengthAdjust="spacing" textLength="134.7925" x="130" y="352.5669">tree:viewDescription</text></g><!--link tree::Node to dcat::DataService--><g id="link_tree::Node_dcat::DataService"><path codeLine="63" d="M361.98,242.05 C346.03,250.39 331.15,261.15 320,275 C268.13,339.42 268.7987,439.1363 272.2187,485.5063 " fill="none" id="tree::Node-to-dcat::DataService" style="stroke:#181818;stroke-width:1.0;"/><polygon fill="#181818" points="272.66,491.49,275.9872,482.2202,272.2922,486.5035,268.0088,482.8086,272.66,491.49" style="stroke:#181818;stroke-width:1.0;"/><text fill="#000000" font-family="sans-serif" font-size="13" lengthAdjust="spacing" textLength="134.7925" x="321" y="352.5669">tree:viewDescription</text></g><!--link tree::Node to ldes::RetentionPolicy--><g id="link_tree::Node_ldes::RetentionPolicy"><path codeLine="64" d="M564.42,245.08 C580.27,253.07 595.51,262.92 608,275 C608.87,275.84 654.5971,374.8116 687.1871,445.4716 " fill="none" id="tree::Node-to-ldes::RetentionPolicy" style="stroke:#181818;stroke-width:1.0;"/><polygon fill="#181818" points="689.7,450.92,689.5629,441.0721,687.6059,446.3797,682.2983,444.4227,689.7,450.92" style="stroke:#181818;stroke-width:1.0;"/><text fill="#000000" font-family="sans-serif" font-size="13" lengthAdjust="spacing" textLength="128.4512" x="675" y="352.5669">ldes:retentionPolicy</text></g><!--link tree::Node to tree::Relation--><g id="link_tree::Node_tree::Relation"><path codeLine="65" d="M456.62,180.98 C451.38,158.96 445.6387,134.8471 439.6887,109.8371 " fill="none" id="tree::Node-to-tree::Relation" style="stroke:#181818;stroke-width:1.0;"/><polygon fill="#181818" points="438.3,104,436.4916,113.6814,439.4572,108.8642,444.2744,111.8299,438.3,104" style="stroke:#181818;stroke-width:1.0;"/><text fill="#000000" font-family="sans-serif" font-size="13" lengthAdjust="spacing" textLength="80.6406" x="450" y="147.0669">tree:relation</text></g><!--link tree::Relation to tree::Node--><g id="link_tree::Relation_tree::Node"><path codeLine="66" d="M378.83,104.27 C369.49,119.14 364.82,135.66 373,151 C379.27,162.75 384.1374,168.9937 394.8474,177.1537 " fill="none" id="tree::Relation-to-tree::Node" style="stroke:#181818;stroke-width:1.0;"/><polygon fill="#181818" points="399.62,180.79,394.8853,172.1539,395.6428,177.7598,390.0369,178.5173,399.62,180.79" style="stroke:#181818;stroke-width:1.0;"/><text fill="#000000" font-family="sans-serif" font-size="13" lengthAdjust="spacing" textLength="63.2607" x="374" y="147.0669">tree:node</text></g><!--link tree::Collection to tree::Node--><g id="link_tree::Collection_tree::Node"><path codeLine="67" d="M729.61,87.59 C671.71,114.71 593.5734,151.3047 535.7034,178.4147 " fill="none" id="tree::Collection-to-tree::Node" style="stroke:#181818;stroke-width:1.0;"/><polygon fill="#181818" points="530.27,180.96,540.1169,180.7642,534.7978,178.8389,536.7231,173.5198,530.27,180.96" style="stroke:#181818;stroke-width:1.0;"/><text fill="#000000" font-family="sans-serif" font-size="13" lengthAdjust="spacing" textLength="60.7534" x="631" y="147.0669">tree:view</text></g><!--link tree::Collection to sh::NodeShape--><g id="link_tree::Collection_sh::NodeShape"><path codeLine="68" d="M796,87.59 C796,117.37 796,155.64 796,182.56 " fill="none" id="tree::Collection-to-sh::NodeShape" style="stroke:#181818;stroke-width:1.0;"/><polygon fill="#181818" points="796,188.56,800,179.56,796,183.56,792,179.56,796,188.56" style="stroke:#181818;stroke-width:1.0;"/><text fill="#000000" font-family="sans-serif" font-size="13" lengthAdjust="spacing" textLength="70.0464" x="797" y="147.0669">tree:shape</text></g><!--reverse link tree::Collection to ldes::EventStream--><g id="link_tree::Collection_ldes::EventStream"><path codeLine="69" d="M849.6677,99.7642 C864.0177,112.7042 865.77,116.68 876,134 C901.44,177.06 916.01,231.57 924.19,274.67 " fill="none" id="tree::Collection-backto-ldes::EventStream" style="stroke:#181818;stroke-width:1.0;"/><polygon fill="none" points="836.3,87.71,845.6496,104.2201,853.6858,95.3083,836.3,87.71" style="stroke:#181818;stroke-width:1.0;"/></g><!--reverse link dcat::Distribution to ldes::EventSource--><g id="link_dcat::Distribution_ldes::EventSource"><path codeLine="70" d="M131.0073,550.0221 C149.0573,562.6021 157.45,567.74 179,580 C245.63,617.91 322.82,655.09 385.79,683.81 " fill="none" id="dcat::Distribution-backto-ldes::EventSource" style="stroke:#181818;stroke-width:1.0;"/><polygon fill="none" points="116.24,539.73,127.5766,554.9445,134.438,545.0997,116.24,539.73" style="stroke:#181818;stroke-width:1.0;"/></g><!--link ldes::EventStream to ldes::EventSource--><g id="link_ldes::EventStream_ldes::EventSource"><path codeLine="71" d="M934.02,421.12 C930.4,470.92 918.02,535.86 881,580 C818.47,654.56 720.253,693.0737 638.083,714.0837 " fill="none" id="ldes::EventStream-to-ldes::EventSource" style="stroke:#181818;stroke-width:1.0;"/><polygon fill="#181818" points="632.27,715.57,641.9804,717.2158,637.1142,714.3314,639.9986,709.4652,632.27,715.57" style="stroke:#181818;stroke-width:1.0;"/><text fill="#000000" font-family="sans-serif" font-size="13" lengthAdjust="spacing" textLength="134.7925" x="932" y="520.0669">tree:viewDescription</text></g><!--SRC=[bLJRRjGm47tFLrZxmaErFn01KhLB9IH4Ax9ym2IPDaQ-17kog2tzTvmuDoSsWdtQp9npF7CyOvQzOn_sFnSz2R0MBGDLiriYmykEq2RWBAjwE3kGGSppRoY0k5O7zfgn6pO4Mw1c_Z0eWIkkdZuJIijonXNDoIk83hEthUXNNUCeA6gqEPUo8oW5EdgfjK1GUz992u7LjXQ9iaIpHjl67r0qqE9XYTSLK9wVkVK6z3hP9WS41Pehht19-SCB15Cr5_T_fJZKxXmYLBtSWnQyUbxtzTW9yKK_dJipU3Z7BO4XPzcTqTArN0FXXKkSyrSqrk5lfUwycUle6OKxSTBiwLlv2HY1l6sh_tHrnHUkIP3hobjdTd-dYfmV89PhzVNZpmvLXG_Z80n1SXsuncGRHCTQxXzZqIAcC-OkWLoYRjsPAfWaCg0i35DonnK8_eBrVVd3pSrV8M4Z2o1MsCbvHRWH3N8nbh-rECldOgplRPqyo-TcTrBBFosmRNYRtlbWCO_7Zv6vTpFWTvhZhpFQol1s6AazDR9f_qrUhUA_SnCBcNlVJ1XFzhmyUVdqnFb0jWEiM5vcP2ZtaKNUhHI-Ros93n-qYMBxhnZd_U_ZCRRTMVHUzcY_KrdiVLYP7EnVueB-0000]--></g></svg>