<svg xmlns="http://www.w3.org/2000/svg" xmlns:xlink="http://www.w3.org/1999/xlink" contentStyleType="text/css" height="907px" preserveAspectRatio="none" style="width:1430px;height:907px;" version="1.1" viewBox="0 0 1430 907" width="1430px" zoomAndPan="magnify"><title>LDES vocabulary overview</title><defs/><g><text fill="#000000" font-family="Arial" font-size="14" font-weight="bold" lengthAdjust="spacing" textLength="208.1885" x="590.6558" y="22.9951">LDES vocabulary overview</text><!--class DcatDataset--><g id="elem_DcatDataset"><rect codeLine="21" fill="#FFFFFF" height="56.2656" id="DcatDataset" rx="3" ry="3" style="stroke:#005EA8;stroke-width:0.5;" width="122.1934" x="12" y="623.7969"/><ellipse cx="27" cy="643.9297" fill="#ADD1B2" rx="11" ry="11" style="stroke:#181818;stroke-width:1.0;"/><path d="M29.9688,649.5703 Q29.3906,649.8672 28.75,650.0078 Q28.1094,650.1641 27.4063,650.1641 Q24.9063,650.1641 23.5781,648.5234 Q22.2656,646.8672 22.2656,643.7422 Q22.2656,640.6172 23.5781,638.9609 Q24.9063,637.3047 27.4063,637.3047 Q28.1094,637.3047 28.75,637.4609 Q29.4063,637.6172 29.9688,637.9141 L29.9688,640.6328 Q29.3438,640.0547 28.75,639.7891 Q28.1563,639.5078 27.5313,639.5078 Q26.1875,639.5078 25.5,640.5859 Q24.8125,641.6484 24.8125,643.7422 Q24.8125,645.8359 25.5,646.9141 Q26.1875,647.9766 27.5313,647.9766 Q28.1563,647.9766 28.75,647.7109 Q29.3438,647.4297 29.9688,646.8516 L29.9688,649.5703 Z " fill="#000000"/><text fill="#000000" font-family="Arial" font-size="12" font-style="italic" lengthAdjust="spacing" textLength="64.6113" x="53.791" y="639.9355">&#171;external&#187;</text><text fill="#1F1F1F" font-family="Arial" font-size="14" lengthAdjust="spacing" textLength="90.1934" x="41" y="655.7607">dcat:Dataset</text><line style="stroke:#005EA8;stroke-width:0.5;" x1="13" x2="133.1934" y1="664.0625" y2="664.0625"/><line style="stroke:#005EA8;stroke-width:0.5;" x1="13" x2="133.1934" y1="672.0625" y2="672.0625"/></g><!--class DcatDistribution--><g id="elem_DcatDistribution"><rect codeLine="22" fill="#FFFFFF" height="56.2656" id="DcatDistribution" rx="3" ry="3" style="stroke:#005EA8;stroke-width:0.5;" width="149.0449" x="196.5" y="230.2969"/><ellipse cx="211.5" cy="250.4297" fill="#ADD1B2" rx="11" ry="11" style="stroke:#181818;stroke-width:1.0;"/><path d="M214.4688,256.0703 Q213.8906,256.3672 213.25,256.5078 Q212.6094,256.6641 211.9063,256.6641 Q209.4063,256.6641 208.0781,255.0234 Q206.7656,253.3672 206.7656,250.2422 Q206.7656,247.1172 208.0781,245.4609 Q209.4063,243.8047 211.9063,243.8047 Q212.6094,243.8047 213.25,243.9609 Q213.9063,244.1172 214.4688,244.4141 L214.4688,247.1328 Q213.8438,246.5547 213.25,246.2891 Q212.6563,246.0078 212.0313,246.0078 Q210.6875,246.0078 210,247.0859 Q209.3125,248.1484 209.3125,250.2422 Q209.3125,252.3359 210,253.4141 Q210.6875,254.4766 212.0313,254.4766 Q212.6563,254.4766 213.25,254.2109 Q213.8438,253.9297 214.4688,253.3516 L214.4688,256.0703 Z " fill="#000000"/><text fill="#000000" font-family="Arial" font-size="12" font-style="italic" lengthAdjust="spacing" textLength="64.6113" x="251.7168" y="246.4355">&#171;external&#187;</text><text fill="#1F1F1F" font-family="Arial" font-size="14" lengthAdjust="spacing" textLength="117.0449" x="225.5" y="262.2607">dcat:Distribution</text><line style="stroke:#005EA8;stroke-width:0.5;" x1="197.5" x2="344.5449" y1="270.5625" y2="270.5625"/><line style="stroke:#005EA8;stroke-width:0.5;" x1="197.5" x2="344.5449" y1="278.5625" y2="278.5625"/></g><!--class TreeCollection--><g id="elem_TreeCollection"><rect codeLine="23" fill="#FFFFFF" height="56.2656" id="TreeCollection" rx="3" ry="3" style="stroke:#005EA8;stroke-width:0.5;" width="134.4365" x="6" y="431.2969"/><ellipse cx="21" cy="451.4297" fill="#ADD1B2" rx="11" ry="11" style="stroke:#181818;stroke-width:1.0;"/><path d="M23.9688,457.0703 Q23.3906,457.3672 22.75,457.5078 Q22.1094,457.6641 21.4063,457.6641 Q18.9063,457.6641 17.5781,456.0234 Q16.2656,454.3672 16.2656,451.2422 Q16.2656,448.1172 17.5781,446.4609 Q18.9063,444.8047 21.4063,444.8047 Q22.1094,444.8047 22.75,444.9609 Q23.4063,445.1172 23.9688,445.4141 L23.9688,448.1328 Q23.3438,447.5547 22.75,447.2891 Q22.1563,447.0078 21.5313,447.0078 Q20.1875,447.0078 19.5,448.0859 Q18.8125,449.1484 18.8125,451.2422 Q18.8125,453.3359 19.5,454.4141 Q20.1875,455.4766 21.5313,455.4766 Q22.1563,455.4766 22.75,455.2109 Q23.3438,454.9297 23.9688,454.3516 L23.9688,457.0703 Z " fill="#000000"/><text fill="#000000" font-family="Arial" font-size="12" font-style="italic" lengthAdjust="spacing" textLength="64.6113" x="53.9126" y="447.4355">&#171;external&#187;</text><text fill="#1F1F1F" font-family="Arial" font-size="14" lengthAdjust="spacing" textLength="102.4365" x="35" y="463.2607">tree:Collection</text><line style="stroke:#005EA8;stroke-width:0.5;" x1="7" x2="139.4365" y1="471.5625" y2="471.5625"/><line style="stroke:#005EA8;stroke-width:0.5;" x1="7" x2="139.4365" y1="479.5625" y2="479.5625"/></g><!--class TreeNode--><g id="elem_TreeNode"><rect codeLine="24" fill="#FFFFFF" height="56.2656" id="TreeNode" rx="3" ry="3" style="stroke:#005EA8;stroke-width:0.5;" width="101.7266" x="934" y="431.2969"/><ellipse cx="949" cy="451.4297" fill="#ADD1B2" rx="11" ry="11" style="stroke:#181818;stroke-width:1.0;"/><path d="M951.9688,457.0703 Q951.3906,457.3672 950.75,457.5078 Q950.1094,457.6641 949.4063,457.6641 Q946.9063,457.6641 945.5781,456.0234 Q944.2656,454.3672 944.2656,451.2422 Q944.2656,448.1172 945.5781,446.4609 Q946.9063,444.8047 949.4063,444.8047 Q950.1094,444.8047 950.75,444.9609 Q951.4063,445.1172 951.9688,445.4141 L951.9688,448.1328 Q951.3438,447.5547 950.75,447.2891 Q950.1563,447.0078 949.5313,447.0078 Q948.1875,447.0078 947.5,448.0859 Q946.8125,449.1484 946.8125,451.2422 Q946.8125,453.3359 947.5,454.4141 Q948.1875,455.4766 949.5313,455.4766 Q950.1563,455.4766 950.75,455.2109 Q951.3438,454.9297 951.9688,454.3516 L951.9688,457.0703 Z " fill="#000000"/><text fill="#000000" font-family="Arial" font-size="12" font-style="italic" lengthAdjust="spacing" textLength="64.6113" x="965.5576" y="447.4355">&#171;external&#187;</text><text fill="#1F1F1F" font-family="Arial" font-size="14" lengthAdjust="spacing" textLength="69.7266" x="963" y="463.2607">tree:Node</text><line style="stroke:#005EA8;stroke-width:0.5;" x1="935" x2="1034.7266" y1="471.5625" y2="471.5625"/><line style="stroke:#005EA8;stroke-width:0.5;" x1="935" x2="1034.7266" y1="479.5625" y2="479.5625"/></g><!--class TreeRelation--><g id="elem_TreeRelation"><rect codeLine="25" fill="#FFFFFF" height="56.2656" id="TreeRelation" rx="3" ry="3" style="stroke:#005EA8;stroke-width:0.5;" width="122.8154" x="1267.5" y="623.7969"/><ellipse cx="1282.5" cy="643.9297" fill="#ADD1B2" rx="11" ry="11" style="stroke:#181818;stroke-width:1.0;"/><path d="M1285.4688,649.5703 Q1284.8906,649.8672 1284.25,650.0078 Q1283.6094,650.1641 1282.9063,650.1641 Q1280.4063,650.1641 1279.0781,648.5234 Q1277.7656,646.8672 1277.7656,643.7422 Q1277.7656,640.6172 1279.0781,638.9609 Q1280.4063,637.3047 1282.9063,637.3047 Q1283.6094,637.3047 1284.25,637.4609 Q1284.9063,637.6172 1285.4688,637.9141 L1285.4688,640.6328 Q1284.8438,640.0547 1284.25,639.7891 Q1283.6563,639.5078 1283.0313,639.5078 Q1281.6875,639.5078 1281,640.5859 Q1280.3125,641.6484 1280.3125,643.7422 Q1280.3125,645.8359 1281,646.9141 Q1281.6875,647.9766 1283.0313,647.9766 Q1283.6563,647.9766 1284.25,647.7109 Q1284.8438,647.4297 1285.4688,646.8516 L1285.4688,649.5703 Z " fill="#000000"/><text fill="#000000" font-family="Arial" font-size="12" font-style="italic" lengthAdjust="spacing" textLength="64.6113" x="1309.6021" y="639.9355">&#171;external&#187;</text><text fill="#1F1F1F" font-family="Arial" font-size="14" lengthAdjust="spacing" textLength="90.8154" x="1296.5" y="655.7607">tree:Relation</text><line style="stroke:#005EA8;stroke-width:0.5;" x1="1268.5" x2="1389.3154" y1="664.0625" y2="664.0625"/><line style="stroke:#005EA8;stroke-width:0.5;" x1="1268.5" x2="1389.3154" y1="672.0625" y2="672.0625"/></g><!--class NodeShape--><g id="elem_NodeShape"><rect codeLine="26" fill="#FFFFFF" height="56.2656" id="NodeShape" rx="3" ry="3" style="stroke:#005EA8;stroke-width:0.5;" width="133.2607" x="321.5" y="431.2969"/><ellipse cx="336.5" cy="451.4297" fill="#ADD1B2" rx="11" ry="11" style="stroke:#181818;stroke-width:1.0;"/><path d="M339.4688,457.0703 Q338.8906,457.3672 338.25,457.5078 Q337.6094,457.6641 336.9063,457.6641 Q334.4063,457.6641 333.0781,456.0234 Q331.7656,454.3672 331.7656,451.2422 Q331.7656,448.1172 333.0781,446.4609 Q334.4063,444.8047 336.9063,444.8047 Q337.6094,444.8047 338.25,444.9609 Q338.9063,445.1172 339.4688,445.4141 L339.4688,448.1328 Q338.8438,447.5547 338.25,447.2891 Q337.6563,447.0078 337.0313,447.0078 Q335.6875,447.0078 335,448.0859 Q334.3125,449.1484 334.3125,451.2422 Q334.3125,453.3359 335,454.4141 Q335.6875,455.4766 337.0313,455.4766 Q337.6563,455.4766 338.25,455.2109 Q338.8438,454.9297 339.4688,454.3516 L339.4688,457.0703 Z " fill="#000000"/><text fill="#000000" font-family="Arial" font-size="12" font-style="italic" lengthAdjust="spacing" textLength="64.6113" x="368.8247" y="447.4355">&#171;external&#187;</text><text fill="#1F1F1F" font-family="Arial" font-size="14" lengthAdjust="spacing" textLength="101.2607" x="350.5" y="463.2607">sh:NodeShape</text><line style="stroke:#005EA8;stroke-width:0.5;" x1="322.5" x2="453.7607" y1="471.5625" y2="471.5625"/><line style="stroke:#005EA8;stroke-width:0.5;" x1="322.5" x2="453.7607" y1="479.5625" y2="479.5625"/></g><!--class Member--><g id="elem_Member"><rect codeLine="27" fill="#FFFFFF" height="56.2656" id="Member" rx="3" ry="3" style="stroke:#005EA8;stroke-width:0.5;" width="112.0215" x="172" y="623.7969"/><ellipse cx="187" cy="643.9297" fill="#ADD1B2" rx="11" ry="11" style="stroke:#181818;stroke-width:1.0;"/><path d="M189.9688,649.5703 Q189.3906,649.8672 188.75,650.0078 Q188.1094,650.1641 187.4063,650.1641 Q184.9063,650.1641 183.5781,648.5234 Q182.2656,646.8672 182.2656,643.7422 Q182.2656,640.6172 183.5781,638.9609 Q184.9063,637.3047 187.4063,637.3047 Q188.1094,637.3047 188.75,637.4609 Q189.4063,637.6172 189.9688,637.9141 L189.9688,640.6328 Q189.3438,640.0547 188.75,639.7891 Q188.1563,639.5078 187.5313,639.5078 Q186.1875,639.5078 185.5,640.5859 Q184.8125,641.6484 184.8125,643.7422 Q184.8125,645.8359 185.5,646.9141 Q186.1875,647.9766 187.5313,647.9766 Q188.1563,647.9766 188.75,647.7109 Q189.3438,647.4297 189.9688,646.8516 L189.9688,649.5703 Z " fill="#000000"/><text fill="#000000" font-family="Arial" font-size="12" font-style="italic" lengthAdjust="spacing" textLength="67.2422" x="207.3896" y="639.9355">&#171;resource&#187;</text><text fill="#1F1F1F" font-family="Arial" font-size="14" lengthAdjust="spacing" textLength="80.0215" x="201" y="655.7607">Member IRI</text><line style="stroke:#005EA8;stroke-width:0.5;" x1="173" x2="283.0215" y1="664.0625" y2="664.0625"/><line style="stroke:#005EA8;stroke-width:0.5;" x1="173" x2="283.0215" y1="672.0625" y2="672.0625"/></g><!--class EventStream--><g id="elem_EventStream"><rect codeLine="29" fill="#FFFFFF" height="145.7813" id="EventStream" rx="3" ry="3" style="stroke:#005EA8;stroke-width:0.5;" width="409.8789" x="364" y="185.2969"/><ellipse cx="502.4551" cy="201.2969" fill="#ADD1B2" rx="11" ry="11" style="stroke:#181818;stroke-width:1.0;"/><path d="M505.4238,206.9375 Q504.8457,207.2344 504.2051,207.375 Q503.5645,207.5313 502.8613,207.5313 Q500.3613,207.5313 499.0332,205.8906 Q497.7207,204.2344 497.7207,201.1094 Q497.7207,197.9844 499.0332,196.3281 Q500.3613,194.6719 502.8613,194.6719 Q503.5645,194.6719 504.2051,194.8281 Q504.8613,194.9844 505.4238,195.2813 L505.4238,198 Q504.7988,197.4219 504.2051,197.1563 Q503.6113,196.875 502.9863,196.875 Q501.6426,196.875 500.9551,197.9531 Q500.2676,199.0156 500.2676,201.1094 Q500.2676,203.2031 500.9551,204.2813 Q501.6426,205.3438 502.9863,205.3438 Q503.6113,205.3438 504.2051,205.0781 Q504.7988,204.7969 505.4238,204.2188 L505.4238,206.9375 Z " fill="#000000"/><text fill="#1F1F1F" font-family="Arial" font-size="14" lengthAdjust="spacing" textLength="124.4688" x="522.9551" y="206.1436">ldes:EventStream</text><line style="stroke:#005EA8;stroke-width:0.5;" x1="365" x2="772.8789" y1="217.2969" y2="217.2969"/><text fill="#000000" font-family="Arial" font-size="14" lengthAdjust="spacing" textLength="343.54" x="370" y="234.292">ldes:timestampPath : SHACL property path [0..1]</text><text fill="#000000" font-family="Arial" font-size="14" lengthAdjust="spacing" textLength="335.4873" x="370" y="250.5889">ldes:sequencePath : SHACL property path [0..1]</text><text fill="#000000" font-family="Arial" font-size="14" lengthAdjust="spacing" textLength="268.9053" x="370" y="266.8857">ldes:pollingInterval : xsd:integer [0..1]</text><text fill="#000000" font-family="Arial" font-size="14" lengthAdjust="spacing" textLength="335.248" x="370" y="283.1826">ldes:versionOfPath : SHACL property path [0..1]</text><text fill="#000000" font-family="Arial" font-size="14" lengthAdjust="spacing" textLength="397.8789" x="370" y="299.4795">ldes:versionTimestampPath : SHACL property path [0..1]</text><text fill="#000000" font-family="Arial" font-size="14" lengthAdjust="spacing" textLength="388.3564" x="370" y="315.7764">ldes:versionSequencePath : SHACL property path [0..1]</text><line style="stroke:#005EA8;stroke-width:0.5;" x1="365" x2="772.8789" y1="323.0781" y2="323.0781"/></g><!--class EventSource--><g id="elem_EventSource"><rect codeLine="38" fill="#FFFFFF" height="64.2969" id="EventSource" rx="3" ry="3" style="stroke:#005EA8;stroke-width:0.5;" width="315.7412" x="197" y="57.7969"/><ellipse cx="289.6714" cy="73.7969" fill="#ADD1B2" rx="11" ry="11" style="stroke:#181818;stroke-width:1.0;"/><path d="M292.6401,79.4375 Q292.062,79.7344 291.4214,79.875 Q290.7808,80.0313 290.0776,80.0313 Q287.5776,80.0313 286.2495,78.3906 Q284.937,76.7344 284.937,73.6094 Q284.937,70.4844 286.2495,68.8281 Q287.5776,67.1719 290.0776,67.1719 Q290.7808,67.1719 291.4214,67.3281 Q292.0776,67.4844 292.6401,67.7813 L292.6401,70.5 Q292.0151,69.9219 291.4214,69.6563 Q290.8276,69.375 290.2026,69.375 Q288.8589,69.375 288.1714,70.4531 Q287.4839,71.5156 287.4839,73.6094 Q287.4839,75.7031 288.1714,76.7813 Q288.8589,77.8438 290.2026,77.8438 Q290.8276,77.8438 291.4214,77.5781 Q292.0151,77.2969 292.6401,76.7188 L292.6401,79.4375 Z " fill="#000000"/><text fill="#1F1F1F" font-family="Arial" font-size="14" lengthAdjust="spacing" textLength="121.8984" x="310.1714" y="78.6436">ldes:EventSource</text><line style="stroke:#005EA8;stroke-width:0.5;" x1="198" x2="511.7412" y1="89.7969" y2="89.7969"/><text fill="#000000" font-family="Arial" font-size="14" lengthAdjust="spacing" textLength="303.7412" x="203" y="106.792">chronological feed for an ldes:EventStream</text><line style="stroke:#005EA8;stroke-width:0.5;" x1="198" x2="511.7412" y1="114.0938" y2="114.0938"/></g><!--class RetentionPolicy--><g id="elem_RetentionPolicy"><rect codeLine="42" fill="#FFFFFF" height="129.4844" id="RetentionPolicy" rx="3" ry="3" style="stroke:#005EA8;stroke-width:0.5;" width="347.2822" x="883.5" y="587.2969"/><ellipse cx="981.7393" cy="603.2969" fill="#ADD1B2" rx="11" ry="11" style="stroke:#181818;stroke-width:1.0;"/><path d="M984.708,608.9375 Q984.1299,609.2344 983.4893,609.375 Q982.8486,609.5313 982.1455,609.5313 Q979.6455,609.5313 978.3174,607.8906 Q977.0049,606.2344 977.0049,603.1094 Q977.0049,599.9844 978.3174,598.3281 Q979.6455,596.6719 982.1455,596.6719 Q982.8486,596.6719 983.4893,596.8281 Q984.1455,596.9844 984.708,597.2813 L984.708,600 Q984.083,599.4219 983.4893,599.1563 Q982.8955,598.875 982.2705,598.875 Q980.9268,598.875 980.2393,599.9531 Q979.5518,601.0156 979.5518,603.1094 Q979.5518,605.2031 980.2393,606.2813 Q980.9268,607.3438 982.2705,607.3438 Q982.8955,607.3438 983.4893,607.0781 Q984.083,606.7969 984.708,606.2188 L984.708,608.9375 Z " fill="#000000"/><text fill="#1F1F1F" font-family="Arial" font-size="14" lengthAdjust="spacing" textLength="142.3037" x="1002.2393" y="608.1436">ldes:RetentionPolicy</text><line style="stroke:#005EA8;stroke-width:0.5;" x1="884.5" x2="1229.7822" y1="619.2969" y2="619.2969"/><text fill="#000000" font-family="Arial" font-size="14" lengthAdjust="spacing" textLength="274.8184" x="889.5" y="636.292">ldes:startingFrom : xsd:dateTime [0..1]</text><text fill="#000000" font-family="Arial" font-size="14" lengthAdjust="spacing" textLength="284.8398" x="889.5" y="652.5889">ldes:fullLogDuration : xsd:duration [0..1]</text><text fill="#000000" font-family="Arial" font-size="14" lengthAdjust="spacing" textLength="274.7021" x="889.5" y="668.8857">ldes:versionAmount : xsd:integer [0..1]</text><text fill="#000000" font-family="Arial" font-size="14" lengthAdjust="spacing" textLength="289.2832" x="889.5" y="685.1826">ldes:versionDuration : xsd:duration [0..1]</text><text fill="#000000" font-family="Arial" font-size="14" lengthAdjust="spacing" textLength="335.2822" x="889.5" y="701.4795">ldes:versionDeleteDuration : xsd:duration [0..1]</text><line style="stroke:#005EA8;stroke-width:0.5;" x1="884.5" x2="1229.7822" y1="708.7813" y2="708.7813"/></g><!--class VersioningTerms--><g id="elem_VersioningTerms"><rect codeLine="50" fill="#FFFFFF" height="145.7813" id="VersioningTerms" rx="3" ry="3" style="stroke:#005EA8;stroke-width:0.5;" width="192.9746" x="472.5" y="386.2969"/><ellipse cx="506.7639" cy="402.2969" fill="#ADD1B2" rx="11" ry="11" style="stroke:#181818;stroke-width:1.0;"/><path d="M509.7326,407.9375 Q509.1545,408.2344 508.5139,408.375 Q507.8732,408.5313 507.1701,408.5313 Q504.6701,408.5313 503.342,406.8906 Q502.0295,405.2344 502.0295,402.1094 Q502.0295,398.9844 503.342,397.3281 Q504.6701,395.6719 507.1701,395.6719 Q507.8732,395.6719 508.5139,395.8281 Q509.1701,395.9844 509.7326,396.2813 L509.7326,399 Q509.1076,398.4219 508.5139,398.1563 Q507.9201,397.875 507.2951,397.875 Q505.9514,397.875 505.2639,398.9531 Q504.5764,400.0156 504.5764,402.1094 Q504.5764,404.2031 505.2639,405.2813 Q505.9514,406.3438 507.2951,406.3438 Q507.9201,406.3438 508.5139,406.0781 Q509.1076,405.7969 509.7326,405.2188 L509.7326,407.9375 Z " fill="#000000"/><text fill="#1F1F1F" font-family="Arial" font-size="14" lengthAdjust="spacing" textLength="118.166" x="525.0447" y="407.1436">versioning terms</text><line style="stroke:#005EA8;stroke-width:0.5;" x1="473.5" x2="664.4746" y1="418.2969" y2="418.2969"/><text fill="#000000" font-family="Arial" font-size="14" lengthAdjust="spacing" textLength="162.8867" x="478.5" y="435.292">ldes:versionCreatePath</text><text fill="#000000" font-family="Arial" font-size="14" lengthAdjust="spacing" textLength="166.7627" x="478.5" y="451.5889">ldes:versionUpdatePath</text><text fill="#000000" font-family="Arial" font-size="14" lengthAdjust="spacing" textLength="162.0596" x="478.5" y="467.8857">ldes:versionDeletePath</text><text fill="#000000" font-family="Arial" font-size="14" lengthAdjust="spacing" textLength="177.0986" x="478.5" y="484.1826">ldes:versionCreateObject</text><text fill="#000000" font-family="Arial" font-size="14" lengthAdjust="spacing" textLength="180.9746" x="478.5" y="500.4795">ldes:versionUpdateObject</text><text fill="#000000" font-family="Arial" font-size="14" lengthAdjust="spacing" textLength="176.2715" x="478.5" y="516.7764">ldes:versionDeleteObject</text><line style="stroke:#005EA8;stroke-width:0.5;" x1="473.5" x2="664.4746" y1="524.0781" y2="524.0781"/></g><!--class TransactionTerms--><g id="elem_TransactionTerms"><rect codeLine="59" fill="#FFFFFF" height="96.8906" id="TransactionTerms" rx="3" ry="3" style="stroke:#005EA8;stroke-width:0.5;" width="232.1035" x="684" y="410.7969"/><ellipse cx="733.6392" cy="426.7969" fill="#ADD1B2" rx="11" ry="11" style="stroke:#181818;stroke-width:1.0;"/><path d="M736.6079,432.4375 Q736.0298,432.7344 735.3892,432.875 Q734.7485,433.0313 734.0454,433.0313 Q731.5454,433.0313 730.2173,431.3906 Q728.9048,429.7344 728.9048,426.6094 Q728.9048,423.4844 730.2173,421.8281 Q731.5454,420.1719 734.0454,420.1719 Q734.7485,420.1719 735.3892,420.3281 Q736.0454,420.4844 736.6079,420.7813 L736.6079,423.5 Q735.9829,422.9219 735.3892,422.6563 Q734.7954,422.375 734.1704,422.375 Q732.8267,422.375 732.1392,423.4531 Q731.4517,424.5156 731.4517,426.6094 Q731.4517,428.7031 732.1392,429.7813 Q732.8267,430.8438 734.1704,430.8438 Q734.7954,430.8438 735.3892,430.5781 Q735.9829,430.2969 736.6079,429.7188 L736.6079,432.4375 Z " fill="#000000"/><text fill="#1F1F1F" font-family="Arial" font-size="14" lengthAdjust="spacing" textLength="124.3252" x="754.1392" y="431.6436">transaction terms</text><line style="stroke:#005EA8;stroke-width:0.5;" x1="685" x2="915.1035" y1="442.7969" y2="442.7969"/><text fill="#000000" font-family="Arial" font-size="14" lengthAdjust="spacing" textLength="143.8691" x="690" y="459.792">ldes:transactionPath</text><text fill="#000000" font-family="Arial" font-size="14" lengthAdjust="spacing" textLength="205.8916" x="690" y="476.0889">ldes:transactionFinalizedPath</text><text fill="#000000" font-family="Arial" font-size="14" lengthAdjust="spacing" textLength="220.1035" x="690" y="492.3857">ldes:transactionFinalizedObject</text><line style="stroke:#005EA8;stroke-width:0.5;" x1="685" x2="915.1035" y1="499.6875" y2="499.6875"/></g><!--class FormerRetentionTerms--><g id="elem_FormerRetentionTerms"><rect codeLine="65" fill="#FFFFFF" height="129.4844" id="FormerRetentionTerms" rx="3" ry="3" style="stroke:#005EA8;stroke-width:0.5;" width="238.7734" x="937.5" y="771.2969"/><ellipse cx="952.5" cy="787.2969" fill="#ADD1B2" rx="11" ry="11" style="stroke:#181818;stroke-width:1.0;"/><path d="M955.4688,792.9375 Q954.8906,793.2344 954.25,793.375 Q953.6094,793.5313 952.9063,793.5313 Q950.4063,793.5313 949.0781,791.8906 Q947.7656,790.2344 947.7656,787.1094 Q947.7656,783.9844 949.0781,782.3281 Q950.4063,780.6719 952.9063,780.6719 Q953.6094,780.6719 954.25,780.8281 Q954.9063,780.9844 955.4688,781.2813 L955.4688,784 Q954.8438,783.4219 954.25,783.1563 Q953.6563,782.875 953.0313,782.875 Q951.6875,782.875 951,783.9531 Q950.3125,785.0156 950.3125,787.1094 Q950.3125,789.2031 951,790.2813 Q951.6875,791.3438 953.0313,791.3438 Q953.6563,791.3438 954.25,791.0781 Q954.8438,790.7969 955.4688,790.2188 L955.4688,792.9375 Z " fill="#000000"/><text fill="#1F1F1F" font-family="Arial" font-size="14" lengthAdjust="spacing" textLength="206.7734" x="966.5" y="792.1436">former retention policy terms</text><line style="stroke:#005EA8;stroke-width:0.5;" x1="938.5" x2="1175.2734" y1="803.2969" y2="803.2969"/><text fill="#000000" font-family="Arial" font-size="14" lengthAdjust="spacing" textLength="162.0049" x="943.5" y="820.292">ldes:DurationAgoPolicy</text><text fill="#000000" font-family="Arial" font-size="14" lengthAdjust="spacing" textLength="177.2764" x="943.5" y="836.5889">ldes:LatestVersionSubset</text><text fill="#000000" font-family="Arial" font-size="14" lengthAdjust="spacing" textLength="157.124" x="943.5" y="852.8857">ldes:PointInTimePolicy</text><text fill="#000000" font-family="Arial" font-size="14" lengthAdjust="spacing" textLength="87.418" x="943.5" y="869.1826">ldes:amount</text><text fill="#000000" font-family="Arial" font-size="14" lengthAdjust="spacing" textLength="116.7988" x="943.5" y="885.4795">ldes:pointInTime</text><line style="stroke:#005EA8;stroke-width:0.5;" x1="938.5" x2="1175.2734" y1="892.7813" y2="892.7813"/></g><!--class OrderedRelation--><g id="elem_OrderedRelation"><rect codeLine="73" fill="#FFFFFF" height="80.5938" id="OrderedRelation" rx="3" ry="3" style="stroke:#005EA8;stroke-width:0.5;" width="238.167" x="614" y="49.2969"/><ellipse cx="672.2422" cy="65.2969" fill="#ADD1B2" rx="11" ry="11" style="stroke:#181818;stroke-width:1.0;"/><path d="M675.2109,70.9375 Q674.6328,71.2344 673.9922,71.375 Q673.3516,71.5313 672.6484,71.5313 Q670.1484,71.5313 668.8203,69.8906 Q667.5078,68.2344 667.5078,65.1094 Q667.5078,61.9844 668.8203,60.3281 Q670.1484,58.6719 672.6484,58.6719 Q673.3516,58.6719 673.9922,58.8281 Q674.6484,58.9844 675.2109,59.2813 L675.2109,62 Q674.5859,61.4219 673.9922,61.1563 Q673.3984,60.875 672.7734,60.875 Q671.4297,60.875 670.7422,61.9531 Q670.0547,63.0156 670.0547,65.1094 Q670.0547,67.2031 670.7422,68.2813 Q671.4297,69.3438 672.7734,69.3438 Q673.3984,69.3438 673.9922,69.0781 Q674.5859,68.7969 675.2109,68.2188 L675.2109,70.9375 Z " fill="#000000"/><text fill="#1F1F1F" font-family="Arial" font-size="14" lengthAdjust="spacing" textLength="113.1826" x="692.7422" y="70.1436">ordered relation</text><line style="stroke:#005EA8;stroke-width:0.5;" x1="615" x2="851.167" y1="81.2969" y2="81.2969"/><text fill="#000000" font-family="Arial" font-size="14" lengthAdjust="spacing" textLength="226.167" x="620" y="98.292">tree:path : SHACL property path</text><text fill="#000000" font-family="Arial" font-size="14" lengthAdjust="spacing" textLength="125.1523" x="620" y="114.5889">tree:value : literal</text><line style="stroke:#005EA8;stroke-width:0.5;" x1="615" x2="851.167" y1="121.8906" y2="121.8906"/></g><!--class xsd:boolean--><g id="elem_xsd:boolean"><rect fill="#FFFFFF" height="48" id="xsd:boolean" rx="3" ry="3" style="stroke:#005EA8;stroke-width:0.5;" width="117.1553" x="435.5" y="627.7969"/><ellipse cx="450.5" cy="643.7969" fill="#ADD1B2" rx="11" ry="11" style="stroke:#181818;stroke-width:1.0;"/><path d="M453.4688,649.4375 Q452.8906,649.7344 452.25,649.875 Q451.6094,650.0313 450.9063,650.0313 Q448.4063,650.0313 447.0781,648.3906 Q445.7656,646.7344 445.7656,643.6094 Q445.7656,640.4844 447.0781,638.8281 Q448.4063,637.1719 450.9063,637.1719 Q451.6094,637.1719 452.25,637.3281 Q452.9063,637.4844 453.4688,637.7813 L453.4688,640.5 Q452.8438,639.9219 452.25,639.6563 Q451.6563,639.375 451.0313,639.375 Q449.6875,639.375 449,640.4531 Q448.3125,641.5156 448.3125,643.6094 Q448.3125,645.7031 449,646.7813 Q449.6875,647.8438 451.0313,647.8438 Q451.6563,647.8438 452.25,647.5781 Q452.8438,647.2969 453.4688,646.7188 L453.4688,649.4375 Z " fill="#000000"/><text fill="#1F1F1F" font-family="Arial" font-size="14" lengthAdjust="spacing" textLength="85.1553" x="464.5" y="648.6436">xsd:boolean</text><line style="stroke:#005EA8;stroke-width:0.5;" x1="436.5" x2="551.6553" y1="659.7969" y2="659.7969"/><line style="stroke:#005EA8;stroke-width:0.5;" x1="436.5" x2="551.6553" y1="667.7969" y2="667.7969"/></g><g id="elem_GMN35"><path d="M792.5,241.2969 L792.5,254.2969 L774.2344,258.2969 L792.5,262.2969 L792.5,275.5625 A3,3 0 0 0 795.5,278.5625 L1082.2241,278.5625 A3,3 0 0 0 1085.2241,275.5625 L1085.2241,248.2969 L1075.2241,238.2969 L795.5,238.2969 A3,3 0 0 0 792.5,241.2969 " fill="#F7F9FC" style="stroke:#D9D9D9;stroke-width:0.5;"/><path d="M1075.2241,238.2969 L1075.2241,246.7969 A1.5,1.5 0 0 0 1076.7241,248.2969 L1085.2241,248.2969 L1075.2241,238.2969 " fill="#F7F9FC" style="stroke:#D9D9D9;stroke-width:0.5;"/><text fill="#000000" font-family="Arial" font-size="13" lengthAdjust="spacing" textLength="271.7241" x="798.5" y="255.3638">Ordered streams use ldes:timestampPath</text><text fill="#000000" font-family="Arial" font-size="13" lengthAdjust="spacing" textLength="173.2021" x="798.5" y="270.4966">and/or ldes:sequencePath.</text></g><g id="elem_GMN38"><path d="M571,627.2969 L571,676.6953 A3,3 0 0 0 574,679.6953 L861.9492,679.6953 A3,3 0 0 0 864.9492,676.6953 L864.9492,634.2969 L854.9492,624.2969 L731.1134,624.2969 L969.6712,487.3594 L723.1134,624.2969 L574,624.2969 A3,3 0 0 0 571,627.2969 " fill="#F7F9FC" style="stroke:#D9D9D9;stroke-width:0.5;"/><path d="M854.9492,624.2969 L854.9492,632.7969 A1.5,1.5 0 0 0 856.4492,634.2969 L864.9492,634.2969 L854.9492,624.2969 " fill="#F7F9FC" style="stroke:#D9D9D9;stroke-width:0.5;"/><text fill="#000000" font-family="Arial" font-size="13" lengthAdjust="spacing" textLength="234.3555" x="577" y="641.3638">Root and subsequent nodes contain</text><text fill="#000000" font-family="Arial" font-size="13" lengthAdjust="spacing" textLength="272.9492" x="577" y="656.4966">members and relations. Immutable nodes</text><text fill="#000000" font-family="Arial" font-size="13" lengthAdjust="spacing" textLength="212.2593" x="577" y="671.6294">can be skipped after processing.</text></g><polygon fill="none" points="73,623.5535,79,605.5535,67,605.5535,73,623.5535" style="stroke:#005EA8;stroke-width:1.0;"/><path d="M73,487.5909 C73,523.8049 73,569.365 73,605.5535 " fill="none" style="stroke:#005EA8;stroke-width:1.0;"/><polygon fill="none" points="86.8862,431.0791,101.0308,418.4328,90.6141,412.4753,86.8862,431.0791" style="stroke:#005EA8;stroke-width:1.0;"/><path d="M363.8748,329.1237 C360.5668,329.8795 357.2736,330.6049 354,331.2969 C312.0727,340.1594 199.8159,329.1374 162,349.2969 C127.7221,367.5703 110.6276,389.5671 95.8225,415.454 " fill="none" style="stroke:#005EA8;stroke-width:1.0;"/><polygon fill="none" points="284.6457,230.2492,298.1103,216.8811,287.3965,211.476,284.6457,230.2492" style="stroke:#005EA8;stroke-width:1.0;"/><path d="M339.2002,122.1143 C323.4695,153.2948 307.6821,184.5878 292.7534,214.1786 " fill="none" style="stroke:#005EA8;stroke-width:1.0;"/><polygon fill="none" points="1375.0675,623.721,1393.0995,617.818,1385.9513,608.1794,1375.0675,623.721" style="stroke:#005EA8;stroke-width:1.0;"/><path d="M852.1905,103.8714 C926.1598,116.21 1020.7364,139.9452 1094,185.2969 C1277.1884,298.6944 1337.2806,348.5952 1413,550.2969 C1423.7493,578.9309 1414.4744,594.4961 1389.5254,612.9987 " fill="none" style="stroke:#005EA8;stroke-width:1.0;"/><polygon fill="#005EA8" points="476.375,185.2312,471.728,176.5476,472.4288,182.1609,466.8155,182.8616,476.375,185.2312" style="stroke:#005EA8;stroke-width:1.0;"/><path d="M395.0007,121.9189 C417.986,139.8024 443.138,159.3715 471.6395,181.5468 " fill="none" style="stroke:#005EA8;stroke-width:1.0;"/><text fill="#000000" font-family="Arial" font-size="13" lengthAdjust="spacing" textLength="131.3457" x="452" y="162.3638">publishes source for</text><polygon fill="#005EA8" points="990.0485,430.8717,995.047,422.3855,990.6177,425.9042,987.0989,421.4749,990.0485,430.8717" style="stroke:#005EA8;stroke-width:1.0;"/><path d="M774.0414,329.3163 C777.0414,330.0026 780.0288,330.6636 783,331.2969 C824.0468,340.0458 940.8484,320.1034 971,349.2969 C992.3829,370.0002 993.587,399.9862 990.7315,424.9107 " fill="none" style="stroke:#005EA8;stroke-width:1.0;"/><text fill="#000000" font-family="Arial" font-size="13" lengthAdjust="spacing" textLength="99.8359" x="986" y="363.3638">tree:view [0..1]</text><polygon fill="#005EA8" points="211.6622,623.4242,210.8206,613.6114,209.2485,619.0454,203.8145,617.4733,211.6622,623.4242" style="stroke:#005EA8;stroke-width:1.0;"/><path d="M363.8891,328.0284 C360.569,329.1269 357.2707,330.217 354,331.2969 C278.9936,356.0608 231.4132,322.3827 185,386.2969 C132.377,458.7623 180.3113,566.5491 208.7658,618.1696 " fill="none" style="stroke:#005EA8;stroke-width:1.0;"/><text fill="#000000" font-family="Arial" font-size="13" lengthAdjust="spacing" textLength="123.0493" x="187" y="463.8638">tree:member [0..*]</text><polygon fill="#005EA8" points="400.4029,430.8676,407.943,424.5314,402.5944,426.3735,400.7523,421.025,400.4029,430.8676" style="stroke:#005EA8;stroke-width:1.0;"/><path d="M469.49,331.3063 C463.3234,337.13 457.4259,343.1479 452,349.2969 C430.0756,374.1429 414.3784,402.2082 403.0327,425.4747 " fill="none" style="stroke:#005EA8;stroke-width:1.0;"/><text fill="#000000" font-family="Arial" font-size="13" lengthAdjust="spacing" textLength="109.1289" x="454" y="363.3638">tree:shape [0..1]</text><polygon fill="#005EA8" points="569,386.084,573,377.084,569,381.084,565,377.084,569,386.084" style="stroke:#005EA8;stroke-width:1.0;"/><path d="M569,331.4218 C569,349.2188 569,362.2828 569,380.084 " fill="none" style="stroke:#005EA8;stroke-width:1.0;"/><text fill="#000000" font-family="Arial" font-size="13" lengthAdjust="spacing" textLength="174.8335" x="571" y="363.3638">optional version semantics</text><polygon fill="#005EA8" points="785.1892,410.6526,785.5589,400.8107,783.3315,406.0106,778.1316,403.7831,785.1892,410.6526" style="stroke:#005EA8;stroke-width:1.0;"/><path d="M727.9309,331.3845 C735.0475,336.9931 741.7935,342.9603 748,349.2969 C764.7251,366.3726 774.6368,384.2849 782.9599,405.0822 " fill="none" style="stroke:#005EA8;stroke-width:1.0;"/><text fill="#000000" font-family="Arial" font-size="13" lengthAdjust="spacing" textLength="200.6558" x="765" y="363.3638">optional transaction semantics</text><polygon fill="#005EA8" points="273.3068,623.6992,283.1127,622.7806,277.6665,621.2512,279.1959,615.805,273.3068,623.6992" style="stroke:#005EA8;stroke-width:1.0;"/><path d="M970.2071,487.5768 C959.8573,503.689 944.4212,522.7498 925,532.2969 C877.4024,555.6949 499.6031,538.0447 448,550.2969 C384.2658,565.4293 321.745,596.5009 278.5385,620.7616 " fill="none" style="stroke:#005EA8;stroke-width:1.0;"/><text fill="#000000" font-family="Arial" font-size="13" lengthAdjust="spacing" textLength="123.0493" x="450" y="564.3638">tree:member [0..*]</text><polygon fill="#005EA8" points="1295.4264,623.625,1290.639,615.0179,1291.4308,620.6191,1285.8296,621.4109,1295.4264,623.625" style="stroke:#005EA8;stroke-width:1.0;"/><path d="M1036.1408,482.4615 C1072.6451,499.1548 1122.2848,523.6629 1163,550.2969 C1174.0959,557.5553 1174.4213,562.8366 1186,569.2969 C1207.7243,581.4179 1216.8309,576.01 1239,587.2969 C1258.7677,597.3612 1274.3053,607.7356 1290.6317,620.0179 " fill="none" style="stroke:#005EA8;stroke-width:1.0;"/><text fill="#000000" font-family="Arial" font-size="13" lengthAdjust="spacing" textLength="117.9521" x="1188" y="564.3638">tree:relation [0..*]</text><polygon fill="#005EA8" points="883.2895,589.9661,875.7731,583.6018,878.4903,588.5633,873.5288,591.2805,883.2895,589.9661" style="stroke:#005EA8;stroke-width:1.0;"/><path d="M969.3953,487.6515 C958.926,503.3671 943.6518,521.9789 925,532.2969 C871.3115,561.9968 753.5461,521.4864 792,569.2969 C815.3848,598.3717 838.0902,577.1634 874,587.2969 C877.0747,588.1645 874.4142,587.372 877.5305,588.2828 " fill="none" style="stroke:#005EA8;stroke-width:1.0;"/><text fill="#000000" font-family="Arial" font-size="13" lengthAdjust="spacing" textLength="167.5337" x="794" y="564.3638">ldes:retentionPolicy [0..1]</text><polygon fill="#005EA8" points="994.8314,587.1784,993.6004,577.4068,992.2456,582.899,986.7533,581.5442,994.8314,587.1784" style="stroke:#005EA8;stroke-width:1.0;"/><path d="M980.1318,487.6896 C977.2934,510.336 975.9899,542.9361 986,569.2969 C988.3316,575.437 988.2497,576.2863 991.7284,582.0431 " fill="none" style="stroke:#005EA8;stroke-width:1.0;"/><text fill="#000000" font-family="Arial" font-size="13" lengthAdjust="spacing" textLength="173.875" x="988" y="564.3638">tree:viewDescription [0..1]</text><polygon fill="#005EA8" points="512.3041,627.456,521.1835,623.195,515.5448,623.6485,515.0914,618.0098,512.3041,627.456" style="stroke:#005EA8;stroke-width:1.0;"/><path d="M970.1412,487.4444 C959.7659,503.5054 944.3261,522.5587 925,532.2969 C862.7818,563.6477 677.5118,526.5866 612,550.2969 C570.2499,565.4072 537.1876,598.22 516.193,622.8869 " fill="none" style="stroke:#005EA8;stroke-width:1.0;"/><text fill="#000000" font-family="Arial" font-size="13" lengthAdjust="spacing" textLength="140.2007" x="614" y="564.3638">ldes:immutable [0..1]</text><polygon fill="#005EA8" points="1036.0725,468.0554,1044.3032,473.4643,1041.0061,468.8677,1045.6027,465.5706,1036.0725,468.0554" style="stroke:#005EA8;stroke-width:1.0;"/><path d="M1330.2702,623.3923 C1329.7878,600.9303 1325.3966,569.7739 1307,550.2969 C1269.9827,511.1055 1123.0792,482.3794 1041.9928,469.0301 " fill="none" style="stroke:#005EA8;stroke-width:1.0;"/><text fill="#000000" font-family="Arial" font-size="13" lengthAdjust="spacing" textLength="85.8076" x="1322" y="564.3638">tree:node [1]</text><polygon fill="#005EA8" points="640.0367,185.1773,649.202,181.5724,643.5454,181.6152,643.5026,175.9585,640.0367,185.1773" style="stroke:#005EA8;stroke-width:1.0;"/><path d="M693.7179,130.6778 C677.6084,147.0328 662.6576,162.2116 644.2471,180.9027 " fill="none" style="stroke:#005EA8;stroke-width:1.0;"/><text fill="#000000" font-family="Arial" font-size="13" lengthAdjust="spacing" textLength="182.3872" x="678" y="162.3638">path matches ordering path</text><path d="M1057,716.4516 C1057,734.1853 1057,753.4464 1057,771.178 " fill="none" style="stroke:#005EA8;stroke-width:1.0;stroke-dasharray:7.0,7.0;"/><text fill="#000000" font-family="Arial" font-size="13" lengthAdjust="spacing" textLength="74.4009" x="1059" y="748.3638">supersedes</text><!--SRC=[bLPBR-Cs4BxhLx3fhS1wiuS-LWWCk76C6aWtGPpsijZ3I1hRx5AaIbBEfkt-zmufIg9f6Sd6bt3c-uOpmtdekqR3hWOcu5crbfaQBKZ8CikjG7QxlDcmWogXQ0NePwOEg0ySdxBCVEQo0GqrAw3ylDEgbTMr4aepgq4QKg6q4QeKOCp2MisBrkAwL7B3_q5s6K4gt48hx4f9-m5gP0lDGKHwiuTAFN6vOriG1YDDk5rBrEodz5BsRyROhucJtw_ydzCeNQ4EqilB7syMlv1qeRLwIeNEio1xjtA_x6jqcLGMpzpry-hzwZgzQ_dU_SX4rhbvKPLWyoLOC6Wl61Ys944uiwih_69HIn3p-J61cowfNCcH5GadgLOZvkI8m78WFf9i59sdVL0L3WHtE0zzG057zdl19CNilUtD7fhkWk4q2VyTwu8UVFsmzk1mlBhIQ5IhIoHa3nKLclpcG2Mv8R-WzeJexD_DWoolqLYectkmUvQppM-BwrlMQDMWji-iSTAFbxFPkqyzm-3VBSeINqreACTKnMj90Hr04EUBgN9EnntvVuobVZEKhhljgwq7nkCtnn68crU7ytKglJxpKNhzsQUtt6ibgVHtlAIWjuWLsr8VW6JfwwIM7z2IZdoxLuANpzvw8XiVa8BMbjAxqgeEgQt0eij74l2s5U9MxPQjxaeoWFlZP7OMDVMrVSsJVPFP9GgAvmNAc9N0SgEGQgWsFYD_3i979nip4j3Nb5hhdpLH_D5KquhEgmb5P-gk-8j6nQInILLdBgZ6OFo-W6xcZD4yZj8ad0WVknQ9Lvpc16sNwYNzYIzKa3KzgEwBYpLTTOr-hJnYgBx4j_u55plLrMMlkAMa61kUQDCMDD9xrRsYEbhxXZtcWA-rSMeCiCXXlr2eatGyQEywuJ1hdNj-73TdUxf7q3ngaI22KyYqVUccP2syUVFVFDvCMJn6lVAOaCLpO2H72ofB_Hsiz98iCJ8_cjqvQzf2SBD7mxh9xmPBujTyt5Pv29M-O_hMIh5XbmHatPqSzeTJxBYa0jpumndBQPVcJ3KkH1g9eKsOmHgek4ep4KBI514xRgFHGZP4_L9OHy2ZLHtWVObD4j9nd7T5gnDnICeBrE5vbcXApPju21vHBzoOB9GI25JvuKvUrws5GWnFa1r5CrKAqlt_aQ2dbNXIQgw5Qh2bgpRVVMuA-nRAqaXci-bnaJFJKkiP97Upp7ytQhxRMwQsyMtKay4VPhp0iDRWn6SA0K5MRscPddoGp3AKbVyq3HSLobfQZ7HJdmHYFoXbdGdog-ZObhcS64RVwHQu94nNBSR3-b8mCxOUikq9Ri_JHY-GqOTnqv3hiAL9uePDYSPGhYAF_WS0]--></g></svg>