<svg version="1.1" viewBox="0.0 0.0 442.8582677165354 100.0" fill="none" stroke="none" stroke-linecap="square" stroke-miterlimit="10" xmlns:xlink="http://www.w3.org/1999/xlink" xmlns="http://www.w3.org/2000/svg"><clipPath id="p.0"><path d="m0 0l442.85828 0l0 100.0l-442.85828 0l0 -100.0z" clip-rule="nonzero"/></clipPath><g clip-path="url(#p.0)"><path fill="#000000" fill-opacity="0.0" d="m0 0l442.85828 0l0 100.0l-442.85828 0z" fill-rule="evenodd"/><path fill="#000000" fill-opacity="0.0" d="m6.0813646 4.8520584l146.23622 0l0 87.11811l-146.23622 0z" fill-rule="evenodd"/><path stroke="#5252cf" stroke-width="1.0" stroke-linejoin="round" stroke-linecap="butt" stroke-dasharray="4.0,3.0" d="m6.0813646 4.8520584l146.23622 0l0 87.11811l-146.23622 0z" fill-rule="evenodd"/><path fill="#000000" d="m64.3362 74.93142q1.09375 0 1.609375 0.4375q0.515625 0.4375 0.515625 1.234375q0 0.359375 -0.125 0.6875q-0.125 0.328125 -0.390625 0.578125q-0.265625 0.25 -0.703125 0.390625q-0.421875 0.140625 -1.046875 0.140625l-0.6875038 0l0 2.25l-0.671875 0l0 -5.71875l1.5000038 0zm-0.0625 0.578125l-0.7656288 0l0 2.328125l0.6093788 0q0.546875 0 0.90625 -0.109375q0.375 -0.125 0.5625 -0.390625q0.1875 -0.265625 0.1875 -0.703125q0 -0.578125 -0.375 -0.84375q-0.359375 -0.28125 -1.125 -0.28125zm5.21875 0.78125q0.140625 0 0.28125 0.015625q0.140625 0.015625 0.25 0.03125l-0.09375 0.609375q-0.09375 -0.03125 -0.234375 -0.046875q-0.125 -0.015625 -0.234375 -0.015625q-0.265625 0 -0.5 0.109375q-0.21875 0.09375 -0.390625 0.296875q-0.171875 0.1875 -0.265625 0.46875q-0.09375 0.265625 -0.09375 0.59375l0 2.296875l-0.65625 0l0 -4.28125l0.53125 0l0.078125 0.78125l0.03125 0q0.125 -0.234375 0.3125 -0.421875q0.1875 -0.203125 0.4375 -0.3125q0.25 -0.125 0.546875 -0.125zm5.0195312 2.203125q0 0.53125 -0.140625 0.953125q-0.125 0.40625 -0.390625 0.703125q-0.25 0.28125 -0.625 0.4375q-0.359375 0.140625 -0.828125 0.140625q-0.421875 0 -0.78125 -0.140625q-0.359375 -0.15625 -0.625 -0.4375q-0.25 -0.296875 -0.390625 -0.703125q-0.140625 -0.421875 -0.140625 -0.953125q0 -0.703125 0.234375 -1.1875q0.234375 -0.5 0.671875 -0.75q0.453125 -0.265625 1.0625 -0.265625q0.59375 0 1.03125 0.265625q0.4375 0.25 0.671875 0.75q0.25 0.5 0.25 1.1875zm-3.25 0q0 0.515625 0.125 0.90625q0.140625 0.375 0.421875 0.578125q0.296875 0.203125 0.734375 0.203125q0.453125 0 0.734375 -0.203125q0.296875 -0.203125 0.421875 -0.578125q0.140625 -0.390625 0.140625 -0.90625q0 -0.5 -0.140625 -0.875q-0.125 -0.375 -0.421875 -0.578125q-0.28125 -0.203125 -0.734375 -0.203125q-0.671875 0 -0.984375 0.4375q-0.296875 0.4375 -0.296875 1.21875zm5.890625 2.234375q-0.8125 0 -1.28125 -0.546875q-0.46875 -0.5625 -0.46875 -1.65625q0 -1.109375 0.484375 -1.671875q0.484375 -0.5625 1.28125 -0.5625q0.34375 0 0.59375 0.09375q0.25 0.078125 0.4375 0.234375q0.1875 0.15625 0.3125 0.34375l0.046875 0q-0.015625 -0.125 -0.03125 -0.328125q-0.015625 -0.21875 -0.015625 -0.34375l0 -1.71875l0.640625 0l0 6.078125l-0.515625 0l-0.09375 -0.609375l-0.03125 0q-0.125 0.1875 -0.3125 0.34375q-0.1875 0.15625 -0.4375 0.25q-0.25 0.09375 -0.609375 0.09375zm0.109375 -0.546875q0.6875 0 0.96875 -0.390625q0.28125 -0.390625 0.28125 -1.15625l0 -0.109375q0 -0.828125 -0.265625 -1.265625q-0.265625 -0.4375 -0.984375 -0.4375q-0.59375 0 -0.890625 0.46875q-0.296875 0.453125 -0.296875 1.25q0 0.78125 0.28125 1.21875q0.296875 0.421875 0.90625 0.421875zm6.8007812 -3.8125l0 4.28125l-0.53125 0l-0.09375 -0.609375l-0.03125 0q-0.140625 0.234375 -0.359375 0.390625q-0.203125 0.140625 -0.46875 0.21875q-0.25 0.078125 -0.546875 0.078125q-0.515625 0 -0.859375 -0.15625q-0.34375 -0.171875 -0.515625 -0.515625q-0.171875 -0.34375 -0.171875 -0.890625l0 -2.796875l0.65625 0l0 2.75q0 0.546875 0.234375 0.8125q0.25 0.25 0.75 0.25q0.46875 0 0.75 -0.171875q0.28125 -0.1875 0.40625 -0.53125q0.125 -0.34375 0.125 -0.859375l0 -2.25l0.65625 0zm3.09375 4.359375q-0.578125 0 -1.03125 -0.234375q-0.4375 -0.25 -0.6875 -0.734375q-0.234375 -0.484375 -0.234375 -1.234375q0 -0.765625 0.25 -1.265625q0.265625 -0.5 0.71875 -0.734375q0.453125 -0.234375 1.046875 -0.234375q0.3125 0 0.609375 0.0625q0.296875 0.0625 0.5 0.15625l-0.203125 0.546875q-0.1875 -0.078125 -0.453125 -0.140625q-0.25 -0.0625 -0.46875 -0.0625q-0.453125 0 -0.75 0.203125q-0.296875 0.1875 -0.4375 0.5625q-0.140625 0.359375 -0.140625 0.90625q0 0.515625 0.140625 0.890625q0.140625 0.359375 0.421875 0.5625q0.28125 0.1875 0.703125 0.1875q0.34375 0 0.609375 -0.0625q0.28125 -0.078125 0.5 -0.1875l0 0.578125q-0.203125 0.109375 -0.46875 0.171875q-0.265625 0.0625 -0.625 0.0625zm3.7539062 -4.4375q0.546875 0 0.9375 0.25q0.390625 0.234375 0.59375 0.671875q0.21875 0.4375 0.21875 1.015625l0 0.40625l-2.953125 0q0 0.75 0.359375 1.140625q0.375 0.390625 1.03125 0.390625q0.40625 0 0.71875 -0.0625q0.3125 -0.078125 0.65625 -0.21875l0 0.5625q-0.328125 0.140625 -0.65625 0.203125q-0.3125 0.078125 -0.75 0.078125q-0.609375 0 -1.078125 -0.25q-0.453125 -0.25 -0.703125 -0.734375q-0.25 -0.5 -0.25 -1.203125q0 -0.6875 0.21875 -1.1875q0.234375 -0.515625 0.65625 -0.78125q0.4375 -0.28125 1.0 -0.28125zm0 0.53125q-0.515625 0 -0.828125 0.34375q-0.3125 0.328125 -0.375 0.9375l2.265625 0q0 -0.375 -0.125 -0.65625q-0.109375 -0.296875 -0.34375 -0.453125q-0.234375 -0.171875 -0.59375 -0.171875zm4.7890625 -0.53125q0.140625 0 0.28125 0.015625q0.140625 0.015625 0.25 0.03125l-0.09375 0.609375q-0.09375 -0.03125 -0.234375 -0.046875q-0.125 -0.015625 -0.234375 -0.015625q-0.265625 0 -0.5 0.109375q-0.21875 0.09375 -0.390625 0.296875q-0.171875 0.1875 -0.265625 0.46875q-0.09375 0.265625 -0.09375 0.59375l0 2.296875l-0.65625 0l0 -4.28125l0.53125 0l0.078125 0.78125l0.03125 0q0.125 -0.234375 0.3125 -0.421875q0.1875 -0.203125 0.4375 -0.3125q0.25 -0.125 0.546875 -0.125z" fill-rule="nonzero"/><path fill="#7474c1" fill-opacity="0.7773" d="m72.837975 20.766249l72.34646 0l0 43.71653l-72.34646 0z" fill-rule="evenodd"/><path stroke="#000000" stroke-width="1.0" stroke-linejoin="round" stroke-linecap="butt" d="m72.837975 20.766249l72.34646 0l0 43.71653l-72.34646 0z" fill-rule="evenodd"/><path fill="#ffffff" d="m82.89207 38.13264l1.328125 -1.59375l0.46875 0.265625l-1.125 1.375l1.125 1.375l-0.46875 0.265625l-1.328125 -1.578125l0 -0.109375zm1.546875 0l1.359375 -1.59375l0.453125 0.265625l-1.125 1.375l1.125 1.375l-0.453125 0.265625l-1.359375 -1.578125l0 -0.109375zm7.2148438 2.171875l-0.65625 0l0 -2.6875l-3.0 0l0 2.6875l-0.671875 0l0 -5.71875l0.671875 0l0 2.4375l3.0 0l0 -2.4375l0.65625 0l0 5.71875zm3.3203125 0l-0.65625 0l0 -5.125l-1.796875 0l0 -0.59375l4.25 0l0 0.59375l-1.796875 0l0 5.125zm4.40625 0l-0.65625 0l0 -5.125l-1.796875 0l0 -0.59375l4.25 0l0 0.59375l-1.796875 0l0 5.125zm4.15625 -5.71875q1.09375 0 1.609375 0.4375q0.515625 0.4375 0.515625 1.234375q0 0.359375 -0.125 0.6875q-0.125 0.328125 -0.390625 0.578125q-0.265625 0.25 -0.703125 0.390625q-0.421875 0.140625 -1.046875 0.140625l-0.6875 0l0 2.25l-0.671875 0l0 -5.71875l1.5 0zm-0.0625 0.578125l-0.765625 0l0 2.328125l0.609375 0q0.546875 0 0.90625 -0.109375q0.375 -0.125 0.5625 -0.390625q0.1875 -0.265625 0.1875 -0.703125q0 -0.578125 -0.375 -0.84375q-0.359375 -0.28125 -1.125 -0.28125zm8.125 3.96875q0 0.40625 -0.203125 0.6875q-0.203125 0.28125 -0.59375 0.421875q-0.375 0.140625 -0.90625 0.140625q-0.4375 0 -0.765625 -0.078125q-0.328125 -0.0625 -0.578125 -0.1875l0 -0.609375q0.265625 0.140625 0.625 0.25q0.359375 0.09375 0.734375 0.09375q0.5625 0 0.8125 -0.171875q0.25 -0.1875 0.25 -0.5q0 -0.171875 -0.109375 -0.296875q-0.09375 -0.140625 -0.328125 -0.265625q-0.234375 -0.125 -0.640625 -0.28125q-0.421875 -0.15625 -0.71875 -0.3125q-0.296875 -0.15625 -0.46875 -0.375q-0.15625 -0.21875 -0.15625 -0.578125q0 -0.546875 0.4375 -0.828125q0.453125 -0.296875 1.15625 -0.296875q0.390625 0 0.71875 0.078125q0.34375 0.078125 0.640625 0.203125l-0.21875 0.515625q-0.265625 -0.109375 -0.5625 -0.1875q-0.296875 -0.078125 -0.609375 -0.078125q-0.453125 0 -0.703125 0.15625q-0.234375 0.140625 -0.234375 0.390625q0 0.203125 0.109375 0.34375q0.109375 0.125 0.359375 0.234375q0.25 0.109375 0.65625 0.265625q0.390625 0.140625 0.6875 0.3125q0.296875 0.15625 0.453125 0.375q0.15625 0.21875 0.15625 0.578125zm2.6875 -3.1875q0.546875 0 0.9375 0.25q0.390625 0.234375 0.59375 0.671875q0.21875 0.4375 0.21875 1.015625l0 0.40625l-2.953125 0q0 0.75 0.359375 1.140625q0.375 0.390625 1.03125 0.390625q0.40625 0 0.71875 -0.0625q0.3125 -0.078125 0.65625 -0.21875l0 0.5625q-0.328125 0.140625 -0.65625 0.203125q-0.3125 0.078125 -0.75 0.078125q-0.609375 0 -1.078125 -0.25q-0.453125 -0.25 -0.703125 -0.734375q-0.25 -0.5 -0.25 -1.203125q0 -0.6875 0.21875 -1.1875q0.234375 -0.515625 0.65625 -0.78125q0.4375 -0.28125 1.0 -0.28125zm0 0.53125q-0.515625 0 -0.828125 0.34375q-0.3125 0.328125 -0.375 0.9375l2.265625 0q0 -0.375 -0.125 -0.65625q-0.109375 -0.296875 -0.34375 -0.453125q-0.234375 -0.171875 -0.59375 -0.171875zm4.7890625 -0.53125q0.140625 0 0.28125 0.015625q0.140625 0.015625 0.25 0.03125l-0.09375 0.609375q-0.09375 -0.03125 -0.234375 -0.046875q-0.125 -0.015625 -0.234375 -0.015625q-0.265625 0 -0.5 0.109375q-0.21875 0.09375 -0.390625 0.296875q-0.171875 0.1875 -0.265625 0.46875q-0.09375 0.265625 -0.09375 0.59375l0 2.296875l-0.65625 0l0 -4.28125l0.53125 0l0.078125 0.78125l0.03125 0q0.125 -0.234375 0.3125 -0.421875q0.1875 -0.203125 0.4375 -0.3125q0.25 -0.125 0.546875 -0.125zm2.2695312 4.359375l-1.625 -4.28125l0.703125 0l0.9375 2.59375q0.09375 0.265625 0.1875 0.59375q0.109375 0.3125 0.15625 0.5l0.015625 0q0.046875 -0.1875 0.15625 -0.515625q0.109375 -0.328125 0.203125 -0.578125l0.9375 -2.59375l0.703125 0l-1.625 4.28125l-0.75 0zm4.6992188 -4.359375q0.546875 0 0.9375 0.25q0.390625 0.234375 0.59375 0.671875q0.21875 0.4375 0.21875 1.015625l0 0.40625l-2.953125 0q0 0.75 0.359375 1.140625q0.375 0.390625 1.03125 0.390625q0.40625 0 0.71875 -0.0625q0.3125 -0.078125 0.65625 -0.21875l0 0.5625q-0.328125 0.140625 -0.65625 0.203125q-0.3125 0.078125 -0.75 0.078125q-0.609375 0 -1.078125 -0.25q-0.453125 -0.25 -0.703125 -0.734375q-0.25 -0.5 -0.25 -1.203125q0 -0.6875 0.21875 -1.1875q0.234375 -0.515625 0.65625 -0.78125q0.4375 -0.28125 1.0 -0.28125zm0 0.53125q-0.515625 0 -0.828125 0.34375q-0.3125 0.328125 -0.375 0.9375l2.265625 0q0 -0.375 -0.125 -0.65625q-0.109375 -0.296875 -0.34375 -0.453125q-0.234375 -0.171875 -0.59375 -0.171875zm4.789055 -0.53125q0.140625 0 0.28125 0.015625q0.140625 0.015625 0.25 0.03125l-0.09375 0.609375q-0.09375 -0.03125 -0.234375 -0.046875q-0.125 -0.015625 -0.234375 -0.015625q-0.265625 0 -0.5 0.109375q-0.21875 0.09375 -0.390625 0.296875q-0.171875 0.1875 -0.265625 0.46875q-0.09375 0.265625 -0.09375 0.59375l0 2.296875l-0.65625 0l0 -4.28125l0.53125 0l0.078125 0.78125l0.03125 0q0.125 -0.234375 0.3125 -0.421875q0.1875 -0.203125 0.4375 -0.3125q0.25 -0.125 0.546875 -0.125zm4.3007812 2.28125l-1.34375 1.59375l-0.453125 -0.265625l1.125 -1.375l-1.125 -1.375l0.453125 -0.265625l1.34375 1.59375l0 0.09375zm-1.5625 0l-1.328125 1.59375l-0.46875 -0.265625l1.125 -1.375l-1.125 -1.375l0.46875 -0.265625l1.328125 1.59375l0 0.09375z" fill-rule="nonzero"/><path fill="#ffffff" d="m102.28269 50.304516l-1.625 -4.28125l0.703125 0l0.9375 2.59375q0.09375 0.265625 0.1875 0.59375q0.109375 0.3125 0.15625 0.5l0.015625 0q0.046875 -0.1875 0.15625 -0.515625q0.109375 -0.328125 0.203125 -0.578125l0.9375 -2.59375l0.703125 0l-1.625 4.28125l-0.75 0zm3.6992188 -4.28125l0 4.28125l-0.640625 0l0 -4.28125l0.640625 0zm-0.3125 -1.609375q0.15625 0 0.265625 0.109375q0.125 0.109375 0.125 0.328125q0 0.203125 -0.125 0.3125q-0.109375 0.109375 -0.265625 0.109375q-0.171875 0 -0.28125 -0.109375q-0.109375 -0.109375 -0.109375 -0.3125q0 -0.21875 0.109375 -0.328125q0.109375 -0.109375 0.28125 -0.109375zm3.3320312 1.53125q0.546875 0 0.9375 0.25q0.390625 0.234375 0.59375 0.671875q0.21875 0.4375 0.21875 1.015625l0 0.40625l-2.953125 0q0 0.75 0.359375 1.140625q0.375 0.390625 1.03125 0.390625q0.40625 0 0.71875 -0.0625q0.3125 -0.078125 0.65625 -0.21875l0 0.5625q-0.328125 0.140625 -0.65625 0.203125q-0.3125 0.078125 -0.75 0.078125q-0.609375 0 -1.078125 -0.25q-0.453125 -0.25 -0.703125 -0.734375q-0.25 -0.5 -0.25 -1.203125q0 -0.6875 0.21875 -1.1875q0.234375 -0.515625 0.65625 -0.78125q0.4375 -0.28125 1.0 -0.28125zm0 0.53125q-0.515625 0 -0.828125 0.34375q-0.3125 0.328125 -0.375 0.9375l2.265625 0q0 -0.375 -0.125 -0.65625q-0.109375 -0.296875 -0.34375 -0.453125q-0.234375 -0.171875 -0.59375 -0.171875zm6.3359375 3.8125l-0.765625 -2.484375q-0.046875 -0.15625 -0.09375 -0.3125q-0.046875 -0.15625 -0.09375 -0.296875q-0.03125 -0.140625 -0.0625 -0.265625q-0.015625 -0.125 -0.046875 -0.21875l-0.015625 0q-0.015625 0.09375 -0.046875 0.21875q-0.03125 0.125 -0.078125 0.265625q-0.03125 0.140625 -0.078125 0.296875q-0.03125 0.15625 -0.09375 0.328125l-0.796875 2.46875l-0.71875 0l-1.1875 -4.28125l0.671875 0l0.625 2.375q0.0625 0.234375 0.109375 0.46875q0.0625 0.21875 0.09375 0.421875q0.046875 0.203125 0.0625 0.34375l0.03125 0q0.03125 -0.09375 0.0625 -0.234375q0.03125 -0.140625 0.0625 -0.28125q0.03125 -0.15625 0.078125 -0.3125q0.046875 -0.15625 0.09375 -0.296875l0.78125 -2.484375l0.703125 0l0.765625 2.484375q0.046875 0.1875 0.109375 0.390625q0.0625 0.203125 0.109375 0.390625q0.046875 0.1875 0.0625 0.34375l0.03125 0q0.015625 -0.140625 0.046875 -0.328125q0.046875 -0.203125 0.109375 -0.4375q0.0625 -0.234375 0.125 -0.46875l0.625 -2.375l0.65625 0l-1.1875 4.28125l-0.75 0z" fill-rule="nonzero"/><path fill="#7474c1" fill-opacity="0.4773" d="m11.530711 22.096325l0 0c0 -5.6685276 11.756932 -10.263779 26.259842 -10.263779c14.502911 0 26.259838 4.595251 26.259838 10.263779l0 41.05512c0 5.6685257 -11.7569275 10.263779 -26.259838 10.263779c-14.502911 0 -26.259842 -4.595253 -26.259842 -10.263779z" fill-rule="evenodd"/><path fill="#000000" fill-opacity="0.0" d="m64.05039 22.096325l0 0c0 5.6685295 -11.7569275 10.263779 -26.259838 10.263779c-14.502911 0 -26.259842 -4.595249 -26.259842 -10.263779" fill-rule="evenodd"/><path fill="#000000" fill-opacity="0.0" d="m11.530711 22.096325l0 0c0 -5.6685276 11.756932 -10.263779 26.259842 -10.263779c14.502911 0 26.259838 4.595251 26.259838 10.263779l0 41.05512c0 5.6685257 -11.7569275 10.263779 -26.259838 10.263779c-14.502911 0 -26.259842 -4.595253 -26.259842 -10.263779z" fill-rule="evenodd"/><path stroke="#000000" stroke-width="1.0" stroke-linejoin="round" stroke-linecap="butt" d="m64.05039 22.096325l0 0c0 5.6685295 -11.7569275 10.263779 -26.259838 10.263779c-14.502911 0 -26.259842 -4.595249 -26.259842 -10.263779" fill-rule="evenodd"/><path stroke="#000000" stroke-width="1.0" stroke-linejoin="round" stroke-linecap="butt" d="m11.530711 22.096325l0 0c0 -5.6685276 11.756932 -10.263779 26.259842 -10.263779c14.502911 0 26.259838 4.595251 26.259838 10.263779l0 41.05512c0 5.6685257 -11.7569275 10.263779 -26.259838 10.263779c-14.502911 0 -26.259842 -4.595253 -26.259842 -10.263779z" fill-rule="evenodd"/><path fill="#ffffff" d="m31.675318 45.5139q-0.8125 0 -1.28125 -0.546875q-0.46875 -0.5625 -0.46875 -1.65625q0 -1.109375 0.484375 -1.671875q0.484375 -0.5625 1.28125 -0.5625q0.3437519 0 0.5937519 0.09375q0.25 0.078125 0.4375 0.234375q0.1875 0.15625 0.3125 0.34375l0.046875 0q-0.015625 -0.125 -0.03125 -0.328125q-0.015625 -0.21875 -0.015625 -0.34375l0 -1.71875l0.640625 0l0 6.078125l-0.515625 0l-0.09375 -0.609375l-0.03125 0q-0.125 0.1875 -0.3125 0.34375q-0.1875 0.15625 -0.4375 0.25q-0.25 0.09375 -0.6093769 0.09375zm0.109375 -0.546875q0.6875019 0 0.9687519 -0.390625q0.28125 -0.390625 0.28125 -1.15625l0 -0.109375q0 -0.828125 -0.265625 -1.265625q-0.265625 -0.4375 -0.9843769 -0.4375q-0.59375 0 -0.890625 0.46875q-0.296875 0.453125 -0.296875 1.25q0 0.78125 0.28125 1.21875q0.296875 0.421875 0.90625 0.421875zm4.863283 -3.890625q0.765625 0 1.140625 0.34375q0.375 0.34375 0.375 1.109375l0 2.90625l-0.46875 0l-0.125 -0.640625l-0.03125 0q-0.1875 0.234375 -0.390625 0.40625q-0.1875 0.15625 -0.453125 0.234375q-0.25 0.078125 -0.609375 0.078125q-0.390625 0 -0.703125 -0.140625q-0.296875 -0.140625 -0.46875 -0.40625q-0.171875 -0.28125 -0.171875 -0.703125q0 -0.640625 0.5 -0.984375q0.515625 -0.34375 1.546875 -0.375l0.734375 -0.03125l0 -0.265625q0 -0.5625 -0.234375 -0.78125q-0.234375 -0.21875 -0.671875 -0.21875q-0.328125 0 -0.640625 0.09375q-0.296875 0.09375 -0.578125 0.234375l-0.203125 -0.5q0.296875 -0.140625 0.671875 -0.25q0.375 -0.109375 0.78125 -0.109375zm0.875 2.25l-0.65625 0.03125q-0.796875 0.03125 -1.125 0.265625q-0.328125 0.21875 -0.328125 0.640625q0 0.375 0.21875 0.546875q0.21875 0.171875 0.59375 0.171875q0.5625 0 0.921875 -0.3125q0.375 -0.3125 0.375 -0.953125l0 -0.390625zm3.3515625 1.65625q0.171875 0 0.328125 -0.03125q0.171875 -0.03125 0.28125 -0.0625l0 0.5q-0.109375 0.0625 -0.3125 0.09375q-0.203125 0.03125 -0.390625 0.03125q-0.34375 0 -0.625 -0.109375q-0.28125 -0.125 -0.453125 -0.40625q-0.15625 -0.296875 -0.15625 -0.796875l0 -2.546875l-0.609375 0l0 -0.3125l0.609375 -0.25l0.265625 -0.9375l0.390625 0l0 1.0l1.25 0l0 0.5l-1.25 0l0 2.53125q0 0.390625 0.1875 0.59375q0.1875 0.203125 0.484375 0.203125zm3.0703125 -3.90625q0.765625 0 1.140625 0.34375q0.375 0.34375 0.375 1.109375l0 2.90625l-0.46875 0l-0.125 -0.640625l-0.03125 0q-0.1875 0.234375 -0.390625 0.40625q-0.1875 0.15625 -0.453125 0.234375q-0.25 0.078125 -0.609375 0.078125q-0.390625 0 -0.703125 -0.140625q-0.296875 -0.140625 -0.46875 -0.40625q-0.171875 -0.28125 -0.171875 -0.703125q0 -0.640625 0.5 -0.984375q0.515625 -0.34375 1.546875 -0.375l0.734375 -0.03125l0 -0.265625q0 -0.5625 -0.234375 -0.78125q-0.234375 -0.21875 -0.671875 -0.21875q-0.328125 0 -0.640625 0.09375q-0.296875 0.09375 -0.578125 0.234375l-0.203125 -0.5q0.296875 -0.140625 0.671875 -0.25q0.375 -0.109375 0.78125 -0.109375zm0.875 2.25l-0.65625 0.03125q-0.796875 0.03125 -1.125 0.265625q-0.328125 0.21875 -0.328125 0.640625q0 0.375 0.21875 0.546875q0.21875 0.171875 0.59375 0.171875q0.5625 0 0.921875 -0.3125q0.375 -0.3125 0.375 -0.953125l0 -0.390625z" fill-rule="nonzero"/><path fill="#ffffff" d="m28.681177 54.2639q0 0.40625 -0.203125 0.6875q-0.203125 0.28125 -0.59375 0.421875q-0.375 0.140625 -0.90625 0.140625q-0.4375 0 -0.765625 -0.078125q-0.328125 -0.0625 -0.578125 -0.1875l0 -0.609375q0.265625 0.140625 0.625 0.25q0.359375 0.09375 0.734375 0.09375q0.5625 0 0.8125 -0.171875q0.25 -0.1875 0.25 -0.5q0 -0.171875 -0.109375 -0.296875q-0.09375 -0.140625 -0.328125 -0.265625q-0.234375 -0.125 -0.640625 -0.28125q-0.421875 -0.15625 -0.71875 -0.3125q-0.296875 -0.15625 -0.46875 -0.375q-0.15625 -0.21875 -0.15625 -0.578125q0 -0.546875 0.4375 -0.828125q0.453125 -0.296875 1.15625 -0.296875q0.390625 0 0.71875 0.078125q0.34375 0.078125 0.640625 0.203125l-0.21875 0.515625q-0.265625 -0.109375 -0.5625 -0.1875q-0.296875 -0.078125 -0.609375 -0.078125q-0.453125 0 -0.703125 0.15625q-0.234375 0.140625 -0.234375 0.390625q0 0.203125 0.109375 0.34375q0.109375 0.125 0.359375 0.234375q0.25 0.109375 0.65625 0.265625q0.390625 0.140625 0.6875 0.3125q0.296875 0.15625 0.453125 0.375q0.15625 0.21875 0.15625 0.578125zm4.734377 -0.984375q0 0.53125 -0.140625 0.953125q-0.125 0.40625 -0.390625 0.703125q-0.25 0.28125 -0.625 0.4375q-0.3593769 0.140625 -0.8281269 0.140625q-0.421875 0 -0.78125 -0.140625q-0.359375 -0.15625 -0.625 -0.4375q-0.25 -0.296875 -0.390625 -0.703125q-0.140625 -0.421875 -0.140625 -0.953125q0 -0.703125 0.234375 -1.1875q0.234375 -0.5 0.671875 -0.75q0.453125 -0.265625 1.0625 -0.265625q0.5937519 0 1.0312519 0.265625q0.4375 0.25 0.671875 0.75q0.25 0.5 0.25 1.1875zm-3.250002 0q0 0.515625 0.125 0.90625q0.140625 0.375 0.421875 0.578125q0.296875 0.203125 0.734375 0.203125q0.453125 0 0.7343769 -0.203125q0.296875 -0.203125 0.421875 -0.578125q0.140625 -0.390625 0.140625 -0.90625q0 -0.5 -0.140625 -0.875q-0.125 -0.375 -0.421875 -0.578125q-0.2812519 -0.203125 -0.7343769 -0.203125q-0.671875 0 -0.984375 0.4375q-0.296875 0.4375 -0.296875 1.21875zm7.906252 -2.125l0 4.28125l-0.53125 0l-0.09375 -0.609375l-0.03125 0q-0.140625 0.234375 -0.359375 0.390625q-0.203125 0.140625 -0.46875 0.21875q-0.25 0.078125 -0.546875 0.078125q-0.515625 0 -0.859375 -0.15625q-0.34375 -0.171875 -0.515625 -0.515625q-0.171875 -0.34375 -0.171875 -0.890625l0 -2.796875l0.65625 0l0 2.75q0 0.546875 0.234375 0.8125q0.25 0.25 0.75 0.25q0.46875 0 0.75 -0.171875q0.28125 -0.1875 0.40625 -0.53125q0.125 -0.34375 0.125 -0.859375l0 -2.25l0.65625 0zm3.3125 -0.078125q0.140625 0 0.28125 0.015625q0.140625 0.015625 0.25 0.03125l-0.09375 0.609375q-0.09375 -0.03125 -0.234375 -0.046875q-0.125 -0.015625 -0.234375 -0.015625q-0.265625 0 -0.5 0.109375q-0.21875 0.09375 -0.390625 0.296875q-0.171875 0.1875 -0.265625 0.46875q-0.09375 0.265625 -0.09375 0.59375l0 2.296875l-0.65625 0l0 -4.28125l0.53125 0l0.078125 0.78125l0.03125 0q0.125 -0.234375 0.3125 -0.421875q0.1875 -0.203125 0.4375 -0.3125q0.25 -0.125 0.546875 -0.125zm3.0507812 4.4375q-0.578125 0 -1.03125 -0.234375q-0.4375 -0.25 -0.6875 -0.734375q-0.234375 -0.484375 -0.234375 -1.234375q0 -0.765625 0.25 -1.265625q0.265625 -0.5 0.71875 -0.734375q0.453125 -0.234375 1.046875 -0.234375q0.3125 0 0.609375 0.0625q0.296875 0.0625 0.5 0.15625l-0.203125 0.546875q-0.1875 -0.078125 -0.453125 -0.140625q-0.25 -0.0625 -0.46875 -0.0625q-0.453125 0 -0.75 0.203125q-0.296875 0.1875 -0.4375 0.5625q-0.140625 0.359375 -0.140625 0.90625q0 0.515625 0.140625 0.890625q0.140625 0.359375 0.421875 0.5625q0.28125 0.1875 0.703125 0.1875q0.34375 0 0.609375 -0.0625q0.28125 -0.078125 0.5 -0.1875l0 0.578125q-0.203125 0.109375 -0.46875 0.171875q-0.265625 0.0625 -0.625 0.0625zm3.7539062 -4.4375q0.546875 0 0.9375 0.25q0.390625 0.234375 0.59375 0.671875q0.21875 0.4375 0.21875 1.015625l0 0.40625l-2.953125 0q0 0.75 0.359375 1.140625q0.375 0.390625 1.03125 0.390625q0.40625 0 0.71875 -0.0625q0.3125 -0.078125 0.65625 -0.21875l0 0.5625q-0.328125 0.140625 -0.65625 0.203125q-0.3125 0.078125 -0.75 0.078125q-0.609375 0 -1.078125 -0.25q-0.453125 -0.25 -0.703125 -0.734375q-0.25 -0.5 -0.25 -1.203125q0 -0.6875 0.21875 -1.1875q0.234375 -0.515625 0.65625 -0.78125q0.4375 -0.28125 1.0 -0.28125zm0 0.53125q-0.515625 0 -0.828125 0.34375q-0.3125 0.328125 -0.375 0.9375l2.265625 0q0 -0.375 -0.125 -0.65625q-0.109375 -0.296875 -0.34375 -0.453125q-0.234375 -0.171875 -0.59375 -0.171875z" fill-rule="nonzero"/><path fill="#000000" fill-opacity="0.0" d="m64.05039 42.623886l8.787407 0" fill-rule="evenodd"/><path stroke="#000000" stroke-width="1.0" stroke-linejoin="round" stroke-linecap="butt" d="m64.05039 42.623886l8.787407 0" fill-rule="evenodd"/><path fill="#000000" fill-opacity="0.0" d="m171.48294 4.8520584l267.65353 0l0 87.11811l-267.65353 0z" fill-rule="evenodd"/><path stroke="#5252cf" stroke-width="1.0" stroke-linejoin="round" stroke-linecap="butt" stroke-dasharray="4.0,3.0" d="m171.48294 4.8520584l267.65353 0l0 87.11811l-267.65353 0z" fill-rule="evenodd"/><path fill="#000000" d="m289.2062 75.447044q-0.46875 0 -0.84375 0.15625q-0.375 0.15625 -0.640625 0.46875q-0.265625 0.3125 -0.40625 0.75q-0.140625 0.421875 -0.140625 0.96875q0 0.71875 0.21875 1.25q0.234375 0.53125 0.671875 0.828125q0.453125 0.28125 1.125 0.28125q0.390625 0 0.71875 -0.0625q0.34375 -0.078125 0.65625 -0.171875l0 0.578125q-0.3125 0.125 -0.65625 0.171875q-0.34375 0.0625 -0.8125 0.0625q-0.875 0 -1.453125 -0.359375q-0.578125 -0.359375 -0.875 -1.015625q-0.296875 -0.671875 -0.296875 -1.5625q0 -0.65625 0.1875 -1.1875q0.1875 -0.546875 0.53125 -0.9375q0.34375 -0.390625 0.859375 -0.59375q0.515625 -0.21875 1.171875 -0.21875q0.4375 0 0.828125 0.09375q0.40625 0.078125 0.734375 0.234375l-0.265625 0.5625q-0.28125 -0.125 -0.609375 -0.203125q-0.3125 -0.09375 -0.703125 -0.09375zm6.1953125 3.046875q0 0.53125 -0.140625 0.953125q-0.125 0.40625 -0.390625 0.703125q-0.25 0.28125 -0.625 0.4375q-0.359375 0.140625 -0.828125 0.140625q-0.421875 0 -0.78125 -0.140625q-0.359375 -0.15625 -0.625 -0.4375q-0.25 -0.296875 -0.390625 -0.703125q-0.140625 -0.421875 -0.140625 -0.953125q0 -0.703125 0.234375 -1.1875q0.234375 -0.5 0.671875 -0.75q0.453125 -0.265625 1.0625 -0.265625q0.59375 0 1.03125 0.265625q0.4375 0.25 0.671875 0.75q0.25 0.5 0.25 1.1875zm-3.25 0q0 0.515625 0.125 0.90625q0.140625 0.375 0.421875 0.578125q0.296875 0.203125 0.734375 0.203125q0.453125 0 0.734375 -0.203125q0.296875 -0.203125 0.421875 -0.578125q0.140625 -0.390625 0.140625 -0.90625q0 -0.5 -0.140625 -0.875q-0.125 -0.375 -0.421875 -0.578125q-0.28125 -0.203125 -0.734375 -0.203125q-0.671875 0 -0.984375 0.4375q-0.296875 0.4375 -0.296875 1.21875zm6.40625 -2.203125q0.75 0 1.140625 0.375q0.390625 0.375 0.390625 1.1875l0 2.796875l-0.640625 0l0 -2.75q0 -0.53125 -0.25 -0.796875q-0.234375 -0.265625 -0.734375 -0.265625q-0.71875 0 -1.015625 0.40625q-0.28125 0.390625 -0.28125 1.15625l0 2.25l-0.640625 0l0 -4.28125l0.515625 0l0.109375 0.609375l0.03125 0q0.140625 -0.21875 0.34375 -0.375q0.21875 -0.15625 0.46875 -0.234375q0.265625 -0.078125 0.5625 -0.078125zm5.640625 3.1875q0 0.40625 -0.203125 0.6875q-0.203125 0.28125 -0.59375 0.421875q-0.375 0.140625 -0.90625 0.140625q-0.4375 0 -0.765625 -0.078125q-0.328125 -0.0625 -0.578125 -0.1875l0 -0.609375q0.265625 0.140625 0.625 0.25q0.359375 0.09375 0.734375 0.09375q0.5625 0 0.8125 -0.171875q0.25 -0.1875 0.25 -0.5q0 -0.171875 -0.109375 -0.296875q-0.09375 -0.140625 -0.328125 -0.265625q-0.234375 -0.125 -0.640625 -0.28125q-0.421875 -0.15625 -0.71875 -0.3125q-0.296875 -0.15625 -0.46875 -0.375q-0.15625 -0.21875 -0.15625 -0.578125q0 -0.546875 0.4375 -0.828125q0.453125 -0.296875 1.15625 -0.296875q0.390625 0 0.71875 0.078125q0.34375 0.078125 0.640625 0.203125l-0.21875 0.515625q-0.265625 -0.109375 -0.5625 -0.1875q-0.296875 -0.078125 -0.609375 -0.078125q-0.453125 0 -0.703125 0.15625q-0.234375 0.140625 -0.234375 0.390625q0 0.203125 0.109375 0.34375q0.109375 0.125 0.359375 0.234375q0.25 0.109375 0.65625 0.265625q0.390625 0.140625 0.6875 0.3125q0.296875 0.15625 0.453125 0.375q0.15625 0.21875 0.15625 0.578125zm4.578125 -3.109375l0 4.28125l-0.53125 0l-0.09375 -0.609375l-0.03125 0q-0.140625 0.234375 -0.359375 0.390625q-0.203125 0.140625 -0.46875 0.21875q-0.25 0.078125 -0.546875 0.078125q-0.515625 0 -0.859375 -0.15625q-0.34375 -0.171875 -0.515625 -0.515625q-0.171875 -0.34375 -0.171875 -0.890625l0 -2.796875l0.65625 0l0 2.75q0 0.546875 0.234375 0.8125q0.25 0.25 0.75 0.25q0.46875 0 0.75 -0.171875q0.28125 -0.1875 0.40625 -0.53125q0.125 -0.34375 0.125 -0.859375l0 -2.25l0.65625 0zm6.015625 -0.078125q0.71875 0 1.078125 0.375q0.359375 0.359375 0.359375 1.171875l0 2.8125l-0.640625 0l0 -2.78125q0 -0.515625 -0.234375 -0.765625q-0.21875 -0.265625 -0.65625 -0.265625q-0.625 0 -0.90625 0.359375q-0.28125 0.359375 -0.28125 1.0625l0 2.390625l-0.640625 0l0 -2.78125q0 -0.34375 -0.109375 -0.5625q-0.09375 -0.234375 -0.296875 -0.34375q-0.1875 -0.125 -0.5 -0.125q-0.421875 0 -0.6875 0.171875q-0.25 0.171875 -0.375 0.53125q-0.109375 0.34375 -0.109375 0.84375l0 2.265625l-0.640625 0l0 -4.28125l0.515625 0l0.109375 0.609375l0.03125 0q0.125 -0.234375 0.3125 -0.375q0.203125 -0.15625 0.4375 -0.234375q0.25 -0.078125 0.53125 -0.078125q0.484375 0 0.8125 0.1875q0.328125 0.171875 0.484375 0.546875l0.03125 0q0.203125 -0.375 0.5625 -0.546875q0.375 -0.1875 0.8125 -0.1875zm4.40625 0q0.546875 0 0.9375 0.25q0.390625 0.234375 0.59375 0.671875q0.21875 0.4375 0.21875 1.015625l0 0.40625l-2.953125 0q0 0.75 0.359375 1.140625q0.375 0.390625 1.03125 0.390625q0.40625 0 0.71875 -0.0625q0.3125 -0.078125 0.65625 -0.21875l0 0.5625q-0.328125 0.140625 -0.65625 0.203125q-0.3125 0.078125 -0.75 0.078125q-0.609375 0 -1.078125 -0.25q-0.453125 -0.25 -0.703125 -0.734375q-0.25 -0.5 -0.25 -1.203125q0 -0.6875 0.21875 -1.1875q0.234375 -0.515625 0.65625 -0.78125q0.4375 -0.28125 1.0 -0.28125zm0 0.53125q-0.515625 0 -0.828125 0.34375q-0.3125 0.328125 -0.375 0.9375l2.265625 0q0 -0.375 -0.125 -0.65625q-0.109375 -0.296875 -0.34375 -0.453125q-0.234375 -0.171875 -0.59375 -0.171875zm4.7890625 -0.53125q0.140625 0 0.28125 0.015625q0.140625 0.015625 0.25 0.03125l-0.09375 0.609375q-0.09375 -0.03125 -0.234375 -0.046875q-0.125 -0.015625 -0.234375 -0.015625q-0.265625 0 -0.5 0.109375q-0.21875 0.09375 -0.390625 0.296875q-0.171875 0.1875 -0.265625 0.46875q-0.09375 0.265625 -0.09375 0.59375l0 2.296875l-0.65625 0l0 -4.28125l0.53125 0l0.078125 0.78125l0.03125 0q0.125 -0.234375 0.3125 -0.421875q0.1875 -0.203125 0.4375 -0.3125q0.25 -0.125 0.546875 -0.125z" fill-rule="nonzero"/><path fill="#7474c1" fill-opacity="0.7773" d="m178.32915 20.76696l67.33858 0l0 43.716537l-67.33858 0z" fill-rule="evenodd"/><path stroke="#000000" stroke-width="1.0" stroke-linejoin="round" stroke-linecap="butt" d="m178.32915 20.76696l67.33858 0l0 43.716537l-67.33858 0z" fill-rule="evenodd"/><path fill="#ffffff" d="m203.37343 40.30523l0 -5.71875l0.671875 0l0 5.125l2.53125 0l0 0.59375l-3.203125 0zm8.707031 -2.90625q0 0.953125 -0.359375 1.609375q-0.34375 0.640625 -1.015625 0.96875q-0.65625 0.328125 -1.609375 0.328125l-1.546875 0l0 -5.71875l1.71875 0q0.875 0 1.5 0.328125q0.640625 0.3125 0.96875 0.9375q0.34375 0.625 0.34375 1.546875zm-0.6875 0.015625q0 -0.765625 -0.265625 -1.265625q-0.25 -0.5 -0.75 -0.734375q-0.484375 -0.25 -1.203125 -0.25l-0.953125 0l0 4.5625l0.796875 0q1.1875 0 1.78125 -0.578125q0.59375 -0.578125 0.59375 -1.734375zm5.1484375 2.890625l-3.1875 0l0 -5.71875l3.1875 0l0 0.59375l-2.515625 0l0 1.84375l2.359375 0l0 0.578125l-2.359375 0l0 2.109375l2.515625 0l0 0.59375zm4.4765625 -1.515625q0 0.5 -0.25 0.859375q-0.25 0.359375 -0.703125 0.546875q-0.453125 0.1875 -1.0625 0.1875q-0.328125 0 -0.625 -0.03125q-0.28125 -0.03125 -0.53125 -0.09375q-0.234375 -0.0625 -0.421875 -0.140625l0 -0.640625q0.296875 0.125 0.71875 0.234375q0.421875 0.09375 0.890625 0.09375q0.421875 0 0.71875 -0.109375q0.296875 -0.125 0.453125 -0.328125q0.15625 -0.21875 0.15625 -0.53125q0 -0.296875 -0.140625 -0.484375q-0.125 -0.203125 -0.421875 -0.359375q-0.296875 -0.171875 -0.8125 -0.34375q-0.359375 -0.140625 -0.640625 -0.28125q-0.28125 -0.15625 -0.46875 -0.34375q-0.1875 -0.203125 -0.28125 -0.453125q-0.09375 -0.265625 -0.09375 -0.609375q0 -0.453125 0.234375 -0.78125q0.234375 -0.328125 0.640625 -0.5q0.421875 -0.171875 0.953125 -0.171875q0.453125 0 0.84375 0.09375q0.390625 0.078125 0.71875 0.21875l-0.21875 0.578125q-0.296875 -0.125 -0.65625 -0.203125q-0.34375 -0.09375 -0.703125 -0.09375q-0.375 0 -0.625 0.109375q-0.25 0.09375 -0.390625 0.296875q-0.125 0.1875 -0.125 0.46875q0 0.296875 0.125 0.5q0.125 0.1875 0.40625 0.34375q0.28125 0.15625 0.75 0.328125q0.5 0.1875 0.84375 0.390625q0.359375 0.203125 0.53125 0.5q0.1875 0.296875 0.1875 0.75z" fill-rule="nonzero"/><path fill="#ffffff" d="m204.34413 50.383354q-0.578125 0 -1.03125 -0.234375q-0.4375 -0.25 -0.6875 -0.734375q-0.234375 -0.484375 -0.234375 -1.234375q0 -0.765625 0.25 -1.265625q0.265625 -0.5 0.71875 -0.734375q0.453125 -0.234375 1.046875 -0.234375q0.3125 0 0.609375 0.0625q0.296875 0.0625 0.5 0.15625l-0.203125 0.546875q-0.1875 -0.078125 -0.453125 -0.140625q-0.25 -0.0625 -0.46875 -0.0625q-0.453125 0 -0.75 0.203125q-0.296875 0.1875 -0.4375 0.5625q-0.140625 0.359375 -0.140625 0.90625q0 0.515625 0.140625 0.890625q0.140625 0.359375 0.421875 0.5625q0.28125 0.1875 0.703125 0.1875q0.34375 0 0.609375 -0.0625q0.28125 -0.078125 0.5 -0.1875l0 0.578125q-0.203125 0.109375 -0.46875 0.171875q-0.265625 0.0625 -0.625 0.0625zm2.7695312 -0.078125l-0.65625 0l0 -6.078125l0.65625 0l0 6.078125zm2.0039062 -4.28125l0 4.28125l-0.640625 0l0 -4.28125l0.640625 0zm-0.3125 -1.609375q0.15625 0 0.265625 0.109375q0.125 0.109375 0.125 0.328125q0 0.203125 -0.125 0.3125q-0.109375 0.109375 -0.265625 0.109375q-0.171875 0 -0.28125 -0.109375q-0.109375 -0.109375 -0.109375 -0.3125q0 -0.21875 0.109375 -0.328125q0.109375 -0.109375 0.28125 -0.109375zm3.3320312 1.53125q0.546875 0 0.9375 0.25q0.390625 0.234375 0.59375 0.671875q0.21875 0.4375 0.21875 1.015625l0 0.40625l-2.953125 0q0 0.75 0.359375 1.140625q0.375 0.390625 1.03125 0.390625q0.40625 0 0.71875 -0.0625q0.3125 -0.078125 0.65625 -0.21875l0 0.5625q-0.328125 0.140625 -0.65625 0.203125q-0.3125 0.078125 -0.75 0.078125q-0.609375 0 -1.078125 -0.25q-0.453125 -0.25 -0.703125 -0.734375q-0.25 -0.5 -0.25 -1.203125q0 -0.6875 0.21875 -1.1875q0.234375 -0.515625 0.65625 -0.78125q0.4375 -0.28125 1.0 -0.28125zm0 0.53125q-0.515625 0 -0.828125 0.34375q-0.3125 0.328125 -0.375 0.9375l2.265625 0q0 -0.375 -0.125 -0.65625q-0.109375 -0.296875 -0.34375 -0.453125q-0.234375 -0.171875 -0.59375 -0.171875zm4.8828125 -0.53125q0.75 0 1.140625 0.375q0.390625 0.375 0.390625 1.1875l0 2.796875l-0.640625 0l0 -2.75q0 -0.53125 -0.25 -0.796875q-0.234375 -0.265625 -0.734375 -0.265625q-0.71875 0 -1.015625 0.40625q-0.28125 0.390625 -0.28125 1.15625l0 2.25l-0.640625 0l0 -4.28125l0.515625 0l0.109375 0.609375l0.03125 0q0.140625 -0.21875 0.34375 -0.375q0.21875 -0.15625 0.46875 -0.234375q0.265625 -0.078125 0.5625 -0.078125zm4.25 3.90625q0.171875 0 0.328125 -0.03125q0.171875 -0.03125 0.28125 -0.0625l0 0.5q-0.109375 0.0625 -0.3125 0.09375q-0.203125 0.03125 -0.390625 0.03125q-0.34375 0 -0.625 -0.109375q-0.28125 -0.125 -0.453125 -0.40625q-0.15625 -0.296875 -0.15625 -0.796875l0 -2.546875l-0.609375 0l0 -0.3125l0.609375 -0.25l0.265625 -0.9375l0.390625 0l0 1.0l1.25 0l0 0.5l-1.25 0l0 2.53125q0 0.390625 0.1875 0.59375q0.1875 0.203125 0.484375 0.203125z" fill-rule="nonzero"/><path fill="#000000" fill-opacity="0.0" d="m178.32915 42.62523l-33.133865 0" fill-rule="evenodd"/><path stroke="#000000" stroke-width="1.0" stroke-linejoin="round" stroke-linecap="butt" d="m178.32915 42.62523l-33.133865 0" fill-rule="evenodd"/><path fill="#7474c1" fill-opacity="0.7773" d="m258.8592 20.767653l80.12598 0l0 43.716537l-80.12598 0z" fill-rule="evenodd"/><path stroke="#000000" stroke-width="1.0" stroke-linejoin="round" stroke-linecap="butt" d="m258.8592 20.767653l80.12598 0l0 43.716537l-80.12598 0z" fill-rule="evenodd"/><path fill="#ffffff" d="m279.41437 39.58717q1.09375 0 1.609375 0.4375q0.515625 0.4375 0.515625 1.234375q0 0.359375 -0.125 0.6875q-0.125 0.328125 -0.390625 0.578125q-0.265625 0.25 -0.703125 0.390625q-0.421875 0.140625 -1.046875 0.140625l-0.6875 0l0 2.25l-0.671875 0l0 -5.71875l1.5 0zm-0.0625 0.578125l-0.765625 0l0 2.328125l0.609375 0q0.546875 0 0.90625 -0.109375q0.375 -0.125 0.5625 -0.390625q0.1875 -0.265625 0.1875 -0.703125q0 -0.578125 -0.375 -0.84375q-0.359375 -0.28125 -1.125 -0.28125zm5.21875 0.78125q0.140625 0 0.28125 0.015625q0.140625 0.015625 0.25 0.03125l-0.09375 0.609375q-0.09375 -0.03125 -0.234375 -0.046875q-0.125 -0.015625 -0.234375 -0.015625q-0.265625 0 -0.5 0.109375q-0.21875 0.09375 -0.390625 0.296875q-0.171875 0.1875 -0.265625 0.46875q-0.09375 0.265625 -0.09375 0.59375l0 2.296875l-0.65625 0l0 -4.28125l0.53125 0l0.078125 0.78125l0.03125 0q0.125 -0.234375 0.3125 -0.421875q0.1875 -0.203125 0.4375 -0.3125q0.25 -0.125 0.546875 -0.125zm5.0195312 2.203125q0 0.53125 -0.140625 0.953125q-0.125 0.40625 -0.390625 0.703125q-0.25 0.28125 -0.625 0.4375q-0.359375 0.140625 -0.828125 0.140625q-0.421875 0 -0.78125 -0.140625q-0.359375 -0.15625 -0.625 -0.4375q-0.25 -0.296875 -0.390625 -0.703125q-0.140625 -0.421875 -0.140625 -0.953125q0 -0.703125 0.234375 -1.1875q0.234375 -0.5 0.671875 -0.75q0.453125 -0.265625 1.0625 -0.265625q0.59375 0 1.03125 0.265625q0.4375 0.25 0.671875 0.75q0.25 0.5 0.25 1.1875zm-3.25 0q0 0.515625 0.125 0.90625q0.140625 0.375 0.421875 0.578125q0.296875 0.203125 0.734375 0.203125q0.453125 0 0.734375 -0.203125q0.296875 -0.203125 0.421875 -0.578125q0.140625 -0.390625 0.140625 -0.90625q0 -0.5 -0.140625 -0.875q-0.125 -0.375 -0.421875 -0.578125q-0.28125 -0.203125 -0.734375 -0.203125q-0.671875 0 -0.984375 0.4375q-0.296875 0.4375 -0.296875 1.21875zm6.09375 2.234375q-0.578125 0 -1.03125 -0.234375q-0.4375 -0.25 -0.6875 -0.734375q-0.234375 -0.484375 -0.234375 -1.234375q0 -0.765625 0.25 -1.265625q0.265625 -0.5 0.71875 -0.734375q0.453125 -0.234375 1.046875 -0.234375q0.3125 0 0.609375 0.0625q0.296875 0.0625 0.5 0.15625l-0.203125 0.546875q-0.1875 -0.078125 -0.453125 -0.140625q-0.25 -0.0625 -0.46875 -0.0625q-0.453125 0 -0.75 0.203125q-0.296875 0.1875 -0.4375 0.5625q-0.140625 0.359375 -0.140625 0.90625q0 0.515625 0.140625 0.890625q0.140625 0.359375 0.421875 0.5625q0.28125 0.1875 0.703125 0.1875q0.34375 0 0.609375 -0.0625q0.28125 -0.078125 0.5 -0.1875l0 0.578125q-0.203125 0.109375 -0.46875 0.171875q-0.265625 0.0625 -0.625 0.0625zm3.7539062 -4.4375q0.546875 0 0.9375 0.25q0.390625 0.234375 0.59375 0.671875q0.21875 0.4375 0.21875 1.015625l0 0.40625l-2.953125 0q0 0.75 0.359375 1.140625q0.375 0.390625 1.03125 0.390625q0.40625 0 0.71875 -0.0625q0.3125 -0.078125 0.65625 -0.21875l0 0.5625q-0.328125 0.140625 -0.65625 0.203125q-0.3125 0.078125 -0.75 0.078125q-0.609375 0 -1.078125 -0.25q-0.453125 -0.25 -0.703125 -0.734375q-0.25 -0.5 -0.25 -1.203125q0 -0.6875 0.21875 -1.1875q0.234375 -0.515625 0.65625 -0.78125q0.4375 -0.28125 1.0 -0.28125zm0 0.53125q-0.515625 0 -0.828125 0.34375q-0.3125 0.328125 -0.375 0.9375l2.265625 0q0 -0.375 -0.125 -0.65625q-0.109375 -0.296875 -0.34375 -0.453125q-0.234375 -0.171875 -0.59375 -0.171875zm5.6171875 2.65625q0 0.40625 -0.203125 0.6875q-0.203125 0.28125 -0.59375 0.421875q-0.375 0.140625 -0.90625 0.140625q-0.4375 0 -0.765625 -0.078125q-0.328125 -0.0625 -0.578125 -0.1875l0 -0.609375q0.265625 0.140625 0.625 0.25q0.359375 0.09375 0.734375 0.09375q0.5625 0 0.8125 -0.171875q0.25 -0.1875 0.25 -0.5q0 -0.171875 -0.109375 -0.296875q-0.09375 -0.140625 -0.328125 -0.265625q-0.234375 -0.125 -0.640625 -0.28125q-0.421875 -0.15625 -0.71875 -0.3125q-0.296875 -0.15625 -0.46875 -0.375q-0.15625 -0.21875 -0.15625 -0.578125q0 -0.546875 0.4375 -0.828125q0.453125 -0.296875 1.15625 -0.296875q0.390625 0 0.71875 0.078125q0.34375 0.078125 0.640625 0.203125l-0.21875 0.515625q-0.265625 -0.109375 -0.5625 -0.1875q-0.296875 -0.078125 -0.609375 -0.078125q-0.453125 0 -0.703125 0.15625q-0.234375 0.140625 -0.234375 0.390625q0 0.203125 0.109375 0.34375q0.109375 0.125 0.359375 0.234375q0.25 0.109375 0.65625 0.265625q0.390625 0.140625 0.6875 0.3125q0.296875 0.15625 0.453125 0.375q0.15625 0.21875 0.15625 0.578125zm3.8125 0q0 0.40625 -0.203125 0.6875q-0.203125 0.28125 -0.59375 0.421875q-0.375 0.140625 -0.90625 0.140625q-0.4375 0 -0.765625 -0.078125q-0.328125 -0.0625 -0.578125 -0.1875l0 -0.609375q0.265625 0.140625 0.625 0.25q0.359375 0.09375 0.734375 0.09375q0.5625 0 0.8125 -0.171875q0.25 -0.1875 0.25 -0.5q0 -0.171875 -0.109375 -0.296875q-0.09375 -0.140625 -0.328125 -0.265625q-0.234375 -0.125 -0.640625 -0.28125q-0.421875 -0.15625 -0.71875 -0.3125q-0.296875 -0.15625 -0.46875 -0.375q-0.15625 -0.21875 -0.15625 -0.578125q0 -0.546875 0.4375 -0.828125q0.453125 -0.296875 1.15625 -0.296875q0.390625 0 0.71875 0.078125q0.34375 0.078125 0.640625 0.203125l-0.21875 0.515625q-0.265625 -0.109375 -0.5625 -0.1875q-0.296875 -0.078125 -0.609375 -0.078125q-0.453125 0 -0.703125 0.15625q-0.234375 0.140625 -0.234375 0.390625q0 0.203125 0.109375 0.34375q0.109375 0.125 0.359375 0.234375q0.25 0.109375 0.65625 0.265625q0.390625 0.140625 0.6875 0.3125q0.296875 0.15625 0.453125 0.375q0.15625 0.21875 0.15625 0.578125zm4.734375 -0.984375q0 0.53125 -0.140625 0.953125q-0.125 0.40625 -0.390625 0.703125q-0.25 0.28125 -0.625 0.4375q-0.359375 0.140625 -0.828125 0.140625q-0.421875 0 -0.78125 -0.140625q-0.359375 -0.15625 -0.625 -0.4375q-0.25 -0.296875 -0.390625 -0.703125q-0.140625 -0.421875 -0.140625 -0.953125q0 -0.703125 0.234375 -1.1875q0.234375 -0.5 0.671875 -0.75q0.453125 -0.265625 1.0625 -0.265625q0.59375 0 1.03125 0.265625q0.4375 0.25 0.671875 0.75q0.25 0.5 0.25 1.1875zm-3.25 0q0 0.515625 0.125 0.90625q0.140625 0.375 0.421875 0.578125q0.296875 0.203125 0.734375 0.203125q0.453125 0 0.734375 -0.203125q0.296875 -0.203125 0.421875 -0.578125q0.140625 -0.390625 0.140625 -0.90625q0 -0.5 -0.140625 -0.875q-0.125 -0.375 -0.421875 -0.578125q-0.28125 -0.203125 -0.734375 -0.203125q-0.671875 0 -0.984375 0.4375q-0.296875 0.4375 -0.296875 1.21875zm6.3125 -2.203125q0.140625 0 0.28125 0.015625q0.140625 0.015625 0.25 0.03125l-0.09375 0.609375q-0.09375 -0.03125 -0.234375 -0.046875q-0.125 -0.015625 -0.234375 -0.015625q-0.265625 0 -0.5 0.109375q-0.21875 0.09375 -0.390625 0.296875q-0.171875 0.1875 -0.265625 0.46875q-0.09375 0.265625 -0.09375 0.59375l0 2.296875l-0.65625 0l0 -4.28125l0.53125 0l0.078125 0.78125l0.03125 0q0.125 -0.234375 0.3125 -0.421875q0.1875 -0.203125 0.4375 -0.3125q0.25 -0.125 0.546875 -0.125zm5.5351562 4.359375l-0.640625 0l0 -4.046875q0 -0.234375 0 -0.390625q0.015625 -0.171875 0.015625 -0.3125q0 -0.140625 0.015625 -0.28125q-0.125 0.125 -0.234375 0.21875q-0.09375 0.078125 -0.25 0.203125l-0.65625 0.53125l-0.34375 -0.4375l1.546875 -1.203125l0.546875 0l0 5.71875z" fill-rule="nonzero"/><path fill="#000000" fill-opacity="0.0" d="m245.66772 42.62523l13.196838 0" fill-rule="evenodd"/><path stroke="#000000" stroke-width="1.0" stroke-linejoin="round" stroke-linecap="butt" d="m245.66772 42.62523l13.196838 0" fill-rule="evenodd"/><path fill="#7474c1" fill-opacity="0.7773" d="m348.99548 20.767214l80.12598 0l0 43.716537l-80.12598 0z" fill-rule="evenodd"/><path stroke="#000000" stroke-width="1.0" stroke-linejoin="round" stroke-linecap="butt" d="m348.99548 20.767214l80.12598 0l0 43.716537l-80.12598 0z" fill-rule="evenodd"/><path fill="#ffffff" d="m369.55066 39.58673q1.09375 0 1.609375 0.4375q0.515625 0.4375 0.515625 1.234375q0 0.359375 -0.125 0.6875q-0.125 0.328125 -0.390625 0.578125q-0.265625 0.25 -0.703125 0.390625q-0.421875 0.140625 -1.046875 0.140625l-0.6875 0l0 2.25l-0.671875 0l0 -5.71875l1.5 0zm-0.0625 0.578125l-0.765625 0l0 2.328125l0.609375 0q0.546875 0 0.90625 -0.109375q0.375 -0.125 0.5625 -0.390625q0.1875 -0.265625 0.1875 -0.703125q0 -0.578125 -0.375 -0.84375q-0.359375 -0.28125 -1.125 -0.28125zm5.21875 0.78125q0.140625 0 0.28125 0.015625q0.140625 0.015625 0.25 0.03125l-0.09375 0.609375q-0.09375 -0.03125 -0.234375 -0.046875q-0.125 -0.015625 -0.234375 -0.015625q-0.265625 0 -0.5 0.109375q-0.21875 0.09375 -0.390625 0.296875q-0.171875 0.1875 -0.265625 0.46875q-0.09375 0.265625 -0.09375 0.59375l0 2.296875l-0.65625 0l0 -4.28125l0.53125 0l0.078125 0.78125l0.03125 0q0.125 -0.234375 0.3125 -0.421875q0.1875 -0.203125 0.4375 -0.3125q0.25 -0.125 0.546875 -0.125zm5.0195312 2.203125q0 0.53125 -0.140625 0.953125q-0.125 0.40625 -0.390625 0.703125q-0.25 0.28125 -0.625 0.4375q-0.359375 0.140625 -0.828125 0.140625q-0.421875 0 -0.78125 -0.140625q-0.359375 -0.15625 -0.625 -0.4375q-0.25 -0.296875 -0.390625 -0.703125q-0.140625 -0.421875 -0.140625 -0.953125q0 -0.703125 0.234375 -1.1875q0.234375 -0.5 0.671875 -0.75q0.453125 -0.265625 1.0625 -0.265625q0.59375 0 1.03125 0.265625q0.4375 0.25 0.671875 0.75q0.25 0.5 0.25 1.1875zm-3.25 0q0 0.515625 0.125 0.90625q0.140625 0.375 0.421875 0.578125q0.296875 0.203125 0.734375 0.203125q0.453125 0 0.734375 -0.203125q0.296875 -0.203125 0.421875 -0.578125q0.140625 -0.390625 0.140625 -0.90625q0 -0.5 -0.140625 -0.875q-0.125 -0.375 -0.421875 -0.578125q-0.28125 -0.203125 -0.734375 -0.203125q-0.671875 0 -0.984375 0.4375q-0.296875 0.4375 -0.296875 1.21875zm6.09375 2.234375q-0.578125 0 -1.03125 -0.234375q-0.4375 -0.25 -0.6875 -0.734375q-0.234375 -0.484375 -0.234375 -1.234375q0 -0.765625 0.25 -1.265625q0.265625 -0.5 0.71875 -0.734375q0.453125 -0.234375 1.046875 -0.234375q0.3125 0 0.609375 0.0625q0.296875 0.0625 0.5 0.15625l-0.203125 0.546875q-0.1875 -0.078125 -0.453125 -0.140625q-0.25 -0.0625 -0.46875 -0.0625q-0.453125 0 -0.75 0.203125q-0.296875 0.1875 -0.4375 0.5625q-0.140625 0.359375 -0.140625 0.90625q0 0.515625 0.140625 0.890625q0.140625 0.359375 0.421875 0.5625q0.28125 0.1875 0.703125 0.1875q0.34375 0 0.609375 -0.0625q0.28125 -0.078125 0.5 -0.1875l0 0.578125q-0.203125 0.109375 -0.46875 0.171875q-0.265625 0.0625 -0.625 0.0625zm3.7539062 -4.4375q0.546875 0 0.9375 0.25q0.390625 0.234375 0.59375 0.671875q0.21875 0.4375 0.21875 1.015625l0 0.40625l-2.953125 0q0 0.75 0.359375 1.140625q0.375 0.390625 1.03125 0.390625q0.40625 0 0.71875 -0.0625q0.3125 -0.078125 0.65625 -0.21875l0 0.5625q-0.328125 0.140625 -0.65625 0.203125q-0.3125 0.078125 -0.75 0.078125q-0.609375 0 -1.078125 -0.25q-0.453125 -0.25 -0.703125 -0.734375q-0.25 -0.5 -0.25 -1.203125q0 -0.6875 0.21875 -1.1875q0.234375 -0.515625 0.65625 -0.78125q0.4375 -0.28125 1.0 -0.28125zm0 0.53125q-0.515625 0 -0.828125 0.34375q-0.3125 0.328125 -0.375 0.9375l2.265625 0q0 -0.375 -0.125 -0.65625q-0.109375 -0.296875 -0.34375 -0.453125q-0.234375 -0.171875 -0.59375 -0.171875zm5.6171875 2.65625q0 0.40625 -0.203125 0.6875q-0.203125 0.28125 -0.59375 0.421875q-0.375 0.140625 -0.90625 0.140625q-0.4375 0 -0.765625 -0.078125q-0.328125 -0.0625 -0.578125 -0.1875l0 -0.609375q0.265625 0.140625 0.625 0.25q0.359375 0.09375 0.734375 0.09375q0.5625 0 0.8125 -0.171875q0.25 -0.1875 0.25 -0.5q0 -0.171875 -0.109375 -0.296875q-0.09375 -0.140625 -0.328125 -0.265625q-0.234375 -0.125 -0.640625 -0.28125q-0.421875 -0.15625 -0.71875 -0.3125q-0.296875 -0.15625 -0.46875 -0.375q-0.15625 -0.21875 -0.15625 -0.578125q0 -0.546875 0.4375 -0.828125q0.453125 -0.296875 1.15625 -0.296875q0.390625 0 0.71875 0.078125q0.34375 0.078125 0.640625 0.203125l-0.21875 0.515625q-0.265625 -0.109375 -0.5625 -0.1875q-0.296875 -0.078125 -0.609375 -0.078125q-0.453125 0 -0.703125 0.15625q-0.234375 0.140625 -0.234375 0.390625q0 0.203125 0.109375 0.34375q0.109375 0.125 0.359375 0.234375q0.25 0.109375 0.65625 0.265625q0.390625 0.140625 0.6875 0.3125q0.296875 0.15625 0.453125 0.375q0.15625 0.21875 0.15625 0.578125zm3.8125 0q0 0.40625 -0.203125 0.6875q-0.203125 0.28125 -0.59375 0.421875q-0.375 0.140625 -0.90625 0.140625q-0.4375 0 -0.765625 -0.078125q-0.328125 -0.0625 -0.578125 -0.1875l0 -0.609375q0.265625 0.140625 0.625 0.25q0.359375 0.09375 0.734375 0.09375q0.5625 0 0.8125 -0.171875q0.25 -0.1875 0.25 -0.5q0 -0.171875 -0.109375 -0.296875q-0.09375 -0.140625 -0.328125 -0.265625q-0.234375 -0.125 -0.640625 -0.28125q-0.421875 -0.15625 -0.71875 -0.3125q-0.296875 -0.15625 -0.46875 -0.375q-0.15625 -0.21875 -0.15625 -0.578125q0 -0.546875 0.4375 -0.828125q0.453125 -0.296875 1.15625 -0.296875q0.390625 0 0.71875 0.078125q0.34375 0.078125 0.640625 0.203125l-0.21875 0.515625q-0.265625 -0.109375 -0.5625 -0.1875q-0.296875 -0.078125 -0.609375 -0.078125q-0.453125 0 -0.703125 0.15625q-0.234375 0.140625 -0.234375 0.390625q0 0.203125 0.109375 0.34375q0.109375 0.125 0.359375 0.234375q0.25 0.109375 0.65625 0.265625q0.390625 0.140625 0.6875 0.3125q0.296875 0.15625 0.453125 0.375q0.15625 0.21875 0.15625 0.578125zm4.734375 -0.984375q0 0.53125 -0.140625 0.953125q-0.125 0.40625 -0.390625 0.703125q-0.25 0.28125 -0.625 0.4375q-0.359375 0.140625 -0.828125 0.140625q-0.421875 0 -0.78125 -0.140625q-0.359375 -0.15625 -0.625 -0.4375q-0.25 -0.296875 -0.390625 -0.703125q-0.140625 -0.421875 -0.140625 -0.953125q0 -0.703125 0.234375 -1.1875q0.234375 -0.5 0.671875 -0.75q0.453125 -0.265625 1.0625 -0.265625q0.59375 0 1.03125 0.265625q0.4375 0.25 0.671875 0.75q0.25 0.5 0.25 1.1875zm-3.25 0q0 0.515625 0.125 0.90625q0.140625 0.375 0.421875 0.578125q0.296875 0.203125 0.734375 0.203125q0.453125 0 0.734375 -0.203125q0.296875 -0.203125 0.421875 -0.578125q0.140625 -0.390625 0.140625 -0.90625q0 -0.5 -0.140625 -0.875q-0.125 -0.375 -0.421875 -0.578125q-0.28125 -0.203125 -0.734375 -0.203125q-0.671875 0 -0.984375 0.4375q-0.296875 0.4375 -0.296875 1.21875zm6.3125 -2.203125q0.140625 0 0.28125 0.015625q0.140625 0.015625 0.25 0.03125l-0.09375 0.609375q-0.09375 -0.03125 -0.234375 -0.046875q-0.125 -0.015625 -0.234375 -0.015625q-0.265625 0 -0.5 0.109375q-0.21875 0.09375 -0.390625 0.296875q-0.171875 0.1875 -0.265625 0.46875q-0.09375 0.265625 -0.09375 0.59375l0 2.296875l-0.65625 0l0 -4.28125l0.53125 0l0.078125 0.78125l0.03125 0q0.125 -0.234375 0.3125 -0.421875q0.1875 -0.203125 0.4375 -0.3125q0.25 -0.125 0.546875 -0.125zm6.8632812 4.359375l-3.75 0l0 -0.546875l1.53125 -1.546875q0.421875 -0.4375 0.71875 -0.765625q0.296875 -0.34375 0.4375 -0.65625q0.15625 -0.328125 0.15625 -0.71875q0 -0.484375 -0.296875 -0.734375q-0.28125 -0.265625 -0.75 -0.265625q-0.40625 0 -0.71875 0.140625q-0.3125 0.140625 -0.65625 0.390625l-0.34375 -0.4375q0.234375 -0.1875 0.5 -0.328125q0.265625 -0.15625 0.5625 -0.234375q0.3125 -0.09375 0.65625 -0.09375q0.53125 0 0.90625 0.1875q0.390625 0.1875 0.59375 0.53125q0.21875 0.328125 0.21875 0.796875q0 0.453125 -0.1875 0.84375q-0.171875 0.390625 -0.5 0.78125q-0.328125 0.375 -0.75 0.796875l-1.25 1.234375l0 0.03125l2.921875 0l0 0.59375z" fill-rule="nonzero"/><path fill="#000000" fill-opacity="0.0" d="m338.98517 42.62592l10.015747 0" fill-rule="evenodd"/><path stroke="#000000" stroke-width="1.0" stroke-linejoin="round" stroke-linecap="butt" d="m338.98517 42.62592l10.015747 0" fill-rule="evenodd"/></g></svg>